<?xml version="1.0" encoding="UTF-8" standalone="no"?>
<svg
   xmlns:dc="http://purl.org/dc/elements/1.1/"
   xmlns:cc="http://creativecommons.org/ns#"
   xmlns:rdf="http://www.w3.org/1999/02/22-rdf-syntax-ns#"
   xmlns:svg="http://www.w3.org/2000/svg"
   xmlns="http://www.w3.org/2000/svg"
   xmlns:sodipodi="http://sodipodi.sourceforge.net/DTD/sodipodi-0.dtd"
   xmlns:inkscape="http://www.inkscape.org/namespaces/inkscape"
   width="470.71744mm"
   height="456.00751mm"
   viewBox="0 0 470.71744 456.00751"
   version="1.1"
   id="svg1128"
   inkscape:version="1.0.1 (3bc2e813f5, 2020-09-07)"
   sodipodi:docname="briefcase.svg">
  <defs
     id="defs1122" />
  <sodipodi:namedview
     id="base"
     pagecolor="#ffffff"
     bordercolor="#666666"
     borderopacity="1.0"
     inkscape:pageopacity="0.0"
     inkscape:pageshadow="2"
     inkscape:zoom="0.36"
     inkscape:cx="325.55289"
     inkscape:cy="1033.8088"
     inkscape:document-units="mm"
     inkscape:current-layer="layer1"
     showgrid="false"
     inkscape:window-width="3440"
     inkscape:window-height="1346"
     inkscape:window-x="2293"
     inkscape:window-y="-11"
     inkscape:window-maximized="1"
     inkscape:document-rotation="0" />
  <metadata
     id="metadata1125">
    <rdf:RDF>
      <cc:Work
         rdf:about="">
        <dc:format>image/svg+xml</dc:format>
        <dc:type
           rdf:resource="http://purl.org/dc/dcmitype/StillImage" />
        <dc:title></dc:title>
      </cc:Work>
    </rdf:RDF>
  </metadata>
  <g
     inkscape:label="Capa 1"
     inkscape:groupmode="layer"
     id="layer1"
     transform="translate(-18.86413,193.03783)">
    <path
       inkscape:connector-curvature="0"
       id="path106"
       style="opacity:0.509138;fill:#cff1ff;fill-opacity:1;fill-rule:nonzero;stroke:none;stroke-width:3.67748"
       d="M 430.74192,75.418255 V 182.06517 c 0,12.13569 -9.9292,22.06489 -22.06488,22.06489 H 99.76872 c -12.135684,0 -22.06488,-9.9292 -22.06488,-22.06489 V 75.418255 H 213.7706 v 40.452285 c 0,1.98583 1.69164,3.67748 3.67748,3.67748 h 73.5496 c 1.98584,0 3.67748,-1.69165 3.67748,-3.67748 V 75.418255 Z" />
    <g
       transform="matrix(3.67748,0,0,-3.67748,474.87165,68.063248)"
       id="g108"
       style="fill:#f44336;fill-opacity:1">
      <path
         inkscape:connector-curvature="0"
         id="path110"
         style="fill:#f44336;fill-opacity:1;fill-rule:nonzero;stroke:none"
         d="m 0,0 h -45 v 3 c 0,2.76 -2.24,5 -5,5 h -20 c -2.76,0 -5,-2.24 -5,-5 V 0 h -45 v 35 c 0,5.514 4.486,10 10,10 h 35 v 4 h -7 v 10 c 0,0.542 0.458,1 1,1 h 2 v -2 c 0,-2.757 2.243,-5 5,-5 h 28 c 2.757,0 5,2.243 5,5 v 2 h 2 c 0.542,0 1,-0.458 1,-1 V 49 h -22 v -4 h 50 C -4.486,45 0,40.514 0,35 Z M -71,-7 V 3 c 0,0.54 0.46,1 1,1 h 20 c 0.54,0 1,-0.46 1,-1 V -7 Z m 22,-4 v -2 c 0,-0.54 -0.46,-1 -1,-1 h -20 c -0.54,0 -1,0.46 -1,1 v 2 z M 0,-39 c 0,-5.514 -4.486,-10 -10,-10 h -100 c -5.514,0 -10,4.486 -10,10 v 35 h 45 v -9 c 0,-2.76 2.24,-5 5,-5 h 20 c 2.76,0 5,2.24 5,5 v 9 H 0 Z M -75,66 c 0,0.542 0.458,1 1,1 h 28 c 0.542,0 1,-0.458 1,-1 v -8 c 0,-0.542 -0.458,-1 -1,-1 h -28 c -0.542,0 -1,0.458 -1,1 z m 65,-17 h -24 v 10 c 0,2.757 -2.243,5 -5,5 h -2 v 2 c 0,2.757 -2.243,5 -5,5 h -28 c -2.757,0 -5,-2.243 -5,-5 v -2 h -2 c -2.757,0 -5,-2.243 -5,-5 V 49 h -24 c -7.72,0 -14,-6.28 -14,-14 v -74 c 0,-7.72 6.28,-14 14,-14 h 100 c 7.72,0 14,6.28 14,14 v 74 c 0,7.72 -6.28,14 -14,14" />
    </g>
    <g
       transform="matrix(3.67748,0,0,-3.67748,92.41371,23.933522)"
       id="g112"
       style="fill:#f44336;fill-opacity:1">
      <path
         inkscape:connector-curvature="0"
         id="path114"
         style="fill:#f44336;fill-opacity:1;fill-rule:nonzero;stroke:none"
         d="m 0,0 h -4 v 13 c 0,4.411 3.589,8 8,8 H 17 V 17 H 4 C 1.794,17 0,15.206 0,13 Z" />
    </g>
    <path
       inkscape:connector-curvature="0"
       id="path116"
       style="fill:#f44336;fill-opacity:1;fill-rule:nonzero;stroke:none;stroke-width:3.67748"
       d="m 254.22281,-38.583617 h -55.16213 v -14.709908 h 55.16213 z" />
  </g>
</svg>
