<?xml version="1.0" encoding="UTF-8" standalone="no"?>
<svg
   xmlns:dc="http://purl.org/dc/elements/1.1/"
   xmlns:cc="http://creativecommons.org/ns#"
   xmlns:rdf="http://www.w3.org/1999/02/22-rdf-syntax-ns#"
   xmlns:svg="http://www.w3.org/2000/svg"
   xmlns="http://www.w3.org/2000/svg"
   xmlns:sodipodi="http://sodipodi.sourceforge.net/DTD/sodipodi-0.dtd"
   xmlns:inkscape="http://www.inkscape.org/namespaces/inkscape"
   id="Layer_1"
   data-name="Layer 1"
   viewBox="0 0 48.04842 50.112286"
   version="1.1"
   sodipodi:docname="exp.svg"
   width="48.04842"
   height="50.112286"
   inkscape:version="1.0.1 (3bc2e813f5, 2020-09-07)">
  <metadata
     id="metadata99">
    <rdf:RDF>
      <cc:Work
         rdf:about="">
        <dc:format>image/svg+xml</dc:format>
        <dc:type
           rdf:resource="http://purl.org/dc/dcmitype/StillImage" />
      </cc:Work>
    </rdf:RDF>
  </metadata>
  <sodipodi:namedview
     pagecolor="#ffffff"
     bordercolor="#666666"
     borderopacity="1"
     objecttolerance="10"
     gridtolerance="10"
     guidetolerance="10"
     inkscape:pageopacity="0"
     inkscape:pageshadow="2"
     inkscape:window-width="3440"
     inkscape:window-height="1346"
     id="namedview97"
     showgrid="false"
     inkscape:zoom="15.75"
     inkscape:cx="-5.4752352"
     inkscape:cy="25.609756"
     inkscape:window-x="2293"
     inkscape:window-y="-11"
     inkscape:window-maximized="1"
     inkscape:current-layer="Layer_1"
     inkscape:document-rotation="0" />
  <defs
     id="defs4">
    <style
       id="style2">.cls-1{fill:#9ac8f1;}.cls-2,.cls-7{fill:none;stroke-linecap:round;stroke-linejoin:round;stroke-width:2px;}.cls-2{stroke:#295183;}.cls-3{fill:#389ad6;}.cls-4{fill:#fff;}.cls-5{fill:#a8d2f0;}.cls-6{fill:#295183;}.cls-7{stroke:#a8d2f0;}</style>
  </defs>
  <title
     id="title6">science, chemistry, lab, laboratory, experiment</title>
  <path
     class="cls-1"
     d="m 22.350222,13.820607 c -0.45,-0.06 -0.3,0.43 -0.2,0.68 0.2,0.48 0.58,0.57 1,0.85 a 2.28,2.28 0 0 1 0.87,1.53 33.83,33.83 0 0 1 -0.11,4.73 3,3 0 0 1 -0.71,1.58 3.44,3.44 0 0 1 -1.93,0.74 1.63,1.63 0 0 1 -1.2,-0.11 1.51,1.51 0 0 1 -0.5,-0.94 c -0.16,-0.69 -0.25,-4.32 -0.26,-5 a 2,2 0 0 0 -0.29,-1.11 c -0.21,-0.31 -0.79,-0.41 -0.8,-0.82 a 2.64,2.64 0 0 1 2,-2.29 10,10 0 0 1 2.13,0.16 z"
     id="path8"
     style="opacity:0.48041775;fill:#54dfe7;fill-opacity:1" />
  <path
     class="cls-2"
     d="m 15.780222,26.800607 a 11,11 0 0 0 -1.2,1 12.81,12.81 0 0 0 -1.27,1.44 11.93,11.93 0 0 0 -2.37,6.25 8.68,8.68 0 0 0 0,1 12.11,12.11 0 0 0 8.44,11.58"
     id="path10"
     style="stroke:#f44336;stroke-opacity:1" />
  <path
     class="cls-2"
     d="m 26.550222,48.070607 a 12.25,12.25 0 0 0 8.47,-11 14.09,14.09 0 0 0 0,-1.57 12.18,12.18 0 0 0 -5.43,-9.1 v 0 a 11.78,11.78 0 0 0 -3,-1.4 12.14,12.14 0 0 0 -3.57,-0.58"
     id="path12"
     style="stroke:#f44336;stroke-opacity:1" />
  <path
     class="cls-2"
     d="m 27.500222,13.170607 a 2.11,2.11 0 0 1 0,4.21 h -9 a 2.11,2.11 0 1 1 0,-4.21 h 6.12"
     id="path14"
     style="stroke:#f44336;stroke-opacity:1" />
  <path
     class="cls-1"
     d="m 32.230222,40.750607 c -0.5,2.67 -3.25,4.6 -5.68,5.36 a 10.54,10.54 0 0 1 -7.75,-0.52 9.56,9.56 0 0 1 -1,-0.56 11.26,11.26 0 0 1 -1.1,-0.84 10.09,10.09 0 0 1 -3.25,-5.69 11,11 0 0 1 5.39,-11.81 c 0.4,-0.2 0.62,-0.2 0.75,-0.08 0.34,0.37 -0.16,1.71 -0.3,2.17 a 9.25,9.25 0 0 0 -0.59,3.07 4.59,4.59 0 0 0 0.79,2.51 5.11,5.11 0 0 0 3.15,1.71 c 2.1,0.44 4.28,0.3 6.4,0.6 a 4.62,4.62 0 0 1 2,0.67 3,3 0 0 1 1.16,1.76 3.7,3.7 0 0 1 0.03,1.65 z"
     id="path16"
     style="opacity:0.48041775;fill:#54dfe7;fill-opacity:1" />
  <path
     class="cls-3"
     d="m 7.0902219,20.070607 c 0,0 2.61,-0.23 1.61,2.08 a 2.26,2.26 0 0 0 1.3200001,3.15 c 0,0 -4.1700001,-0.92 -3.8400001,-3.63 0.33,-2.71 0.91,-1.6 0.91,-1.6 z"
     id="path20"
     style="opacity:0.48041775;fill:#54dfe7;fill-opacity:1" />
  <path
     class="cls-1"
     d="m 35.630222,44.480607 c 0,0 2.33,-1.2 2.28,1.31 a 2.26,2.26 0 0 0 2.4,2.41 c 0,0 -4.2,0.73 -4.93,-1.9 -0.73,-2.63 0.25,-1.82 0.25,-1.82 z"
     id="path22" />
  <path
     class="cls-3"
     d="m 25.850222,33.160607 a 0.74,0.74 0 0 1 -0.09,0.32 0.82,0.82 0 0 1 -0.77,0.41 c -0.89,-0.05 -1.26,-1.28 -0.28,-1.48 0.53,-0.1 1.15,0.23 1.14,0.75 z"
     id="path24"
     style="opacity:0.48041775;fill:#54dfe7;fill-opacity:1" />
  <path
     class="cls-3"
     d="m 30.380222,32.890607 a 1.24,1.24 0 0 1 -1.24,1.24 1.23,1.23 0 0 1 -1.23,-1.35 c 0,-0.26 -0.11,-0.4 -0.3,-0.55 a 0.71,0.71 0 0 1 -0.32,-0.59 0.94,0.94 0 0 1 1.6,-0.67 c 0.15,0.15 0.18,0.38 0.31,0.55 0.13,0.17 0.5,0.22 0.71,0.39 a 1.25,1.25 0 0 1 0.47,0.98 z"
     id="path26"
     style="opacity:0.48041775;fill:#54dfe7;fill-opacity:1" />
  <path
     class="cls-2"
     d="m 13.300222,29.250607 c -0.7,0.73 -1.36,1.5 -2,2.28 -0.64,0.78 -1,1.39 -1.5000001,2.08 -4.64,7.08 -4.18,13.64 1.3900001,15.2 a 14,14 0 0 0 8.19,-0.74 26.35,26.35 0 0 0 3.64,-1.58 33.87,33.87 0 0 0 10.49,-8.8 c 0.57,-0.73 1.1,-1.47 1.57,-2.19 0.47,-0.72 0.78,-1.26 1.1,-1.88 3.33,-6.28 2.49,-11.8 -2.56,-13.2 a 13,13 0 0 0 -7,0.34 v 0 -3.38 h -7.27 v 5.56 a 1.63,1.63 0 0 0 1.88,1.61 12.25,12.25 0 0 1 1.79,-0.13"
     id="path30"
     style="stroke:#f44336;stroke-opacity:1" />
  <path
     class="cls-2"
     d="m 7.9402219,25.300607 c -0.38,2.32 0.24,5.22 1.88,8.31 a 19.14,19.14 0 0 0 1.1100001,1.89 c 0.47,0.73 1,1.46 1.56,2.18 a 33.87,33.87 0 0 0 10.53,8.81 27.18,27.18 0 0 0 3.53,1.58 14,14 0 0 0 8.19,0.74 7.11,7.11 0 0 0 1.66,-0.7"
     id="path32"
     style="stroke:#f44336;stroke-opacity:1" />
  <path
     class="cls-2"
     d="m 39.280222,43.130607 c 0.18,-2.69 -0.86,-6 -3.15,-9.52 -0.45,-0.69 -1,-1.39 -1.5,-2.08 -0.5,-0.69 -1.32,-1.59 -2,-2.34"
     id="path34"
     style="stroke:#f44336;stroke-opacity:1" />
  <path
     class="cls-2"
     d="m 11.510222,20.730607 a 5.79,5.79 0 0 1 0.87,-0.31 10.19,10.19 0 0 1 3.3,-0.32"
     id="path36"
     style="stroke:#f44336;stroke-opacity:1" />
  <circle
     class="cls-2"
     cx="9.1502209"
     cy="22.570606"
     r="2.99"
     id="circle40"
     style="stroke:#f44336;stroke-opacity:1" />
  <circle
     class="cls-2"
     cx="38.540222"
     cy="46.020607"
     r="2.99"
     id="circle42"
     style="stroke:#f44336;stroke-opacity:1" />
  <path
     class="cls-2"
     d="m 22.020222,9.4106067 a 2.51,2.51 0 1 1 3.14,-1.65"
     id="path44"
     style="stroke:#f44336;stroke-opacity:1" />
  <path
     class="cls-2"
     d="m 20.380222,7.8206067 a 0.7,0.7 0 0 0 -0.08,-0.24 v 0 a 1.64,1.64 0 1 0 -2,2.18"
     id="path46"
     style="stroke:#f44336;stroke-opacity:1" />
  <path
     class="cls-5"
     d="m 41.540222,5.2406067 c 1,0.92 0.26,1.57 -0.46,2.33 a 7.79,7.79 0 0 0 -1.79,3.1700003 5.55,5.55 0 0 0 -0.27,1.33 c 0,0.42 0.29,1 0.11,1.37 a 0.65,0.65 0 0 1 -0.59,0.33 2.26,2.26 0 0 1 -1.17,-0.38 3.83,3.83 0 0 1 -1.1,-1.06 c 0,0 -1.86,-3.3100003 -1.08,-4.8700003 0.63,-1.27 2.51,-2.06 3.79,-2.4 a 3.59,3.59 0 0 1 2.24,-0.06 1.45,1.45 0 0 1 0.32,0.24 z"
     id="path48"
     style="fill:#54dfe7;fill-opacity:1;opacity:0.48302872" />
  <path
     class="cls-2"
     d="m 43.560222,13.750607 a 4.94,4.94 0 0 1 -1.24,0.79 5,5 0 0 1 -0.65,0.24 4.73,4.73 0 0 1 -1.08,0.2 5,5 0 0 1 -2.27,-0.33 4.79,4.79 0 0 1 -0.8,-0.38 5.15,5.15 0 0 1 -0.72,-0.52 5,5 0 0 1 -1.37,-1.84 v 0 a 4.88,4.88 0 0 1 -0.41,-1.73 4.94,4.94 0 0 1 0.33,-2.2600003 v 0 a 4.53,4.53 0 0 1 0.38,-0.81 4.59,4.59 0 0 1 0.53,-0.73 5.18,5.18 0 0 1 1.76,-1.37 5.08,5.08 0 0 1 1.34,-0.39 2.16,2.16 0 0 1 0.39,0 4.85,4.85 0 0 1 1.29,0.06 h 0.23 a 3.73,3.73 0 0 1 0.75,0.23 5,5 0 0 1 1.52,0.9 v 0 a 5,5 0 0 1 1.25,1.58 c 0,0.08 0.08,0.16 0.11,0.24 a 5.21,5.21 0 0 1 0.44,1.73 0.8,0.8 0 0 1 0,0.1 5.07,5.07 0 0 1 -0.32,2.1800003 4.79,4.79 0 0 1 -0.38,0.8 4.42,4.42 0 0 1 -0.53,0.73 v 0 a 3.41,3.41 0 0 1 -0.39,0.41 1.4,1.4 0 0 1 -0.16,0.17 z"
     id="path50"
     style="stroke:#f44336;stroke-opacity:1" />
  <circle
     class="cls-2"
     cx="12.146646"
     cy="39.528214"
     r="2.0899999"
     transform="rotate(-59.25)"
     id="circle52"
     style="stroke:#f44336;stroke-opacity:1" />
  <rect
     class="cls-6"
     x="38.377979"
     y="-20.138563"
     width="2.3"
     height="2.97"
     rx="0.80000001"
     ry="0.80000001"
     transform="rotate(30.75)"
     id="rect54"
     style="fill:#f44336;fill-opacity:1" />
  <path
     class="cls-6"
     d="m 39.590222,4.7406067 h -0.11 l -1,0.27 a 0.63,0.63 0 0 1 -0.37,0 0.6,0.6 0 0 1 -0.37,-0.42 l -0.43,-1.68 a 0.62,0.62 0 0 1 0.45,-0.74 l 0.26,-0.1 0.77,-0.2 a 0.61,0.61 0 0 1 0.75,0.44 l 0.38,1.76 a 0.62,0.62 0 0 1 -0.14,0.56 0.57,0.57 0 0 1 -0.19,0.11 z"
     id="path56"
     style="fill:#f44336;fill-opacity:1" />
  <rect
     class="cls-6"
     x="10.997692"
     y="31.537209"
     width="2.3"
     height="2.97"
     rx="0.80000001"
     ry="0.80000001"
     transform="rotate(-59.25)"
     id="rect58"
     style="fill:#f44336;fill-opacity:1" />
  <rect
     class="cls-6"
     x="-20.512022"
     y="28.551176"
     width="2.3"
     height="2.97"
     rx="0.80000001"
     ry="0.80000001"
     transform="rotate(-104.25)"
     id="rect60"
     style="fill:#f44336;fill-opacity:1" />
  <path
     class="cls-6"
     d="m 38.290222,15.210607 -0.89,1.49 a 0.61,0.61 0 0 1 -0.84,0.21 l -0.92,-0.55 a 0.61,0.61 0 0 1 -0.21,-0.84 l 0.89,-1.45 a 0.61,0.61 0 0 1 0.48,-0.3 0.56,0.56 0 0 1 0.36,0.08 l 0.92,0.55 a 0.56,0.56 0 0 1 0.24,0.28 0.61,0.61 0 0 1 -0.03,0.53 z"
     id="path62"
     style="fill:#f44336;fill-opacity:1" />
  <path
     class="cls-6"
     d="m 42.670222,17.390607 -0.5,0.13 -0.54,0.14 a 0.61,0.61 0 0 1 -0.74,-0.45 l -0.43,-1.68 a 0.61,0.61 0 0 1 0.13,-0.55 0.56,0.56 0 0 1 0.31,-0.2 l 0.91,-0.23 h 0.14 a 0.6,0.6 0 0 1 0.37,0 0.63,0.63 0 0 1 0.37,0.42 l 0.43,1.69 a 0.61,0.61 0 0 1 -0.45,0.73 z"
     id="path64"
     style="fill:#f44336;fill-opacity:1" />
  <rect
     class="cls-6"
     x="-13.302534"
     y="-47.530025"
     width="2.3"
     height="2.97"
     rx="0.80000001"
     ry="0.80000001"
     transform="rotate(120.75)"
     id="rect66"
     style="fill:#f44336;fill-opacity:1" />
  <rect
     class="cls-6"
     x="18.207224"
     y="-44.542969"
     width="2.3"
     height="2.97"
     rx="0.80000001"
     ry="0.80000001"
     transform="rotate(75.75)"
     id="rect68"
     style="fill:#f44336;fill-opacity:1" />
  <path
     class="cls-7"
     d="m 41.210222,20.680607 a 6.42,6.42 0 0 0 5.58,-3.06"
     id="path70"
     style="opacity:0.48041775;fill:#54dfe7;fill-opacity:1;stroke:#54dfe7;stroke-opacity:1" />
  <path
     class="cls-5"
     d="m 4.9002219,6.9106067 c 1.22,-0.08 1.14,0.81 1.16,1.73 a 6.84,6.84 0 0 0 0.85,3.0800003 4.87,4.87 0 0 0 0.64,1 c 0.25,0.27 0.79,0.43 0.92,0.79 a 0.57,0.57 0 0 1 -0.16,0.57 2,2 0 0 1 -1,0.49 3.36,3.36 0 0 1 -1.34,0 c 0,0 -3.21,-0.9 -3.69,-2.35 -0.39,-1.18 0.28,-2.8300003 0.86,-3.8400003 a 3.15,3.15 0 0 1 1.36,-1.43 1.27,1.27 0 0 1 0.4,-0.04 z"
     id="path72"
     style="opacity:0.506527;fill:#54dfe7;fill-opacity:1" />
  <path
     class="cls-2"
     d="m 11.430222,10.950607 a 4.34,4.34 0 0 1 -0.28,1.26 4.4,4.4 0 0 1 -0.25,0.55 4.15,4.15 0 0 1 -0.55,0.79 4.43,4.43 0 0 1 -1.6100001,1.21 4.21,4.21 0 0 1 -0.73,0.26 4.52,4.52 0 0 1 -0.77,0.13 4.41,4.41 0 0 1 -2,-0.29 v 0 a 4.28,4.28 0 0 1 -1.35,-0.79 4.34,4.34 0 0 1 -1.2,-1.61 v 0 a 4,4 0 0 1 -0.27,-0.74 4,4 0 0 1 -0.12,-0.78 4.55,4.55 0 0 1 0.28,-2.0000003 4.46,4.46 0 0 1 0.59,-1.07 1.89,1.89 0 0 1 0.21,-0.27 4.26,4.26 0 0 1 0.84,-0.76 l 0.17,-0.12 a 3.27,3.27 0 0 1 0.61,-0.32 4.39,4.39 0 0 1 1.51,-0.38 v 0 a 4.36,4.36 0 0 1 1.76,0.21 l 0.22,0.08 a 4.57,4.57 0 0 1 1.35,0.8 l 0.07,0.06 a 4.45,4.45 0 0 1 1.1100001,1.54 4.21,4.21 0 0 1 0.26,0.73 3.88,3.88 0 0 1 0.12,0.7800003 v 0 a 3,3 0 0 1 0,0.5 1.23,1.23 0 0 1 0.03,0.23 z"
     id="path74"
     style="opacity:1;stroke:#f44336;stroke-opacity:1" />
  <circle
     class="cls-2"
     cx="4.0585241"
     cy="11.932957"
     r="1.84"
     transform="rotate(-14.25)"
     id="circle76"
     style="stroke:#f44336;stroke-opacity:1" />
  <rect
     class="cls-6"
     x="3.0434475"
     y="4.9235711"
     width="2.02"
     height="2.5999999"
     rx="0.80000001"
     ry="0.80000001"
     transform="rotate(-14.25)"
     id="rect78"
     style="fill:#f44336;fill-opacity:1" />
  <path
     class="cls-6"
     d="m 3.3702219,7.8206067 v 0.09 l -0.49,0.82 a 0.56,0.56 0 0 1 -0.25,0.22 0.53,0.53 0 0 1 -0.49,0 l -1.31000005,-0.78 a 0.54,0.54 0 0 1 -0.18,-0.74 l 0.13,-0.21 0.35000005,-0.6 a 0.54,0.54 0 0 1 0.74,-0.19 l 1.31,0.78 a 0.54,0.54 0 0 1 0.26,0.43 0.5,0.5 0 0 1 -0.07,0.18 z"
     id="path80"
     style="fill:#f44336;fill-opacity:1" />
  <rect
     class="cls-6"
     x="-12.952655"
     y="-2.9539218"
     width="2.02"
     height="2.5999999"
     rx="0.80000001"
     ry="0.80000001"
     transform="rotate(-104.25)"
     id="rect82"
     style="fill:#f44336;fill-opacity:1" />
  <rect
     class="cls-6"
     x="-12.316484"
     y="-12.587623"
     width="2.02"
     height="2.5999999"
     rx="0.80000001"
     ry="0.80000001"
     transform="rotate(-149.25)"
     id="rect84"
     style="fill:#f44336;fill-opacity:1" />
  <path
     class="cls-6"
     d="m 9.0202219,15.120607 0.37,1.47 a 0.54,0.54 0 0 1 -0.39,0.66 l -0.91,0.23 a 0.54,0.54 0 0 1 -0.66,-0.39 l -0.37,-1.47 a 0.54,0.54 0 0 1 0.12,-0.48 0.49,0.49 0 0 1 0.27,-0.17 l 0.91,-0.23 a 0.49,0.49 0 0 1 0.32,0 0.54,0.54 0 0 1 0.34,0.38 z"
     id="path86"
     style="fill:#f44336;fill-opacity:1" />
  <path
     class="cls-6"
     d="m 13.130222,13.760607 -0.23,0.39 -0.25,0.42 a 0.54,0.54 0 0 1 -0.74,0.18 l -1.31,-0.78 a 0.53,0.53 0 0 1 -0.26,-0.42 0.49,0.49 0 0 1 0.07,-0.32 l 0.42,-0.7 0.06,-0.11 a 0.52,0.52 0 0 1 0.25,-0.22 0.55,0.55 0 0 1 0.49,0 l 1.31,0.78 a 0.54,0.54 0 0 1 0.19,0.78 z"
     id="path88"
     style="fill:#f44336;fill-opacity:1" />
  <rect
     class="cls-6"
     x="10.927398"
     y="-11.064215"
     width="2.02"
     height="2.5999999"
     rx="0.80000001"
     ry="0.80000001"
     transform="rotate(75.75)"
     id="rect90"
     style="fill:#f44336;fill-opacity:1" />
  <rect
     class="cls-6"
     x="10.299604"
     y="-1.4469749"
     width="2.02"
     height="2.5999999"
     rx="0.80000001"
     ry="0.80000001"
     transform="rotate(30.75)"
     id="rect92"
     style="fill:#f44336;fill-opacity:1" />
  <path
     class="cls-7"
     d="m 6.0202219,1.0006067 a 5.64,5.64 0 0 0 -4.89,2.69"
     id="path94"
     style="opacity:0.48041775;fill:#54dfe7;fill-opacity:1;stroke:#54dfe7;stroke-opacity:1" />
</svg>
