<svg width="546" height="498" viewBox="0 0 546 498" fill="none" xmlns="http://www.w3.org/2000/svg">
<g filter="url(#filter0_d)">
<path d="M318.636 -32L80 205.011L88.3679 213.317L92.3057 212.257L90.8168 215.703L116.786 241.547L124.3 248.682L141.036 234.408L128.73 253.112L135.178 259.814L153.571 278.082L465.707 -32H318.636Z" fill="#02D7F2"/>
</g>
<g filter="url(#filter1_d)">
<path d="M318.421 442L190.226 314.488L337.559 314.014L466.112 442H435.88L412.253 428.345L424.067 442H371.244H337.435L333.005 439.666L331.626 442H318.421Z" fill="#00B9D0"/>
</g>
<g filter="url(#filter2_d)">
<path fill-rule="evenodd" clip-rule="evenodd" d="M362.106 189.397L355.647 206.351L365.849 189.348L407.331 186.004L420.129 191.092V186.028L466.398 186.028L262.951 387.205L190.226 314.488L318.492 186.004V186.028H355.409L362.106 189.397Z" fill="#02D8F3"/>
</g>
<path d="M339.896 232.931L365.984 189.615L407.331 186.169L419.637 191.092L410.284 189.615L390.103 198.475L393.549 194.045L367.461 198.475L339.896 232.931Z" fill="url(#paint0_linear)"/>
<path d="M183.86 186.662L170.57 210.288L184.844 186.662L218.808 170.91L218.316 166.48V151.713L265.57 101.506L215.362 150.729L217.824 169.434L183.86 186.662Z" fill="#001A1E"/>
<path d="M184.844 186.662L170.57 209.796L184.844 187.646L221.761 171.895L221.269 167.465V152.698L265.57 101.506L218.316 151.713V166.48L218.808 170.91L184.844 186.662Z" fill="#4EECFF"/>
<defs>
<filter id="filter0_d" x="0" y="-52" width="545.707" height="470.082" filterUnits="userSpaceOnUse" color-interpolation-filters="sRGB">
<feFlood flood-opacity="0" result="BackgroundImageFix"/>
<feColorMatrix in="SourceAlpha" type="matrix" values="0 0 0 0 0 0 0 0 0 0 0 0 0 0 0 0 0 0 127 0"/>
<feOffset dy="60"/>
<feGaussianBlur stdDeviation="40"/>
<feColorMatrix type="matrix" values="0 0 0 0 0.00784314 0 0 0 0 0.847059 0 0 0 0 0.952941 0 0 0 0.2 0"/>
<feBlend mode="normal" in2="BackgroundImageFix" result="effect1_dropShadow"/>
<feBlend mode="normal" in="SourceGraphic" in2="effect1_dropShadow" result="shape"/>
</filter>
<filter id="filter1_d" x="158.226" y="306.014" width="339.886" height="191.986" filterUnits="userSpaceOnUse" color-interpolation-filters="sRGB">
<feFlood flood-opacity="0" result="BackgroundImageFix"/>
<feColorMatrix in="SourceAlpha" type="matrix" values="0 0 0 0 0 0 0 0 0 0 0 0 0 0 0 0 0 0 127 0"/>
<feOffset dy="24"/>
<feGaussianBlur stdDeviation="16"/>
<feColorMatrix type="matrix" values="0 0 0 0 0 0 0 0 0 0.53647 0 0 0 0 0.705882 0 0 0 0.2 0"/>
<feBlend mode="normal" in2="BackgroundImageFix" result="effect1_dropShadow"/>
<feBlend mode="normal" in="SourceGraphic" in2="effect1_dropShadow" result="shape"/>
</filter>
<filter id="filter2_d" x="158.226" y="178.004" width="340.172" height="265.2" filterUnits="userSpaceOnUse" color-interpolation-filters="sRGB">
<feFlood flood-opacity="0" result="BackgroundImageFix"/>
<feColorMatrix in="SourceAlpha" type="matrix" values="0 0 0 0 0 0 0 0 0 0 0 0 0 0 0 0 0 0 127 0"/>
<feOffset dy="24"/>
<feGaussianBlur stdDeviation="16"/>
<feColorMatrix type="matrix" values="0 0 0 0 0.00784314 0 0 0 0 0.847059 0 0 0 0 0.952941 0 0 0 0.2 0"/>
<feBlend mode="normal" in2="BackgroundImageFix" result="effect1_dropShadow"/>
<feBlend mode="normal" in="SourceGraphic" in2="effect1_dropShadow" result="shape"/>
</filter>
<linearGradient id="paint0_linear" x1="375.829" y1="186.169" x2="378.29" y2="228.009" gradientUnits="userSpaceOnUse">
<stop stop-color="#7DF0FF"/>
<stop offset="1" stop-color="#3DE9FF" stop-opacity="0"/>
</linearGradient>
</defs>
</svg>
