<?xml version="1.0" encoding="UTF-8" standalone="no"?>
<svg
   xmlns:dc="http://purl.org/dc/elements/1.1/"
   xmlns:cc="http://creativecommons.org/ns#"
   xmlns:rdf="http://www.w3.org/1999/02/22-rdf-syntax-ns#"
   xmlns:svg="http://www.w3.org/2000/svg"
   xmlns="http://www.w3.org/2000/svg"
   xmlns:sodipodi="http://sodipodi.sourceforge.net/DTD/sodipodi-0.dtd"
   xmlns:inkscape="http://www.inkscape.org/namespaces/inkscape"
   id="Layer_1"
   version="1.1"
   viewBox="0 0 370.79999 510.89999"
   xml:space="preserve"
   sodipodi:docname="medal.svg"
   width="370.79999"
   height="510.89999"
   inkscape:version="1.0.1 (3bc2e813f5, 2020-09-07)"><metadata
     id="metadata41"><rdf:RDF><cc:Work
         rdf:about=""><dc:format>image/svg+xml</dc:format><dc:type
           rdf:resource="http://purl.org/dc/dcmitype/StillImage" /><dc:title /></cc:Work></rdf:RDF></metadata><defs
     id="defs39" /><sodipodi:namedview
     pagecolor="#ffffff"
     bordercolor="#666666"
     borderopacity="1"
     objecttolerance="10"
     gridtolerance="10"
     guidetolerance="10"
     inkscape:pageopacity="0"
     inkscape:pageshadow="2"
     inkscape:window-width="3440"
     inkscape:window-height="1346"
     id="namedview37"
     showgrid="false"
     inkscape:zoom="1.96875"
     inkscape:cx="185.4"
     inkscape:cy="248.5"
     inkscape:window-x="2293"
     inkscape:window-y="-11"
     inkscape:window-maximized="1"
     inkscape:current-layer="Layer_1"
     inkscape:document-rotation="0" /><style
     type="text/css"
     id="style2">
	.st0{fill:#4CC3F2;}
	.st1{fill:#CFF1FF;}
	.st2{fill:#0A557F;}
	.st3{fill:#FFFFFF;}
</style><polygon
     class="st0"
     points="206.6,139 206.6,22.5 248.5,22.5 248.5,223.6 166,166.8 166,22.5 191.6,22.5 191.6,139 "
     id="polygon6"
     style="fill:#54dfe7;fill-opacity:1;opacity:0.48563969"
     transform="translate(-70.599998,-7.5)" /><path
     class="st1"
     d="m 223.1,274.1 c -65.4,0 -118.4,53 -118.4,118.4 0,65.4 53,118.4 118.4,118.4 65.4,0 118.4,-53 118.4,-118.4 0,-65.4 -53,-118.4 -118.4,-118.4 z m 21.8,149 -21.2,-9.9 -21.2,9.9 4.1,-20.5 -18.7,-20.7 24.3,-3 11.5,-22.1 11.5,22.1 24.3,3 -18.7,20.7 z"
     id="path8"
     style="opacity:0.48825065;fill:#54dfe7;fill-opacity:1" /><path
     class="st2"
     d="m 251.6,350 -45.1,-5.6 -21.1,-40.7 -21.2,40.8 -45.1,5.6 32.9,36.5 -8.5,42.2 41.8,-19.5 41.8,19.5 -8.5,-42.2 z m -66.2,42.7 -21.2,9.9 4.1,-20.5 -18.7,-20.7 24.3,-3 11.5,-22.1 11.5,22.1 24.3,3 -18.7,20.7 4.1,20.5 z"
     id="path12"
     style="fill:#f44336;fill-opacity:1" /><path
     class="st2"
     d="m 274.9,435.2 12.3,8.6 c 4.3,-6.1 8,-12.6 11.2,-19.4 l -13.6,-6.3 c -2.8,6 -6.1,11.7 -9.9,17.1 z"
     id="path14"
     style="fill:#f44336;fill-opacity:1" /><path
     class="st2"
     d="M 305.5,339.3 C 299.8,318.3 288.7,299 273.2,283.6 260.2,270.6 245,261 228.7,255 v -45.6 l 60.5,-42.2 V 0 H 80.400002 V 167.1 L 140.9,208.8 v 46 c -16.3,6.1 -31.5,15.6 -44.599998,28.7 -23.6,23.6 -36.6,55 -36.6,88.4 0,33.4 13,64.8 36.6,88.4 C 119.9,483.9 151.3,496.9 184.7,496.9 c 0,0 0,0 0,0 33.4,0 64.8,-13 88.4,-36.6 l -10.6,-10.6 c -42.9,42.9 -112.7,42.9 -155.6,0 C 86.200002,429 74.700002,401.3 74.700002,371.9 c 0,-29.4 11.4,-57.1 32.199998,-77.8 42.9,-42.9 112.7,-42.9 155.6,0 27.4,27.4 38.2,66.3 29,104.1 l 14.6,3.6 c 5.1,-20.5 4.9,-42.1 -0.6,-62.5 z M 192.9,15 h 41.9 v 116.5 h 15 V 15 h 24.4 V 159.3 L 192.9,216 V 15 Z M 95.400002,159.3 V 15 H 120.9 v 116.5 h 15 V 15 h 41.9 V 216.1 Z M 156,250.4 v -31.1 l 29.4,20.2 28.3,-19.8 v 30.6 c -18.9,-4.4 -38.7,-4.4 -57.7,0.1 z"
     id="path16"
     style="fill:#f44336;fill-opacity:1" /><rect
     class="st2"
     height="67.300003"
     width="15"
     x="355.79999"
     y="148.3"
     id="rect18"
     style="fill:#f44336;fill-opacity:1" /><rect
     class="st2"
     height="15"
     width="15"
     x="355.79999"
     y="230.60001"
     id="rect20"
     style="fill:#f44336;fill-opacity:1" /><rect
     class="st2"
     height="67.300003"
     width="15"
     x="0"
     y="294.10001"
     id="rect22"
     style="fill:#f44336;fill-opacity:1" /><rect
     class="st2"
     height="15"
     width="15"
     x="0"
     y="376.39999"
     id="rect24"
     style="fill:#f44336;fill-opacity:1" /><rect
     class="st3"
     height="15"
     width="15"
     x="234.79999"
     y="146.5"
     id="rect26" /><rect
     class="st3"
     height="15"
     width="15"
     x="121.00001"
     y="146.5"
     id="rect28" /><path
     class="st2"
     d="m 91.900002,388.3 c 1,5.5 2.4,11 4.4,16.3 L 110.4,399.4 c -1.6,-4.4 -2.9,-9 -3.7,-13.7 z"
     id="path30"
     style="fill:#f44336;fill-opacity:1" /><path
     class="st2"
     d="m 184.8,466.3 c 52,0 94.4,-42.3 94.4,-94.4 0,-52 -42.3,-94.4 -94.4,-94.4 -52,0 -94.399998,42.3 -94.399998,94.4 H 105.4 c 0,-43.8 35.6,-79.4 79.4,-79.4 43.8,0 79.4,35.6 79.4,79.4 0,43.8 -35.6,79.4 -79.4,79.4 -27.9,0 -53.3,-14.3 -67.9,-38.3 l -12.8,7.8 c 17.3,28.6 47.5,45.5 80.7,45.5 z"
     id="path32"
     style="fill:#f44336;fill-opacity:1" /></svg>
