<?xml version="1.0" encoding="UTF-8" standalone="no"?>
<svg
   xmlns:dc="http://purl.org/dc/elements/1.1/"
   xmlns:cc="http://creativecommons.org/ns#"
   xmlns:rdf="http://www.w3.org/1999/02/22-rdf-syntax-ns#"
   xmlns:svg="http://www.w3.org/2000/svg"
   xmlns="http://www.w3.org/2000/svg"
   xmlns:sodipodi="http://sodipodi.sourceforge.net/DTD/sodipodi-0.dtd"
   xmlns:inkscape="http://www.inkscape.org/namespaces/inkscape"
   id="Capa_1"
   version="1.1"
   viewBox="0 0 60 58"
   xml:space="preserve"
   sodipodi:docname="message.svg"
   width="60"
   height="58"
   inkscape:version="1.0.1 (3bc2e813f5, 2020-09-07)"><metadata
     id="metadata39"><rdf:RDF><cc:Work
         rdf:about=""><dc:format>image/svg+xml</dc:format><dc:type
           rdf:resource="http://purl.org/dc/dcmitype/StillImage" /><dc:title></dc:title></cc:Work></rdf:RDF></metadata><defs
     id="defs37" /><sodipodi:namedview
     pagecolor="#ffffff"
     bordercolor="#666666"
     borderopacity="1"
     objecttolerance="10"
     gridtolerance="10"
     guidetolerance="10"
     inkscape:pageopacity="0"
     inkscape:pageshadow="2"
     inkscape:window-width="3440"
     inkscape:window-height="1346"
     id="namedview35"
     showgrid="false"
     inkscape:zoom="16.8"
     inkscape:cx="30"
     inkscape:cy="29"
     inkscape:window-x="2293"
     inkscape:window-y="-11"
     inkscape:window-maximized="1"
     inkscape:current-layer="Capa_1" /><path
     d="M 54.07,0 H 15.93 C 12.66,0 10,2.66 10,5.93 V 14 H 5.93 C 2.66,14 0,16.66 0,19.929 V 41.07 C 0,44.34 2.66,47 5.93,47 H 12 v 10 c 0,0.413 0.254,0.784 0.64,0.933 C 12.757,57.978 12.879,58 13,58 c 0.276,0 0.547,-0.115 0.74,-0.327 L 23.442,47 H 44.07 C 47.34,47 50,44.34 50,41.071 V 33 h 4.07 C 57.34,33 60,30.34 60,27.07 V 5.93 C 60,2.66 57.34,0 54.07,0 Z M 48,41.071 C 48,43.237 46.237,45 44.07,45 H 23 c -0.282,0 -0.551,0.119 -0.74,0.327 L 14,54.414 V 46 c 0,-0.552 -0.447,-1 -1,-1 H 5.93 C 3.763,45 2,43.237 2,41.07 V 19.929 C 2,17.763 3.763,16 5.93,16 H 11 44.07 C 46.237,16 48,17.763 48,19.93 V 32 Z M 58,27.07 C 58,29.237 56.237,31 54.07,31 H 50 V 19.93 C 50,16.66 47.34,14 44.07,14 H 12 V 5.93 C 12,3.763 13.763,2 15.93,2 H 54.07 C 56.237,2 58,3.763 58,5.93 Z"
     id="path2"
     style="fill:#54dfe7;fill-opacity:1" /><g
     id="g4"
     transform="translate(0,-1)" /><g
     id="g6"
     transform="translate(0,-1)" /><g
     id="g8"
     transform="translate(0,-1)" /><g
     id="g10"
     transform="translate(0,-1)" /><g
     id="g12"
     transform="translate(0,-1)" /><g
     id="g14"
     transform="translate(0,-1)" /><g
     id="g16"
     transform="translate(0,-1)" /><g
     id="g18"
     transform="translate(0,-1)" /><g
     id="g20"
     transform="translate(0,-1)" /><g
     id="g22"
     transform="translate(0,-1)" /><g
     id="g24"
     transform="translate(0,-1)" /><g
     id="g26"
     transform="translate(0,-1)" /><g
     id="g28"
     transform="translate(0,-1)" /><g
     id="g30"
     transform="translate(0,-1)" /><g
     id="g32"
     transform="translate(0,-1)" /><ellipse
     style="opacity:1;fill:#54dfe7;fill-opacity:1"
     id="path868"
     cx="15.089286"
     cy="29.982143"
     rx="3.1845238"
     ry="3.0654762" /><ellipse
     style="opacity:1;fill:#54dfe7;fill-opacity:1"
     id="path868-3"
     cx="26.190477"
     cy="30.190475"
     rx="3.1845238"
     ry="3.0654762" /><ellipse
     style="opacity:1;fill:#54dfe7;fill-opacity:1"
     id="path868-7"
     cx="36.726192"
     cy="30.190475"
     rx="3.1845238"
     ry="3.0654762" /></svg>
