<?xml version="1.0" encoding="UTF-8" standalone="no"?>
<svg
   xmlns:dc="http://purl.org/dc/elements/1.1/"
   xmlns:cc="http://creativecommons.org/ns#"
   xmlns:rdf="http://www.w3.org/1999/02/22-rdf-syntax-ns#"
   xmlns:svg="http://www.w3.org/2000/svg"
   xmlns="http://www.w3.org/2000/svg"
   xmlns:sodipodi="http://sodipodi.sourceforge.net/DTD/sodipodi-0.dtd"
   xmlns:inkscape="http://www.inkscape.org/namespaces/inkscape"
   height="8.2640009mm"
   style="clip-rule:evenodd;fill-rule:evenodd;image-rendering:optimizeQuality;shape-rendering:geometricPrecision;text-rendering:geometricPrecision"
   version="1.1"
   viewBox="0 0 721.82003 826.40005"
   width="7.2182007mm"
   xml:space="preserve"
   id="svg9"
   sodipodi:docname="resume.svg"
   inkscape:version="1.0.1 (3bc2e813f5, 2020-09-07)"><metadata
     id="metadata13"><rdf:RDF><cc:Work
         rdf:about=""><dc:format>image/svg+xml</dc:format><dc:type
           rdf:resource="http://purl.org/dc/dcmitype/StillImage" /><dc:title></dc:title></cc:Work></rdf:RDF></metadata><sodipodi:namedview
     pagecolor="#ffffff"
     bordercolor="#666666"
     borderopacity="1"
     objecttolerance="10"
     gridtolerance="10"
     guidetolerance="10"
     inkscape:pageopacity="0"
     inkscape:pageshadow="2"
     inkscape:window-width="3440"
     inkscape:window-height="1346"
     id="namedview11"
     showgrid="false"
     inkscape:zoom="31.500246"
     inkscape:cx="13.640694"
     inkscape:cy="15.617009"
     inkscape:window-x="2293"
     inkscape:window-y="-11"
     inkscape:window-maximized="1"
     inkscape:current-layer="svg9" /><defs
     id="defs4"><style
       type="text/css"
       id="style2">
   <![CDATA[
    .fil0 {fill:black;fill-rule:nonzero}
   ]]>
  </style></defs><rect
     opacity="0.1"
     x="138.74179"
     y="234.70874"
     width="204.95337"
     height="196.55396"
     fill="#00C2FF"
     id="rect2"
     style="opacity:0.490862;fill:#54dfe7;fill-opacity:1;stroke-width:5.28187" /><g
     id="Layer_x0020_1"
     style="fill:#f44336;fill-opacity:1"
     transform="translate(-62.42,-10.13)"><path
       class="fil0"
       d="m 563.72,795.24 c 27.16,0 27.16,41.29 0,41.29 H 128.19 c -36.17,0 -65.77,-29.62 -65.77,-65.78 V 174.99 c 0,-36.22 29.55,-65.77 65.77,-65.77 h 5.06 V 30.78 c 0,-11.4 9.24,-20.65 20.64,-20.65 H 763.6 c 11.4,0 20.64,9.25 20.64,20.65 v 614.07 c 0,11.4 -9.24,20.65 -20.64,20.65 h -68.65 v 57.85 c 0,27.16 -41.29,27.16 -41.29,0 V 315.3 L 522.24,150.51 H 128.19 c -13.42,0 -24.48,11.06 -24.48,24.48 v 595.76 c 0,13.49 11,24.49 24.48,24.49 z M 174.54,109.22 h 357.59 c 7,0 13.18,3.48 16.91,8.8 l 141.39,177.3 c 3.02,3.79 4.48,8.32 4.48,12.82 l 0.04,316.07 h 48 V 51.42 H 174.54 Z m 9.97,461.88 c -27.16,0 -27.16,-41.29 0,-41.29 h 323.43 c 27.15,0 27.15,41.29 0,41.29 z m 2.19,161.71 c -27.16,0 -27.16,-41.29 0,-41.29 h 323.42 c 27.16,0 27.16,41.29 0,41.29 z m 0,-80.86 c -27.16,0 -27.16,-41.29 0,-41.29 h 323.42 c 27.16,0 27.16,41.29 0,41.29 z m 69.92,-439.02 h 96.16 c 46.25,0 84.02,37.77 84.02,84.02 v 96.16 c 0,46.25 -37.77,84.02 -84.02,84.02 h -96.16 c -46.25,0 -84.01,-37.77 -84.01,-84.02 v -96.16 c 0,-46.25 37.76,-84.02 84.01,-84.02 z m 96.16,41.3 h -96.16 c -23.45,0 -42.72,19.27 -42.72,42.72 v 96.16 c 0,23.45 19.27,42.73 42.72,42.73 h 96.16 c 23.46,0 42.73,-19.28 42.73,-42.73 v -96.16 c 0,-23.45 -19.28,-42.72 -42.73,-42.72 z"
       id="path6"
       style="fill:#f44336;fill-opacity:1" /></g></svg>
