<?xml version="1.0" encoding="UTF-8"?> <svg xmlns="http://www.w3.org/2000/svg" width="284" height="320" viewBox="0 0 284 320" fill="none"> <rect width="284" height="320" fill="#0048B4"></rect> <path d="M33.7215 169.848V155.305H43.3683V157.867H36.8468V161.201H42.6807V163.764H36.8468V169.848H33.7215ZM45.9646 167.452H49.2566V156.826H45.9646V154.429H52.3402V167.452H55.6322V169.848H45.9646V167.452ZM65.1041 167.889H64.9791C64.743 168.5 64.368 169.021 63.854 169.452C63.354 169.882 62.6733 170.098 61.8121 170.098C61.2982 170.098 60.8259 170.014 60.3953 169.848C59.9647 169.667 59.5967 169.403 59.2911 169.056C58.9855 168.709 58.7424 168.285 58.5618 167.785C58.3951 167.285 58.3118 166.708 58.3118 166.056V159.097H61.3954V165.639C61.3954 167.028 61.9997 167.722 63.2081 167.722C63.4443 167.722 63.6734 167.695 63.8957 167.639C64.1318 167.57 64.3332 167.472 64.4999 167.347C64.6805 167.209 64.8263 167.042 64.9375 166.847C65.0486 166.653 65.1041 166.424 65.1041 166.16V159.097H68.1878V169.848H65.1041V167.889ZM76.618 169.848C75.5067 169.848 74.6803 169.556 74.1385 168.973C73.5968 168.389 73.326 167.646 73.326 166.743V161.493H70.409V159.097H72.305C72.7634 159.097 73.0898 159.006 73.2843 158.826C73.4788 158.645 73.576 158.312 73.576 157.826V155.305H76.4096V159.097H80.5975V161.493H76.4096V167.452H80.5975V169.848H76.618ZM89.111 169.848C87.9998 169.848 87.1733 169.556 86.6316 168.973C86.0899 168.389 85.819 167.646 85.819 166.743V161.493H82.9021V159.097H84.7981C85.2565 159.097 85.5829 159.006 85.7774 158.826C85.9718 158.645 86.0691 158.312 86.0691 157.826V155.305H88.9027V159.097H93.0906V161.493H88.9027V167.452H93.0906V169.848H89.111ZM101.062 170.098C99.2567 170.098 97.8885 169.598 96.9578 168.598C96.0272 167.597 95.5619 166.236 95.5619 164.514C95.5619 163.639 95.6799 162.854 95.9161 162.159C96.1661 161.451 96.5133 160.854 96.9578 160.368C97.4162 159.868 97.9649 159.492 98.6038 159.242C99.2567 158.979 99.9859 158.847 100.792 158.847C101.597 158.847 102.319 158.979 102.958 159.242C103.597 159.492 104.139 159.854 104.584 160.326C105.028 160.798 105.368 161.375 105.605 162.055C105.855 162.722 105.98 163.472 105.98 164.305V165.222H98.6247V165.41C98.6247 166.104 98.84 166.667 99.2706 167.097C99.7011 167.514 100.333 167.722 101.167 167.722C101.806 167.722 102.354 167.604 102.813 167.368C103.271 167.118 103.667 166.792 104 166.389L105.667 168.202C105.25 168.716 104.667 169.16 103.917 169.535C103.167 169.91 102.215 170.098 101.062 170.098ZM100.812 161.055C100.146 161.055 99.6109 161.263 99.208 161.68C98.8191 162.083 98.6247 162.632 98.6247 163.326V163.493H102.958V163.326C102.958 162.618 102.764 162.062 102.375 161.659C102 161.257 101.479 161.055 100.812 161.055ZM108.555 167.452H111.034V161.493H108.555V159.097H114.118V162.139H114.264C114.361 161.75 114.493 161.375 114.66 161.013C114.84 160.638 115.063 160.312 115.326 160.034C115.604 159.743 115.938 159.513 116.327 159.347C116.716 159.18 117.174 159.097 117.702 159.097H118.723V161.93H116.431C115.667 161.93 115.09 162.159 114.701 162.618C114.312 163.062 114.118 163.611 114.118 164.264V167.452H117.66V169.848H108.555V167.452ZM122.423 164.972V162.014H129.091V164.972H122.423ZM140.188 167.889H140.042C139.764 168.542 139.375 169.077 138.875 169.493C138.389 169.896 137.715 170.098 136.854 170.098C136.257 170.098 135.708 169.987 135.208 169.764C134.722 169.542 134.298 169.202 133.937 168.743C133.59 168.285 133.312 167.702 133.104 166.993C132.909 166.285 132.812 165.444 132.812 164.472C132.812 163.5 132.909 162.659 133.104 161.951C133.312 161.243 133.59 160.659 133.937 160.201C134.298 159.743 134.722 159.402 135.208 159.18C135.708 158.958 136.257 158.847 136.854 158.847C137.285 158.847 137.667 158.902 138 159.013C138.333 159.124 138.625 159.277 138.875 159.472C139.139 159.666 139.361 159.902 139.542 160.18C139.736 160.444 139.903 160.736 140.042 161.055H140.188V154.429H143.271V169.848H140.188V167.889ZM138.187 167.702C138.729 167.702 139.194 167.57 139.583 167.306C139.986 167.042 140.188 166.625 140.188 166.056V162.889C140.188 162.319 139.986 161.902 139.583 161.639C139.194 161.375 138.729 161.243 138.187 161.243C137.493 161.243 136.958 161.458 136.583 161.889C136.208 162.305 136.021 162.889 136.021 163.639V165.306C136.021 166.056 136.208 166.646 136.583 167.077C136.958 167.493 137.493 167.702 138.187 167.702ZM151.035 170.098C149.229 170.098 147.861 169.598 146.93 168.598C146 167.597 145.534 166.236 145.534 164.514C145.534 163.639 145.652 162.854 145.888 162.159C146.138 161.451 146.486 160.854 146.93 160.368C147.389 159.868 147.937 159.492 148.576 159.242C149.229 158.979 149.958 158.847 150.764 158.847C151.569 158.847 152.292 158.979 152.931 159.242C153.57 159.492 154.111 159.854 154.556 160.326C155 160.798 155.341 161.375 155.577 162.055C155.827 162.722 155.952 163.472 155.952 164.305V165.222H148.597V165.41C148.597 166.104 148.812 166.667 149.243 167.097C149.673 167.514 150.305 167.722 151.139 167.722C151.778 167.722 152.327 167.604 152.785 167.368C153.243 167.118 153.639 166.792 153.973 166.389L155.639 168.202C155.223 168.716 154.639 169.16 153.889 169.535C153.139 169.91 152.188 170.098 151.035 170.098ZM150.785 161.055C150.118 161.055 149.583 161.263 149.18 161.68C148.791 162.083 148.597 162.632 148.597 163.326V163.493H152.931V163.326C152.931 162.618 152.736 162.062 152.347 161.659C151.972 161.257 151.451 161.055 150.785 161.055ZM161.403 169.848L157.548 159.097H160.798L162.194 163.701L163.215 167.285H163.382L164.403 163.701L165.799 159.097H168.924L165.07 169.848H161.403ZM176.021 170.098C174.215 170.098 172.847 169.598 171.916 168.598C170.986 167.597 170.52 166.236 170.52 164.514C170.52 163.639 170.638 162.854 170.875 162.159C171.125 161.451 171.472 160.854 171.916 160.368C172.375 159.868 172.923 159.492 173.562 159.242C174.215 158.979 174.944 158.847 175.75 158.847C176.556 158.847 177.278 158.979 177.917 159.242C178.556 159.492 179.098 159.854 179.542 160.326C179.987 160.798 180.327 161.375 180.563 162.055C180.813 162.722 180.938 163.472 180.938 164.305V165.222H173.583V165.41C173.583 166.104 173.798 166.667 174.229 167.097C174.66 167.514 175.292 167.722 176.125 167.722C176.764 167.722 177.313 167.604 177.771 167.368C178.229 167.118 178.625 166.792 178.959 166.389L180.625 168.202C180.209 168.716 179.625 169.16 178.875 169.535C178.125 169.91 177.174 170.098 176.021 170.098ZM175.771 161.055C175.104 161.055 174.569 161.263 174.167 161.68C173.778 162.083 173.583 162.632 173.583 163.326V163.493H177.917V163.326C177.917 162.618 177.722 162.062 177.334 161.659C176.958 161.257 176.438 161.055 175.771 161.055ZM183.388 167.452H186.68V156.826H183.388V154.429H189.764V167.452H193.056V169.848H183.388V167.452ZM200.715 170.098C199.882 170.098 199.132 169.973 198.465 169.723C197.798 169.459 197.229 169.084 196.757 168.598C196.298 168.111 195.944 167.521 195.694 166.827C195.444 166.132 195.319 165.347 195.319 164.472C195.319 163.597 195.444 162.812 195.694 162.118C195.944 161.423 196.298 160.833 196.757 160.347C197.229 159.861 197.798 159.492 198.465 159.242C199.132 158.979 199.882 158.847 200.715 158.847C201.549 158.847 202.299 158.979 202.966 159.242C203.632 159.492 204.195 159.861 204.653 160.347C205.125 160.833 205.487 161.423 205.737 162.118C205.987 162.812 206.112 163.597 206.112 164.472C206.112 165.347 205.987 166.132 205.737 166.827C205.487 167.521 205.125 168.111 204.653 168.598C204.195 169.084 203.632 169.459 202.966 169.723C202.299 169.973 201.549 170.098 200.715 170.098ZM200.715 167.806C201.41 167.806 201.952 167.59 202.34 167.16C202.729 166.729 202.924 166.118 202.924 165.326V163.618C202.924 162.826 202.729 162.215 202.34 161.784C201.952 161.354 201.41 161.138 200.715 161.138C200.021 161.138 199.479 161.354 199.09 161.784C198.701 162.215 198.507 162.826 198.507 163.618V165.326C198.507 166.118 198.701 166.729 199.09 167.16C199.479 167.59 200.021 167.806 200.715 167.806ZM208.187 159.097H211.271V161.055H211.417C211.68 160.416 212.062 159.888 212.563 159.472C213.063 159.055 213.743 158.847 214.604 158.847C215.202 158.847 215.743 158.958 216.23 159.18C216.73 159.402 217.153 159.743 217.501 160.201C217.862 160.659 218.139 161.243 218.334 161.951C218.542 162.659 218.646 163.5 218.646 164.472C218.646 165.444 218.542 166.285 218.334 166.993C218.139 167.702 217.862 168.285 217.501 168.743C217.153 169.202 216.73 169.542 216.23 169.764C215.743 169.987 215.202 170.098 214.604 170.098C213.743 170.098 213.063 169.896 212.563 169.493C212.062 169.077 211.68 168.542 211.417 167.889H211.271V174.015H208.187V159.097ZM213.271 167.702C213.965 167.702 214.5 167.493 214.875 167.077C215.25 166.646 215.438 166.056 215.438 165.306V163.639C215.438 162.889 215.25 162.305 214.875 161.889C214.5 161.458 213.965 161.243 213.271 161.243C212.729 161.243 212.257 161.375 211.854 161.639C211.465 161.902 211.271 162.319 211.271 162.889V166.056C211.271 166.625 211.465 167.042 211.854 167.306C212.257 167.57 212.729 167.702 213.271 167.702ZM225.993 170.098C224.187 170.098 222.819 169.598 221.889 168.598C220.958 167.597 220.493 166.236 220.493 164.514C220.493 163.639 220.611 162.854 220.847 162.159C221.097 161.451 221.444 160.854 221.889 160.368C222.347 159.868 222.896 159.492 223.535 159.242C224.187 158.979 224.917 158.847 225.722 158.847C226.528 158.847 227.25 158.979 227.889 159.242C228.528 159.492 229.07 159.854 229.514 160.326C229.959 160.798 230.299 161.375 230.535 162.055C230.785 162.722 230.91 163.472 230.91 164.305V165.222H223.555V165.41C223.555 166.104 223.771 166.667 224.201 167.097C224.632 167.514 225.264 167.722 226.097 167.722C226.736 167.722 227.285 167.604 227.743 167.368C228.202 167.118 228.598 166.792 228.931 166.389L230.598 168.202C230.181 168.716 229.598 169.16 228.848 169.535C228.098 169.91 227.146 170.098 225.993 170.098ZM225.743 161.055C225.076 161.055 224.542 161.263 224.139 161.68C223.75 162.083 223.555 162.632 223.555 163.326V163.493H227.889V163.326C227.889 162.618 227.695 162.062 227.306 161.659C226.931 161.257 226.41 161.055 225.743 161.055ZM233.486 167.452H235.965V161.493H233.486V159.097H239.049V162.139H239.195C239.292 161.75 239.424 161.375 239.591 161.013C239.771 160.638 239.993 160.312 240.257 160.034C240.535 159.743 240.868 159.513 241.257 159.347C241.646 159.18 242.105 159.097 242.633 159.097H243.653V161.93H241.362C240.598 161.93 240.021 162.159 239.632 162.618C239.243 163.062 239.049 163.611 239.049 164.264V167.452H242.591V169.848H233.486V167.452Z" fill="white"></path> <path d="M33.5933 259.6H35.2088V266.37L34.9396 270.255H35.0357L40.5171 259.6H42.0557V273.024H40.4401V266.255L40.7094 262.37H40.6132L35.1319 273.024H33.5933V259.6ZM45.6447 263.1H50.7028C51.5106 263.1 52.1453 263.331 52.6069 263.793C53.0685 264.242 53.2992 264.851 53.2992 265.62C53.2992 266.864 52.6517 267.562 51.3567 267.716V267.793C52.1261 267.857 52.6966 268.101 53.0685 268.524C53.4531 268.934 53.6454 269.447 53.6454 270.063C53.6454 270.46 53.5813 270.838 53.4531 271.197C53.3249 271.556 53.139 271.87 52.8954 272.14C52.6517 272.409 52.3504 272.627 51.9914 272.794C51.6324 272.947 51.2221 273.024 50.7605 273.024H45.6447V263.1ZM50.3759 271.794C50.9016 271.794 51.3055 271.665 51.5875 271.409C51.8696 271.152 52.0107 270.8 52.0107 270.351V269.909C52.0107 269.46 51.8696 269.114 51.5875 268.87C51.3183 268.614 50.9529 268.486 50.4913 268.486H47.1833V271.794H50.3759ZM50.299 267.274C50.7221 267.274 51.0554 267.165 51.2991 266.947C51.5427 266.729 51.6645 266.421 51.6645 266.024V265.601C51.6645 265.203 51.5427 264.895 51.2991 264.677C51.0554 264.447 50.7221 264.331 50.299 264.331H47.1833V267.274H50.299ZM64.639 273.024C64.0364 273.024 63.6068 272.871 63.3504 272.563C63.094 272.255 62.9337 271.87 62.8696 271.409H62.7734C62.5555 271.986 62.2029 272.441 61.7156 272.774C61.2412 273.095 60.6001 273.255 59.7924 273.255C58.7538 273.255 57.9268 272.986 57.3114 272.447C56.6959 271.909 56.3882 271.172 56.3882 270.236C56.3882 269.313 56.7216 268.601 57.3883 268.101C58.0678 267.601 59.1577 267.351 60.6578 267.351H62.7734V266.37C62.7734 265.639 62.5683 265.094 62.158 264.735C61.7477 264.363 61.1643 264.177 60.4078 264.177C59.7411 264.177 59.1962 264.312 58.773 264.581C58.3499 264.838 58.0101 265.19 57.7537 265.639L56.7151 264.87C56.8434 264.613 57.0165 264.363 57.2344 264.12C57.4524 263.876 57.7217 263.665 58.0422 263.485C58.3627 263.293 58.7282 263.145 59.1385 263.043C59.5488 262.927 60.0039 262.87 60.504 262.87C61.6708 262.87 62.5939 263.164 63.2735 263.754C63.9658 264.344 64.312 265.165 64.312 266.216V271.678H65.6968V273.024H64.639ZM60.0616 271.967C60.4591 271.967 60.8181 271.922 61.1387 271.832C61.472 271.729 61.7605 271.601 62.0041 271.447C62.2477 271.281 62.4336 271.088 62.5619 270.87C62.7029 270.64 62.7734 270.396 62.7734 270.14V268.505H60.6578C59.7347 268.505 59.0615 268.633 58.6384 268.889C58.2153 269.146 58.0037 269.518 58.0037 270.005V270.409C58.0037 270.922 58.1832 271.313 58.5422 271.582C58.9141 271.838 59.4205 271.967 60.0616 271.967ZM68.478 263.1H70.0166V267.255H74.8248V263.1H76.3634V273.024H74.8248V268.562H70.0166V273.024H68.478V263.1ZM98.1005 266.928H92.8692V273.024H91.2537V259.6H92.8692V265.524H98.1005V259.6H99.716V273.024H98.1005V266.928ZM107.017 273.255C106.325 273.255 105.696 273.133 105.132 272.89C104.581 272.646 104.106 272.3 103.709 271.851C103.324 271.39 103.029 270.845 102.824 270.216C102.619 269.575 102.516 268.857 102.516 268.062C102.516 267.28 102.619 266.569 102.824 265.928C103.029 265.286 103.324 264.742 103.709 264.293C104.106 263.831 104.581 263.479 105.132 263.235C105.696 262.991 106.325 262.87 107.017 262.87C107.709 262.87 108.331 262.991 108.882 263.235C109.447 263.479 109.921 263.831 110.306 264.293C110.703 264.742 111.004 265.286 111.21 265.928C111.415 266.569 111.517 267.28 111.517 268.062C111.517 268.857 111.415 269.575 111.21 270.216C111.004 270.845 110.703 271.39 110.306 271.851C109.921 272.3 109.447 272.646 108.882 272.89C108.331 273.133 107.709 273.255 107.017 273.255ZM107.017 271.928C107.876 271.928 108.568 271.672 109.094 271.159C109.62 270.646 109.883 269.851 109.883 268.774V267.351C109.883 266.274 109.62 265.479 109.094 264.966C108.568 264.453 107.876 264.197 107.017 264.197C106.158 264.197 105.465 264.453 104.94 264.966C104.414 265.479 104.151 266.274 104.151 267.351V268.774C104.151 269.851 104.414 270.646 104.94 271.159C105.465 271.672 106.158 271.928 107.017 271.928ZM114.837 263.1H119.895C120.703 263.1 121.338 263.331 121.799 263.793C122.261 264.242 122.492 264.851 122.492 265.62C122.492 266.864 121.844 267.562 120.549 267.716V267.793C121.318 267.857 121.889 268.101 122.261 268.524C122.646 268.934 122.838 269.447 122.838 270.063C122.838 270.46 122.774 270.838 122.646 271.197C122.517 271.556 122.331 271.87 122.088 272.14C121.844 272.409 121.543 272.627 121.184 272.794C120.825 272.947 120.415 273.024 119.953 273.024H114.837V263.1ZM119.568 271.794C120.094 271.794 120.498 271.665 120.78 271.409C121.062 271.152 121.203 270.8 121.203 270.351V269.909C121.203 269.46 121.062 269.114 120.78 268.87C120.511 268.614 120.145 268.486 119.684 268.486H116.376V271.794H119.568ZM119.491 267.274C119.915 267.274 120.248 267.165 120.491 266.947C120.735 266.729 120.857 266.421 120.857 266.024V265.601C120.857 265.203 120.735 264.895 120.491 264.677C120.248 264.447 119.915 264.331 119.491 264.331H116.376V267.274H119.491ZM126.138 263.1H127.677V268.159L127.523 270.697H127.6L132.581 263.1H134.024V273.024H132.485V267.966L132.639 265.428H132.562L127.581 273.024H126.138V263.1ZM137.901 263.1H139.44V267.255H141.555L144.229 263.1H145.825L143.402 266.87C143.184 267.203 142.991 267.441 142.825 267.582C142.658 267.71 142.459 267.806 142.229 267.87V267.947C142.485 267.985 142.703 268.075 142.882 268.216C143.062 268.344 143.248 268.575 143.44 268.909L145.056 271.717H146.171V273.024H145.056C144.722 273.024 144.434 272.935 144.19 272.755C143.947 272.576 143.703 272.281 143.459 271.87L141.555 268.562H139.44V273.024H137.901V263.1ZM153.145 273.255C152.453 273.255 151.825 273.133 151.26 272.89C150.709 272.646 150.235 272.3 149.837 271.851C149.453 271.39 149.158 270.845 148.952 270.216C148.747 269.575 148.645 268.857 148.645 268.062C148.645 267.28 148.747 266.569 148.952 265.928C149.158 265.286 149.453 264.742 149.837 264.293C150.235 263.831 150.709 263.479 151.26 263.235C151.825 262.991 152.453 262.87 153.145 262.87C153.838 262.87 154.459 262.991 155.011 263.235C155.575 263.479 156.049 263.831 156.434 264.293C156.831 264.742 157.133 265.286 157.338 265.928C157.543 266.569 157.646 267.28 157.646 268.062C157.646 268.857 157.543 269.575 157.338 270.216C157.133 270.845 156.831 271.39 156.434 271.851C156.049 272.3 155.575 272.646 155.011 272.89C154.459 273.133 153.838 273.255 153.145 273.255ZM153.145 271.928C154.004 271.928 154.697 271.672 155.222 271.159C155.748 270.646 156.011 269.851 156.011 268.774V267.351C156.011 266.274 155.748 265.479 155.222 264.966C154.697 264.453 154.004 264.197 153.145 264.197C152.286 264.197 151.594 264.453 151.068 264.966C150.542 265.479 150.28 266.274 150.28 267.351V268.774C150.28 269.851 150.542 270.646 151.068 271.159C151.594 271.672 152.286 271.928 153.145 271.928ZM160.965 263.1H166.024C166.831 263.1 167.466 263.331 167.928 263.793C168.389 264.242 168.62 264.851 168.62 265.62C168.62 266.864 167.972 267.562 166.677 267.716V267.793C167.447 267.857 168.017 268.101 168.389 268.524C168.774 268.934 168.966 269.447 168.966 270.063C168.966 270.46 168.902 270.838 168.774 271.197C168.646 271.556 168.46 271.87 168.216 272.14C167.972 272.409 167.671 272.627 167.312 272.794C166.953 272.947 166.543 273.024 166.081 273.024H160.965V263.1ZM165.697 271.794C166.222 271.794 166.626 271.665 166.908 271.409C167.19 271.152 167.331 270.8 167.331 270.351V269.909C167.331 269.46 167.19 269.114 166.908 268.87C166.639 268.614 166.274 268.486 165.812 268.486H162.504V271.794H165.697ZM165.62 267.274C166.043 267.274 166.376 267.165 166.62 266.947C166.863 266.729 166.985 266.421 166.985 266.024V265.601C166.985 265.203 166.863 264.895 166.62 264.677C166.376 264.447 166.043 264.331 165.62 264.331H162.504V267.274H165.62Z" fill="white"></path> <path d="M34.0597 234.52H35.5598L36.0647 233.221L32.6894 225.504H33.9876L35.9926 230.235L36.584 231.851H36.6128L37.161 230.25L38.9207 225.504H40.1612L36.8725 234.188C36.7667 234.476 36.6561 234.712 36.5407 234.895C36.4253 235.077 36.2907 235.222 36.1368 235.327C35.9926 235.423 35.8195 235.491 35.6175 235.529C35.4252 235.558 35.1944 235.573 34.9252 235.573H34.0597V234.52ZM45.2907 235.746C44.7522 235.746 44.2714 235.654 43.8483 235.472C43.4348 235.279 43.0838 235.015 42.7953 234.678C42.5068 234.342 42.2856 233.933 42.1318 233.452C41.9875 232.971 41.9154 232.438 41.9154 231.851C41.9154 231.264 41.9923 230.731 42.1462 230.25C42.3001 229.769 42.5212 229.36 42.8097 229.024C43.0982 228.678 43.4492 228.413 43.8627 228.23C44.2762 228.048 44.7474 227.956 45.2763 227.956C45.9975 227.956 46.5841 228.115 47.0361 228.432C47.4881 228.75 47.8198 229.163 48.0314 229.673L47.1082 230.163C46.9736 229.779 46.7476 229.481 46.4303 229.269C46.1225 229.057 45.7379 228.952 45.2763 228.952C44.9397 228.952 44.6368 229.009 44.3676 229.125C44.1079 229.231 43.8867 229.384 43.704 229.586C43.5213 229.788 43.3819 230.029 43.2857 230.308C43.1992 230.586 43.1559 230.889 43.1559 231.216V232.486C43.1559 232.813 43.1992 233.116 43.2857 233.394C43.3819 233.673 43.5213 233.914 43.704 234.116C43.8867 234.318 44.1127 234.476 44.382 234.592C44.6512 234.697 44.959 234.75 45.3052 234.75C45.8052 234.75 46.2187 234.635 46.5457 234.404C46.8726 234.173 47.1323 233.856 47.3246 233.452L48.1468 234.015C47.9256 234.515 47.5794 234.928 47.1082 235.255C46.6466 235.582 46.0408 235.746 45.2907 235.746ZM50.752 228.129H56.6083V235.573H55.4544V229.11H51.9059V235.573H50.752V228.129ZM62.459 235.746C61.9205 235.746 61.4349 235.654 61.0021 235.472C60.579 235.289 60.2136 235.029 59.9059 234.693C59.6078 234.346 59.377 233.938 59.2135 233.467C59.05 232.986 58.9683 232.452 58.9683 231.865C58.9683 231.269 59.05 230.731 59.2135 230.25C59.3866 229.769 59.6222 229.36 59.9203 229.024C60.2184 228.678 60.5742 228.413 60.9877 228.23C61.4108 228.048 61.8772 227.956 62.3869 227.956C62.8869 227.956 63.3389 228.048 63.7428 228.23C64.1563 228.413 64.5073 228.668 64.7958 228.995C65.0843 229.312 65.3054 229.692 65.4593 230.134C65.6132 230.577 65.6901 231.062 65.6901 231.591V232.139H60.1799V232.486C60.1799 232.813 60.2328 233.116 60.3386 233.394C60.4444 233.673 60.5934 233.914 60.7858 234.116C60.9877 234.318 61.2281 234.476 61.507 234.592C61.7955 234.697 62.1128 234.75 62.459 234.75C62.9591 234.75 63.3918 234.635 63.7572 234.404C64.1226 234.173 64.4015 233.856 64.5938 233.452L65.4449 234.029C65.2237 234.529 64.8535 234.943 64.3342 235.27C63.8245 235.587 63.1995 235.746 62.459 235.746ZM62.3869 228.908C62.0696 228.908 61.7763 228.966 61.507 229.081C61.2377 229.197 61.0021 229.356 60.8002 229.558C60.6079 229.759 60.454 230 60.3386 230.279C60.2328 230.548 60.1799 230.846 60.1799 231.173V231.274H64.4496V231.115C64.4496 230.788 64.3967 230.49 64.2909 230.221C64.1948 229.952 64.0553 229.721 63.8726 229.529C63.6995 229.327 63.4832 229.173 63.2235 229.067C62.9735 228.961 62.6946 228.908 62.3869 228.908ZM67.4298 228.129H68.4972V234.62H70.4445V228.129H71.512V234.62H73.4593V228.129H74.5267V235.573H67.4298V228.129ZM76.6703 228.129H77.8242V231.245H81.4304V228.129H82.5843V235.573H81.4304V232.226H77.8242V235.573H76.6703V228.129ZM88.2764 235.746C87.7571 235.746 87.2859 235.654 86.8628 235.472C86.4493 235.289 86.0935 235.029 85.7953 234.693C85.5069 234.346 85.2857 233.938 85.1318 233.467C84.978 232.986 84.901 232.447 84.901 231.851C84.901 231.264 84.978 230.731 85.1318 230.25C85.2857 229.769 85.5069 229.36 85.7953 229.024C86.0935 228.678 86.4493 228.413 86.8628 228.23C87.2859 228.048 87.7571 227.956 88.2764 227.956C88.7956 227.956 89.262 228.048 89.6755 228.23C90.0987 228.413 90.4545 228.678 90.7429 229.024C91.0411 229.36 91.267 229.769 91.4209 230.25C91.5748 230.731 91.6517 231.264 91.6517 231.851C91.6517 232.447 91.5748 232.986 91.4209 233.467C91.267 233.938 91.0411 234.346 90.7429 234.693C90.4545 235.029 90.0987 235.289 89.6755 235.472C89.262 235.654 88.7956 235.746 88.2764 235.746ZM88.2764 234.75C88.9207 234.75 89.4399 234.558 89.8342 234.173C90.2285 233.789 90.4256 233.192 90.4256 232.385V231.317C90.4256 230.51 90.2285 229.913 89.8342 229.529C89.4399 229.144 88.9207 228.952 88.2764 228.952C87.6321 228.952 87.1128 229.144 86.7185 229.529C86.3242 229.913 86.1271 230.51 86.1271 231.317V232.385C86.1271 233.192 86.3242 233.789 86.7185 234.173C87.1128 234.558 87.6321 234.75 88.2764 234.75ZM105.272 235.746C104.502 235.746 103.863 235.621 103.353 235.371C102.853 235.121 102.444 234.765 102.127 234.303L102.978 233.611C103.209 233.976 103.512 234.26 103.887 234.462C104.262 234.654 104.723 234.75 105.272 234.75C105.964 234.75 106.464 234.64 106.772 234.419C107.079 234.197 107.233 233.914 107.233 233.568V233.366C107.233 232.991 107.108 232.707 106.858 232.515C106.618 232.313 106.267 232.212 105.805 232.212H103.8V231.245H105.661C106.603 231.245 107.075 230.894 107.075 230.192V230.019C107.075 229.702 106.94 229.447 106.671 229.255C106.411 229.053 105.954 228.952 105.3 228.952C104.723 228.952 104.257 229.048 103.901 229.24C103.555 229.432 103.271 229.702 103.05 230.048L102.242 229.5C102.579 229.009 102.988 228.63 103.468 228.36C103.949 228.091 104.579 227.956 105.358 227.956C106.349 227.956 107.084 228.134 107.565 228.49C108.055 228.846 108.301 229.336 108.301 229.961C108.301 230.423 108.18 230.788 107.94 231.058C107.7 231.327 107.363 231.514 106.93 231.62V231.678C107.43 231.755 107.81 231.947 108.07 232.255C108.33 232.553 108.459 232.938 108.459 233.409C108.459 234.13 108.18 234.702 107.623 235.125C107.075 235.539 106.291 235.746 105.272 235.746ZM117.036 235.573C116.584 235.573 116.262 235.457 116.07 235.226C115.878 234.996 115.757 234.707 115.709 234.361H115.637C115.474 234.794 115.209 235.135 114.844 235.385C114.488 235.625 114.007 235.746 113.401 235.746C112.622 235.746 112.002 235.544 111.541 235.14C111.079 234.736 110.848 234.183 110.848 233.481C110.848 232.789 111.098 232.255 111.598 231.88C112.108 231.505 112.925 231.317 114.05 231.317H115.637V230.582C115.637 230.034 115.483 229.625 115.176 229.356C114.868 229.077 114.43 228.937 113.863 228.937C113.363 228.937 112.954 229.038 112.637 229.24C112.319 229.432 112.065 229.697 111.872 230.034L111.093 229.457C111.19 229.264 111.319 229.077 111.483 228.894C111.646 228.711 111.848 228.553 112.089 228.418C112.329 228.274 112.603 228.163 112.911 228.086C113.219 228 113.56 227.956 113.935 227.956C114.81 227.956 115.502 228.178 116.012 228.62C116.531 229.062 116.791 229.678 116.791 230.466V234.563H117.83V235.573H117.036ZM113.603 234.779C113.901 234.779 114.171 234.746 114.411 234.678C114.661 234.601 114.877 234.505 115.06 234.39C115.243 234.265 115.382 234.12 115.478 233.957C115.584 233.784 115.637 233.601 115.637 233.409V232.183H114.05C113.358 232.183 112.853 232.279 112.536 232.471C112.219 232.664 112.06 232.942 112.06 233.308V233.611C112.06 233.995 112.194 234.289 112.464 234.491C112.743 234.683 113.122 234.779 113.603 234.779ZM120.089 228.129H123.882C124.488 228.129 124.964 228.303 125.31 228.649C125.657 228.985 125.83 229.442 125.83 230.019C125.83 230.952 125.344 231.476 124.373 231.591V231.649C124.95 231.697 125.378 231.88 125.657 232.197C125.945 232.505 126.089 232.89 126.089 233.351C126.089 233.649 126.041 233.933 125.945 234.202C125.849 234.471 125.709 234.707 125.527 234.909C125.344 235.111 125.118 235.274 124.849 235.399C124.579 235.515 124.272 235.573 123.926 235.573H120.089V228.129ZM123.637 234.649C124.031 234.649 124.334 234.553 124.546 234.361C124.757 234.169 124.863 233.904 124.863 233.568V233.236C124.863 232.899 124.757 232.64 124.546 232.457C124.344 232.264 124.07 232.168 123.724 232.168H121.243V234.649H123.637ZM123.579 231.26C123.897 231.26 124.147 231.178 124.329 231.014C124.512 230.851 124.604 230.62 124.604 230.322V230.005C124.604 229.707 124.512 229.476 124.329 229.312C124.147 229.139 123.897 229.053 123.579 229.053H121.243V231.26H123.579ZM131.651 235.746C131.113 235.746 130.627 235.654 130.195 235.472C129.771 235.289 129.406 235.029 129.098 234.693C128.8 234.346 128.569 233.938 128.406 233.467C128.242 232.986 128.161 232.452 128.161 231.865C128.161 231.269 128.242 230.731 128.406 230.25C128.579 229.769 128.815 229.36 129.113 229.024C129.411 228.678 129.767 228.413 130.18 228.23C130.603 228.048 131.07 227.956 131.579 227.956C132.079 227.956 132.531 228.048 132.935 228.23C133.349 228.413 133.7 228.668 133.988 228.995C134.277 229.312 134.498 229.692 134.652 230.134C134.806 230.577 134.883 231.062 134.883 231.591V232.139H129.372V232.486C129.372 232.813 129.425 233.116 129.531 233.394C129.637 233.673 129.786 233.914 129.978 234.116C130.18 234.318 130.421 234.476 130.699 234.592C130.988 234.697 131.305 234.75 131.651 234.75C132.152 234.75 132.584 234.635 132.95 234.404C133.315 234.173 133.594 233.856 133.786 233.452L134.637 234.029C134.416 234.529 134.046 234.943 133.527 235.27C133.017 235.587 132.392 235.746 131.651 235.746ZM131.579 228.908C131.262 228.908 130.969 228.966 130.699 229.081C130.43 229.197 130.195 229.356 129.993 229.558C129.8 229.759 129.646 230 129.531 230.279C129.425 230.548 129.372 230.846 129.372 231.173V231.274H133.642V231.115C133.642 230.788 133.589 230.49 133.483 230.221C133.387 229.952 133.248 229.721 133.065 229.529C132.892 229.327 132.676 229.173 132.416 229.067C132.166 228.961 131.887 228.908 131.579 228.908ZM137.214 228.129H138.368V229.341H138.425C138.906 228.418 139.671 227.956 140.719 227.956C141.632 227.956 142.344 228.298 142.854 228.981C143.373 229.663 143.633 230.62 143.633 231.851C143.633 233.082 143.373 234.039 142.854 234.721C142.344 235.404 141.632 235.746 140.719 235.746C139.671 235.746 138.906 235.284 138.425 234.361H138.368V238.457H137.214V228.129ZM140.272 234.721C140.945 234.721 141.464 234.52 141.829 234.116C142.205 233.702 142.392 233.159 142.392 232.486V231.216C142.392 230.543 142.205 230.005 141.829 229.601C141.464 229.187 140.945 228.981 140.272 228.981C140.012 228.981 139.767 229.014 139.536 229.081C139.305 229.149 139.103 229.25 138.93 229.384C138.757 229.509 138.618 229.668 138.512 229.86C138.416 230.043 138.368 230.259 138.368 230.51V233.192C138.368 233.442 138.416 233.664 138.512 233.856C138.618 234.039 138.757 234.197 138.93 234.332C139.103 234.457 139.305 234.553 139.536 234.62C139.767 234.688 140.012 234.721 140.272 234.721ZM145.271 228.129H146.339V234.62H148.286V228.129H149.353V234.62H151.301V228.129H152.368V235.573H145.271V228.129ZM154.512 228.129H155.666V231.923L155.55 233.827H155.608L159.344 228.129H160.426V235.573H159.272V231.779L159.387 229.875H159.33L155.594 235.573H154.512V228.129ZM162.166 234.592H163.089C163.233 234.409 163.358 234.193 163.464 233.943C163.579 233.693 163.671 233.394 163.738 233.048C163.815 232.702 163.872 232.303 163.911 231.851C163.949 231.389 163.969 230.856 163.969 230.25V228.129H168.916V235.573H167.762V229.11H165.094V230.279C165.094 231.625 164.993 232.683 164.791 233.452C164.598 234.212 164.339 234.755 164.012 235.082C163.829 235.265 163.627 235.395 163.406 235.472C163.185 235.539 162.92 235.573 162.613 235.573H162.166V234.592ZM183.416 235.746C182.897 235.746 182.425 235.654 182.002 235.472C181.589 235.289 181.233 235.029 180.935 234.693C180.646 234.346 180.425 233.938 180.271 233.467C180.118 232.986 180.041 232.447 180.041 231.851C180.041 231.264 180.118 230.731 180.271 230.25C180.425 229.769 180.646 229.36 180.935 229.024C181.233 228.678 181.589 228.413 182.002 228.23C182.425 228.048 182.897 227.956 183.416 227.956C183.935 227.956 184.402 228.048 184.815 228.23C185.238 228.413 185.594 228.678 185.883 229.024C186.181 229.36 186.407 229.769 186.56 230.25C186.714 230.731 186.791 231.264 186.791 231.851C186.791 232.447 186.714 232.986 186.56 233.467C186.407 233.938 186.181 234.346 185.883 234.693C185.594 235.029 185.238 235.289 184.815 235.472C184.402 235.654 183.935 235.746 183.416 235.746ZM183.416 234.75C184.06 234.75 184.58 234.558 184.974 234.173C185.368 233.789 185.565 233.192 185.565 232.385V231.317C185.565 230.51 185.368 229.913 184.974 229.529C184.58 229.144 184.06 228.952 183.416 228.952C182.772 228.952 182.252 229.144 181.858 229.529C181.464 229.913 181.267 230.51 181.267 231.317V232.385C181.267 233.192 181.464 233.789 181.858 234.173C182.252 234.558 182.772 234.75 183.416 234.75ZM192.079 235.746C191.579 235.746 191.123 235.654 190.709 235.472C190.305 235.289 189.954 235.01 189.656 234.635C189.368 234.26 189.142 233.789 188.978 233.221C188.815 232.644 188.733 231.962 188.733 231.173C188.733 230.077 188.805 229.144 188.949 228.375C189.103 227.605 189.334 226.971 189.642 226.471C189.959 225.971 190.358 225.6 190.839 225.36C191.329 225.12 191.911 224.975 192.584 224.927L194.863 224.783V225.923L192.469 226.081C192.055 226.11 191.7 226.187 191.401 226.312C191.113 226.437 190.868 226.639 190.666 226.918C190.474 227.187 190.32 227.543 190.204 227.985C190.089 228.428 190.002 228.981 189.945 229.644H190.017C190.219 229.163 190.502 228.793 190.868 228.533C191.233 228.264 191.69 228.129 192.238 228.129C192.709 228.129 193.142 228.216 193.536 228.389C193.931 228.562 194.267 228.812 194.546 229.139C194.825 229.457 195.041 229.856 195.195 230.336C195.359 230.808 195.44 231.346 195.44 231.952C195.44 232.519 195.359 233.034 195.195 233.495C195.032 233.957 194.801 234.356 194.503 234.693C194.205 235.029 193.849 235.289 193.435 235.472C193.031 235.654 192.579 235.746 192.079 235.746ZM192.079 234.75C192.705 234.75 193.214 234.558 193.608 234.173C194.012 233.779 194.214 233.207 194.214 232.457V231.548C194.214 230.74 194.017 230.134 193.623 229.731C193.238 229.327 192.733 229.125 192.108 229.125C191.377 229.125 190.834 229.303 190.478 229.658C190.132 230.005 189.959 230.452 189.959 231V232.457C189.959 233.207 190.151 233.779 190.536 234.173C190.93 234.558 191.445 234.75 192.079 234.75ZM203.123 228.129H204.277L200.584 237.202C200.498 237.414 200.402 237.597 200.296 237.751C200.19 237.914 200.065 238.044 199.921 238.14C199.776 238.246 199.603 238.323 199.401 238.371C199.199 238.429 198.959 238.457 198.68 238.457H197.584V237.477H199.315L200.152 235.428L197.151 228.129H198.334L199.589 231.245L200.7 234.072H200.757L201.868 231.245L203.123 228.129ZM210.95 232.154H210.878C210.608 232.452 210.301 232.678 209.955 232.832C209.618 232.976 209.185 233.048 208.656 233.048C207.849 233.048 207.233 232.861 206.81 232.486C206.396 232.101 206.19 231.524 206.19 230.755V228.129H207.344V230.654C207.344 231.115 207.474 231.457 207.733 231.678C207.993 231.899 208.416 232.01 209.003 232.01C209.579 232.01 210.046 231.938 210.402 231.793C210.767 231.639 210.95 231.409 210.95 231.101V228.129H212.104V235.573H210.95V232.154ZM218.142 235.746C217.603 235.746 217.118 235.654 216.685 235.472C216.262 235.289 215.897 235.029 215.589 234.693C215.291 234.346 215.06 233.938 214.896 233.467C214.733 232.986 214.651 232.452 214.651 231.865C214.651 231.269 214.733 230.731 214.896 230.25C215.07 229.769 215.305 229.36 215.603 229.024C215.901 228.678 216.257 228.413 216.671 228.23C217.094 228.048 217.56 227.956 218.07 227.956C218.57 227.956 219.022 228.048 219.426 228.23C219.839 228.413 220.19 228.668 220.479 228.995C220.767 229.312 220.988 229.692 221.142 230.134C221.296 230.577 221.373 231.062 221.373 231.591V232.139H215.863V232.486C215.863 232.813 215.916 233.116 216.022 233.394C216.127 233.673 216.276 233.914 216.469 234.116C216.671 234.318 216.911 234.476 217.19 234.592C217.478 234.697 217.796 234.75 218.142 234.75C218.642 234.75 219.075 234.635 219.44 234.404C219.806 234.173 220.084 233.856 220.277 233.452L221.128 234.029C220.907 234.529 220.536 234.943 220.017 235.27C219.508 235.587 218.882 235.746 218.142 235.746ZM218.07 228.908C217.753 228.908 217.459 228.966 217.19 229.081C216.921 229.197 216.685 229.356 216.483 229.558C216.291 229.759 216.137 230 216.022 230.279C215.916 230.548 215.863 230.846 215.863 231.173V231.274H220.133V231.115C220.133 230.788 220.08 230.49 219.974 230.221C219.878 229.952 219.738 229.721 219.556 229.529C219.383 229.327 219.166 229.173 218.906 229.067C218.656 228.961 218.378 228.908 218.07 228.908ZM223.704 228.129H224.858V231.245H228.464V228.129H229.618V235.573H228.464V232.226H224.858V235.573H223.704V228.129ZM232.353 228.129H233.507V231.923L233.392 233.827H233.45L237.185 228.129H238.267V235.573H237.113V231.779L237.229 229.875H237.171L233.435 235.573H232.353V228.129ZM244.089 235.746C243.551 235.746 243.065 235.654 242.632 235.472C242.209 235.289 241.844 235.029 241.536 234.693C241.238 234.346 241.007 233.938 240.844 233.467C240.68 232.986 240.598 232.452 240.598 231.865C240.598 231.269 240.68 230.731 240.844 230.25C241.017 229.769 241.252 229.36 241.55 229.024C241.849 228.678 242.204 228.413 242.618 228.23C243.041 228.048 243.507 227.956 244.017 227.956C244.517 227.956 244.969 228.048 245.373 228.23C245.786 228.413 246.137 228.668 246.426 228.995C246.714 229.312 246.936 229.692 247.089 230.134C247.243 230.577 247.32 231.062 247.32 231.591V232.139H241.81V232.486C241.81 232.813 241.863 233.116 241.969 233.394C242.075 233.673 242.224 233.914 242.416 234.116C242.618 234.318 242.858 234.476 243.137 234.592C243.426 234.697 243.743 234.75 244.089 234.75C244.589 234.75 245.022 234.635 245.387 234.404C245.753 234.173 246.032 233.856 246.224 233.452L247.075 234.029C246.854 234.529 246.484 234.943 245.964 235.27C245.455 235.587 244.83 235.746 244.089 235.746ZM244.017 228.908C243.7 228.908 243.406 228.966 243.137 229.081C242.868 229.197 242.632 229.356 242.43 229.558C242.238 229.759 242.084 230 241.969 230.279C241.863 230.548 241.81 230.846 241.81 231.173V231.274H246.08V231.115C246.08 230.788 246.027 230.49 245.921 230.221C245.825 229.952 245.685 229.721 245.503 229.529C245.33 229.327 245.113 229.173 244.854 229.067C244.604 228.961 244.325 228.908 244.017 228.908Z" fill="white"></path> <rect opacity="0.2" width="43.2735" height="41.6707" transform="matrix(-1 0 0 1 258.037 30.4517)" fill="#00C2FF"></rect> <rect opacity="0.1" width="25.6435" height="25.6435" transform="matrix(-1 0 0 1 283.682 4.80835)" fill="#00C2FF"></rect> <rect width="25.6435" height="25.6435" transform="matrix(-1 0 0 1 283.682 30.4517)" fill="#00C2FF"></rect> <path d="M61.9246 41.9074L61.8305 43.2516L58.1348 42.9726L58.5614 36.8628L62.2154 37.1385L62.1215 38.4825L59.8116 38.3084L59.7409 39.3204L61.841 39.4791L61.7482 40.8056L59.6482 40.6472L59.5726 41.7295L61.9246 41.9074Z" fill="white"></path> <path d="M77.1561 46.4067C76.2524 47.8634 74.4977 48.2971 73.1056 47.3981L71.0859 46.094L74.2825 40.9443L76.3019 42.2484C77.6944 43.1471 78.0603 44.95 77.1561 46.4067ZM76.0454 45.6895C76.5935 44.8065 76.3924 43.8934 75.5988 43.3809L74.7333 42.8221L72.9431 45.7061L73.8089 46.2649C74.6025 46.7777 75.4977 46.5723 76.0454 45.6895Z" fill="white"></path> <path d="M83.674 55.0139L87.2695 53.0127L87.9421 54.2311L84.4531 56.173C84.0511 56.3968 83.8152 56.7771 84.1725 57.4245C84.5297 58.0719 84.9764 58.0723 85.3784 57.8483L88.8674 55.9064L89.5405 57.1247L85.945 59.1259C84.8072 59.7589 83.6367 59.2559 82.989 58.083C82.3413 56.9103 82.5362 55.6471 83.674 55.0139Z" fill="white"></path> <path d="M89.6668 68.9858C91.3734 68.9569 92.704 70.2367 92.733 72.0317C92.751 73.1118 92.2447 74.0739 91.4331 74.6066L90.7509 73.444C91.1942 73.1728 91.4511 72.658 91.4411 72.054C91.4237 70.9994 90.7248 70.3307 89.689 70.3488C88.6536 70.3665 87.977 71.0587 87.9942 72.1138C88.0043 72.7177 88.2778 73.2318 88.7296 73.4793L88.0859 74.6643C87.2575 74.1679 86.7197 73.2245 86.7017 72.1357C86.6722 70.3414 87.96 69.015 89.6668 68.9858Z" fill="white"></path> <path d="M83.3876 87.4053L84.4381 85.5099L83.7732 84.8127L84.4802 83.5371L88.6518 88.0837L87.8274 89.571L81.7324 88.4933L82.4396 87.2177L83.3876 87.4053ZM84.6816 87.6577L86.8976 88.0923L85.3444 86.4623L84.6816 87.6577Z" fill="white"></path> <path d="M74.9292 101.088L76.1702 100.215L73.5703 96.38L74.6737 95.6035L77.2733 99.4387L78.5147 98.5656L79.2478 99.647L75.6629 102.17L74.9292 101.088Z" fill="white"></path> <path d="M63.3102 106.607L62.2148 100.812L63.6034 100.573L64.6987 106.368L63.3102 106.607Z" fill="white"></path> <path d="M51.6254 103.768C51.1519 105.502 49.4929 106.435 47.8958 105.945C46.2983 105.456 45.3665 103.727 45.8405 101.993C46.3142 100.259 47.973 99.3259 49.5703 99.816C51.1676 100.306 52.0994 102.033 51.6254 103.768ZM47.1119 102.383C46.8244 103.436 47.3488 104.354 48.2548 104.632C49.1606 104.91 50.0666 104.43 50.3542 103.378C50.6415 102.325 50.1173 101.407 49.2115 101.129C48.3057 100.851 47.3995 101.331 47.1119 102.383Z" fill="white"></path> <path d="M32.0547 95.9922L36.1096 91.7007L36.8506 92.3901L36.3171 96.2729L38.5184 93.9427L39.5063 94.8628L35.4514 99.1543L34.7103 98.4649L35.2438 94.5825L33.0427 96.9119L32.0547 95.9922Z" fill="white"></path> <path d="M78.1836 74.3076C78.6284 73.6309 78.6186 72.562 78.4766 72.3621C79.6854 72.2302 78.7702 74.1002 78.1836 74.3076Z" fill="white"></path> <path d="M61.977 69.7338C61.8301 69.4396 61.3471 69.2727 61.419 68.7788C61.4211 68.7633 61.4031 68.745 61.3923 68.7293C61.2913 68.5811 61.196 68.5917 61.0935 68.748C60.8447 69.1294 60.5884 69.5063 60.3322 69.8807C59.6268 70.909 56.9935 74.3103 56.0842 74.4231C55.9046 74.4452 55.8296 74.3059 55.8173 74.1517C55.7679 73.5732 56.3394 72.1109 57.2108 70.9909C56.3755 72.507 56.2411 73.4263 56.4159 73.6348C57.035 71.3216 59.0799 69.1402 60.7779 67.6594C60.8129 67.6229 60.8435 67.5932 60.8429 67.5611C60.8375 67.0642 60.1209 66.5169 59.3251 66.5496C59.4322 66.1995 59.139 65.9578 58.9118 65.9676C58.6884 66.3927 57.4942 68.2358 56.8435 68.958C55.1251 70.8909 52.6385 72.8826 49.9781 74.0281C49.9262 74.0548 50.4604 74.5845 51.5635 74.0621C51.5402 74.1177 51.236 74.3923 50.958 74.4271C51.1099 74.5662 51.7016 74.5811 52.1715 74.4258C53.2279 74.0789 54.8642 72.3337 55.3524 71.6794C55.0561 72.1893 53.7978 74.1676 53.5528 75.7231C53.4248 76.536 53.5178 77.2082 53.9845 77.278C54.0754 78.0548 54.6513 78.618 55.0682 78.5638C55.1395 78.555 55.2134 78.4959 55.2353 78.3819C55.6458 76.247 58.4856 72.6796 58.7448 73.041C57.8366 74.2835 57.0248 76.6809 57.4296 77.8168C57.6718 78.4999 58.6942 78.7622 60.0209 78.2239C58.9607 77.7091 59.1999 75.0754 59.6085 74.0442C59.2783 75.7187 59.4901 77.2077 59.9307 77.5545L59.9569 77.5369C59.2753 74.3938 60.8326 71.4392 61.9605 70.2177C62.061 70.043 62.0639 69.9075 61.977 69.7338Z" fill="white"></path> <path d="M47.4325 81.5687C46.1878 81.7998 45.5641 79.4778 47.3992 78.6982C47.883 78.4928 48.7219 78.489 48.7319 78.9898C46.4731 79.4734 46.5044 81.4032 47.4325 81.5687Z" fill="white"></path> <path d="M51.3938 58.5137C43.0702 60.5054 34.4725 67.7358 38.969 69.5166C37.6542 67.3558 41.2143 61.9495 51.3938 58.5137Z" fill="white"></path> <path d="M44.6316 84.5935C45.0781 84.5169 45.1074 84.1211 44.8104 83.8751C44.1785 83.3512 43.9218 82.4608 44.2083 81.939C43.8194 82.2273 43.4151 83.0055 43.661 83.7746C43.814 84.2545 44.2349 84.6618 44.6316 84.5935Z" fill="white"></path> <path d="M54.752 65.4194C53.9403 66.6609 50.6893 68.5231 47.4782 68.4545C47.9798 69.395 49.1346 70.2647 51.3357 69.8888C55.9647 69.097 61.5303 63.1502 61.1318 59.0825C61.1144 59.0825 61.097 59.0825 61.0801 59.0825C60.9585 60.4189 60.0925 62.3362 59.2823 62.9986C59.7651 62.3881 60.6641 60.7294 60.6429 58.9923C60.5918 54.7021 54.9297 53.5094 48.3717 56.2742C48.3454 56.2854 52.1214 55.2234 53.7789 55.4345C43.75 56.9956 35.8112 64.3826 35.6091 69.3312C35.2538 78.0377 51.9941 73.6369 51.449 78.9925C52.2872 76.3676 47.36 74.8475 46.7899 74.467C46.8519 74.4399 46.8962 74.4408 46.9371 74.4492C48.3435 74.7296 51.7559 76.2331 51.8335 78.2124C51.9661 81.5965 47.2671 82.3578 46.3401 81.6657C46.4771 82.193 47.5904 82.8586 48.7987 82.5636C48.2525 82.8559 45.9341 82.8643 45.8211 81.0991C45.7527 80.0341 46.2771 79.3453 46.2771 79.3453C46.174 79.3538 45.946 79.6792 45.8739 79.8188C45.8245 79.913 45.7767 79.988 45.6465 79.9795C45.5901 79.9763 45.4991 80.0221 45.4715 80.0759C44.5171 81.9093 45.859 84.0715 48.4553 83.8793C50.1506 83.7543 51.2908 82.9626 51.7553 82.462C51.5046 82.6325 51.0335 82.9282 50.6706 82.9797C50.6651 82.9655 50.6594 82.9511 50.6535 82.9372C51.8721 82.2288 52.8811 81.1825 53.0571 79.7707C53.9971 72.263 38.2232 73.1513 37.4802 68.7086C36.4876 62.7751 55.071 54.788 59.4109 58.5726C58.9196 56.1295 52.4465 57.2139 52.4448 57.196C55.6105 56.1454 59.8751 56.3424 59.9746 58.8932C60.055 60.9348 56.0661 65.9761 48.4394 67.6278C49.9781 68.1354 53.269 66.7336 54.752 65.4194Z" fill="white"></path> <path d="M77.74 71.8537C77.408 71.0108 73.8846 71.3543 71.8057 72.2615C71.7609 72.1594 71.7137 72.0628 71.6625 71.9749C72.2543 70.4492 74.051 67.6625 75.9741 65.7629C76.3063 65.4353 76.6417 65.1345 76.9754 64.8705C77.0148 64.3019 75.5191 63.5634 74.5322 64.3733C73.3272 65.6693 72.0897 68.1934 71.5418 69.3896L71.4276 69.3934C71.6808 68.0544 73.0229 65.6143 73.8427 64.8164C72.7697 64.8546 70.5154 69.3748 69.3018 73.5316H69.2993C68.0194 74.0782 65.6356 75.539 64.8206 76.4147C64.7749 76.464 64.716 76.2839 64.712 76.2196C64.5733 74.0116 67.1642 72.4124 69.2209 70.9501C69.4808 70.765 69.3034 70.2213 69.1945 70.1268C68.4199 71.2828 66.3025 72.4957 65.3329 73.8237C66.0359 72.4464 69.0919 70.4796 69.0446 69.714C68.976 68.6069 67.5874 67.4638 66.9927 67.1596C67.1011 66.9705 67.3707 66.4458 67.2805 65.8868C67.1776 65.2467 66.5197 64.9656 65.9636 65.0199C66.0636 65.3945 65.9544 65.9795 65.8527 66.289C64.7703 65.5488 63.0876 65.4359 63.0723 66.3822C63.821 65.8392 65.3723 66.2336 66.0564 66.7048C63.0369 65.7128 62.2628 67.3655 62.6522 68.2404C62.6522 68.2404 63.9103 68.2019 64.92 68.5798C64.6928 69.2321 63.1882 72.2644 61.468 74.1497C61.5897 74.1103 61.7067 74.0852 61.8117 74.0372C62.0196 73.9444 63.9279 71.3534 64.4559 70.5477C64.4664 70.5984 64.0323 71.5128 63.2308 72.7601C64.1214 71.7231 65.558 69.4608 65.9177 68.881C65.9177 68.881 66.9714 69.2991 67.0179 70.0453C67.0954 71.3088 61.6216 74.3469 61.7036 76.6829C61.7182 77.1122 61.939 77.7377 62.3821 78.1441C62.2026 77.7801 62.1142 77.3031 62.1722 76.7687C62.2527 76.027 62.6168 75.1758 63.4173 74.3665C61.9442 76.2175 62.4644 77.8935 62.7803 78.3526C57.9719 78.6611 54.0783 80.3908 54.0599 83.0777C54.0712 83.1371 54.0209 83.2183 53.9838 83.2768C53.5 84.0513 53.7109 85.0169 54.041 85.1337C56.3058 82.3652 60.189 80.1046 63.5978 79.4557C63.5978 79.3914 63.323 79.4016 62.8761 79.473C61.2261 79.7083 59.1367 80.3115 57.4538 81.3356C57.4081 79.9095 63.5219 78.4644 67.3719 79.0175C67.4348 78.4513 66.2436 78.232 64.9189 78.2099C65.5486 75.6787 69.495 73.5819 71.0138 73.0571C69.5154 73.7024 67.1074 75.2057 66.0342 76.8431C67.0481 75.9268 68.3977 74.9372 68.9689 74.6694C67.5614 80.566 69.053 82.9647 70.1178 82.9266C70.8581 82.9012 71.5441 82.1259 71.9723 80.35C71.6361 81.1471 71.2083 81.6842 70.8025 81.6985C69.795 81.7341 69.6621 80.2232 69.6621 80.2232C70.3049 81.8822 72.1549 80.5908 72.3574 77.6305C72.371 77.4257 72.3842 77.216 72.3939 76.9974C72.4377 76.0347 72.3964 74.8448 72.2243 73.8038C73.6651 73.3574 75.9984 73.3259 76.6283 73.818C76.784 72.94 75.1824 72.7335 72.588 73.3069C74.3447 72.7307 76.8281 72.5274 76.9922 73.3735C77.0754 73.8023 76.8304 74.4358 76.6432 74.68C76.5531 74.7973 76.8515 74.7079 76.9303 74.6056C77.3647 74.0425 78.0788 72.7117 77.74 71.8537ZM70.6885 79.711C69.8883 79.7592 70.023 76.6204 70.983 74.1127C71.0719 74.0736 71.1729 74.0382 71.2823 74.0048C71.4481 75.9357 71.1396 78.0008 70.8212 78.9083C71.2787 78.8922 71.7812 76.8753 71.7523 74.9598L71.8468 74.9569C72.1044 78.0059 71.1922 79.6929 70.6885 79.711Z" fill="white"></path> <path fill-rule="evenodd" clip-rule="evenodd" d="M192.485 320C191.343 316.663 190.724 313.083 190.724 309.359C190.724 291.213 205.434 276.503 223.58 276.503C241.725 276.503 256.435 291.213 256.435 309.359C256.435 313.083 255.816 316.663 254.674 320H256.364C257.451 316.649 258.038 313.073 258.038 309.359C258.038 290.328 242.61 274.901 223.58 274.901C204.549 274.901 189.121 290.328 189.121 309.359C189.121 313.073 189.708 316.649 190.795 320H192.485ZM252.42 320C253.644 316.684 254.312 313.1 254.312 309.359C254.312 292.386 240.552 278.626 223.579 278.626C206.605 278.626 192.846 292.386 192.846 309.359C192.846 313.1 193.514 316.684 194.738 320H195.594C194.336 316.694 193.647 313.107 193.647 309.359C193.647 292.828 207.048 279.427 223.579 279.427C240.11 279.427 253.511 292.828 253.511 309.359C253.511 313.107 252.822 316.694 251.564 320H252.42ZM225.224 320H224.442C224.381 319.823 224.355 319.614 224.39 319.386C224.398 319.332 224.409 319.257 224.381 319.224C223.502 317.485 225.861 314.659 229.38 312.347C228.99 312.19 228.041 311.339 228.536 309.499C228.202 310.373 228.21 311.081 228.396 311.594C228.53 311.964 228.755 312.232 229.011 312.388C228.542 312.321 228.168 312.015 228.015 311.745C227.534 310.902 228.353 309.108 229.05 307.584C229.567 306.45 230.017 305.466 229.813 305.133C229.53 304.673 228.597 304.866 228.597 304.866C228.519 305.398 228.188 307.487 227.862 308.546C228.051 307.39 228.074 306.611 228.05 306.583C227.92 307.334 227.343 309.842 227.217 309.993C227.175 310.045 227.125 310.092 227.072 310.142C227.047 310.166 227.021 310.19 226.995 310.216C227.665 308.246 227.791 305.631 227.746 305.111C226.859 305.311 225.924 305.889 225.924 305.889C225.34 305.496 225.374 304.091 227.979 303.403C227.307 303.4 226.007 303.828 225.623 304.507C225.321 303.89 226.626 303.224 227.687 303.225C227.661 302.981 227.549 302.556 227.349 302.358C227.75 302.079 228.339 301.971 228.629 302.338C228.883 302.659 228.854 303.115 228.835 303.285C229.384 303.219 230.81 303.346 231.23 304.029C231.378 304.27 231.021 305.067 230.627 305.949C230.248 306.796 229.834 307.722 229.799 308.308C229.944 307.663 230.318 306.91 230.679 306.183C231.036 305.463 231.381 304.769 231.48 304.229C231.593 304.242 231.907 304.514 231.773 304.748C231.682 304.907 231.587 305.068 231.492 305.231L231.492 305.231C230.482 306.961 229.361 308.88 230.127 310.124C230.151 310.164 230.256 310.254 230.274 310.202C230.597 309.28 231.907 307.291 232.69 306.377L232.692 306.376C232.225 303.164 232.421 299.261 233.217 298.765C232.865 299.639 232.664 301.801 232.918 302.775L233.003 302.722C233.018 301.711 233.112 299.541 233.589 298.176C234.064 297.221 235.436 297.039 235.595 297.423C235.431 297.74 235.279 298.081 235.137 298.438C234.32 300.507 233.892 303.092 233.953 304.335C234.021 304.369 234.088 304.411 234.156 304.457C235.421 302.959 237.961 301.189 238.491 301.586C238.645 301.701 238.747 301.877 238.811 302.084C239.448 301.903 239.355 303.293 239.005 303.66C239.061 303.341 239.001 303.009 238.904 302.743C238.91 303.108 238.857 303.471 238.795 303.715C238.77 303.816 238.575 304.004 238.604 303.889C238.664 303.65 238.638 303.134 238.433 302.894C238.028 302.421 236.225 303.643 235.093 304.787C236.857 303.277 238.132 302.706 238.306 303.34C237.668 303.3 235.921 304.346 234.984 305.267C235.459 305.862 235.886 306.61 236.173 307.25C236.238 307.395 236.298 307.536 236.355 307.674C237.186 309.67 236.222 311.315 235.186 310.528C235.186 310.528 235.788 311.444 236.536 310.978C236.837 310.79 236.98 310.256 236.969 309.595C237.236 310.927 236.977 311.728 236.428 312.07C235.638 312.562 233.718 311.672 232.819 307.255C232.478 307.678 231.79 308.909 231.33 309.945C231.595 308.418 232.909 306.392 233.824 305.317C232.854 306.323 230.578 309.408 230.944 311.316C231.949 310.748 232.92 310.366 233.06 310.758C229.976 312.094 225.851 315.711 226.359 316.61C227.286 315.211 228.66 313.904 229.825 313.027C230.138 312.785 230.341 312.658 230.363 312.699C228.166 314.488 226.125 317.364 225.224 320ZM222.167 320H219.828C221.075 319.141 222.553 317.362 221.66 315.81C220.936 314.551 217.829 315.089 216.663 315.533C216.629 315.546 216.595 315.565 216.557 315.61C216.654 315.609 216.864 315.572 217.144 315.523C218.479 315.287 221.428 314.765 221.629 316.492C221.019 314.842 218.487 315.927 215.618 317.156C211.977 318.717 207.793 320.51 206.308 317.238C204.798 313.913 208.366 305.545 215.486 300.054C214.25 300.61 211.997 302.69 211.683 302.979L211.659 303.002C211.654 303.006 211.651 303.009 211.649 303.011C211.647 303.013 211.646 303.013 211.647 303.013C215.716 298.282 220.433 296.537 221.914 299.319C222.514 300.445 222.386 301.93 222.224 302.544C222.619 301.75 222.634 300.111 222.278 299.183L222.317 299.16C223.988 301.641 221.745 308.01 218.483 310.591C216.931 311.818 215.759 311.764 215.06 311.373C217.531 309.987 219.383 307.32 219.584 306.147C218.896 307.667 216.858 310.05 215.515 310.404C220.773 305.925 222.119 300.851 221.371 299.552C220.438 297.929 217.121 299.702 215.061 301.8C215.062 301.801 215.09 301.779 215.143 301.74C215.765 301.277 219.732 298.324 220.834 299.594C218.735 299.347 215.187 302.049 212.223 305.381C207.907 310.685 207.454 314.512 208.921 315.211C206.894 315.632 206.964 313.646 208.263 310.946C207.14 313.093 206.713 314.983 207.525 315.997C208.397 317.087 211.005 316.348 213.859 315.54C215.475 315.083 217.169 314.603 218.672 314.42C220.264 312.513 221.454 310.163 222.1 308.18C222.352 307.421 222.642 305.692 222.669 305.316C222.838 305.209 223.142 305.236 223.178 305.512C223.771 305.137 224.498 305.175 224.669 305.496C224.679 305.515 224.668 305.546 224.655 305.582L224.652 305.589C223.859 307.306 223.036 309.632 223.341 311.412C223.138 311.354 222.932 310.696 223.059 309.339C222.772 310.454 222.828 311.659 223.059 312.014C223.12 312.108 223.224 312.166 223.353 312.072C224.005 311.595 224.866 308.214 225.057 307.232C225.127 306.874 225.195 306.515 225.256 306.157C225.282 306.01 225.351 305.961 225.477 306.012L225.483 306.014L225.487 306.016C225.499 306.02 225.511 306.024 225.514 306.032C225.587 306.264 225.794 306.298 225.987 306.33C226.088 306.347 226.185 306.363 226.257 306.406C226.381 306.481 226.425 306.57 226.407 306.728C225.959 308.023 225.766 310.636 227.336 312.379L227.322 312.402C226.871 312.372 226.212 311.497 225.902 310.261C225.937 311.113 226.637 312.933 227.614 312.797C226.787 313.736 225.923 314.019 225.51 313.682C224.823 313.123 224.637 311.203 224.91 309.992C224.592 309.872 223.63 313.453 224.033 315.024C224.055 315.108 224.019 315.179 223.967 315.216C223.669 315.437 223.043 315.326 222.714 314.861C222.336 315.022 222.041 314.626 221.866 314.041C221.564 313.032 221.772 311.436 221.856 310.789L221.856 310.789C221.865 310.717 221.873 310.658 221.878 310.612C221.727 311.254 221.069 313.115 220.383 313.81C220.078 314.119 219.624 314.372 219.462 314.349C219.661 314.203 219.8 313.89 219.799 313.843C219.599 314.093 219.407 314.258 219.236 314.365C221.084 314.235 222.564 314.654 223.117 316.283C223.457 317.285 223.04 318.418 222.349 319.425C222.358 319.431 222.367 319.438 222.376 319.445C222.636 319.249 222.895 318.846 223.029 318.623C222.915 318.95 222.646 319.461 222.167 320ZM219.176 320C219.099 319.559 219.318 318.907 220.11 318.234C219.933 317.91 219.293 318.288 218.992 318.64C218.565 319.138 218.474 319.624 218.573 320H219.176ZM217.871 320H217.432C217.432 319.956 217.434 319.91 217.437 319.865C217.44 319.817 217.494 319.747 217.538 319.724C217.64 319.671 217.652 319.601 217.658 319.517C217.666 319.394 217.73 319.079 217.806 319.028C217.806 319.028 217.696 319.476 217.871 320ZM235.789 309.747C235.203 310.13 234.261 308.049 234.151 306.011C234.205 305.947 234.27 305.88 234.341 305.81C235.107 306.981 235.561 308.447 235.623 309.172C235.962 308.96 235.67 307.44 235.012 306.219L235.082 306.175C236.29 308.027 236.163 309.514 235.789 309.747Z" fill="#0A6FD6"></path> </svg> 