<?xml version="1.0" encoding="UTF-8" standalone="no"?>
<svg
   xmlns:dc="http://purl.org/dc/elements/1.1/"
   xmlns:cc="http://creativecommons.org/ns#"
   xmlns:rdf="http://www.w3.org/1999/02/22-rdf-syntax-ns#"
   xmlns:svg="http://www.w3.org/2000/svg"
   xmlns="http://www.w3.org/2000/svg"
   xmlns:sodipodi="http://sodipodi.sourceforge.net/DTD/sodipodi-0.dtd"
   xmlns:inkscape="http://www.inkscape.org/namespaces/inkscape"
   width="46.978519"
   height="45.5984"
   viewBox="0 0 46.978519 45.5984"
   fill="none"
   version="1.1"
   id="svg18"
   sodipodi:docname="ic_5.svg"
   inkscape:version="1.0.1 (3bc2e813f5, 2020-09-07)">
  <metadata
     id="metadata24">
    <rdf:RDF>
      <cc:Work
         rdf:about="">
        <dc:format>image/svg+xml</dc:format>
        <dc:type
           rdf:resource="http://purl.org/dc/dcmitype/StillImage" />
      </cc:Work>
    </rdf:RDF>
  </metadata>
  <defs
     id="defs22" />
  <sodipodi:namedview
     pagecolor="#ffffff"
     bordercolor="#666666"
     borderopacity="1"
     objecttolerance="10"
     gridtolerance="10"
     guidetolerance="10"
     inkscape:pageopacity="0"
     inkscape:pageshadow="2"
     inkscape:window-width="3440"
     inkscape:window-height="1346"
     id="namedview20"
     showgrid="false"
     inkscape:zoom="18.666667"
     inkscape:cx="19.97852"
     inkscape:cy="27"
     inkscape:window-x="2293"
     inkscape:window-y="-11"
     inkscape:window-maximized="1"
     inkscape:current-layer="svg18" />
  <rect
     opacity="0.08"
     x="8.9785204"
     width="38"
     height="38"
     fill="#00c2ff"
     id="rect2"
     y="0"
     style="opacity:0.498695" />
  <path
     d="m 4.27852,22.846 c 0,-0.484 0.3923,-0.8763 0.8763,-0.8763 h 12.6433 c 0.484,0 0.8763,0.3923 0.8763,0.8763 0,0.4839 -0.3923,0.8763 -0.8763,0.8763 H 5.15482 c -0.484,0 -0.8763,-0.3924 -0.8763,-0.8763 z"
     fill="#000000"
     id="path4"
     style="opacity:1;fill:#f44336;fill-opacity:1" />
  <path
     d="m 4.27852,26.3509 c 0,-0.484 0.3923,-0.8763 0.8763,-0.8763 h 7.2605 c 0.4839,0 0.8763,0.3923 0.8763,0.8763 0,0.4839 -0.3924,0.8763 -0.8763,0.8763 h -7.2605 c -0.484,0 -0.8763,-0.3924 -0.8763,-0.8763 z"
     fill="#000000"
     id="path6"
     style="opacity:1;fill:#f44336;fill-opacity:1" />
  <path
     d="m 30.37242,39.61 c 2.5698,0 4.6646,-2.0948 4.6646,-4.6646 0,-2.5698 -2.0948,-4.6646 -4.6646,-4.6646 -2.5699,0 -4.6647,2.0948 -4.6647,4.6646 0,2.5698 2.0948,4.6646 4.6647,4.6646 z m 0,-7.4291 c 1.5185,0 2.7567,1.2382 2.7567,2.7567 0,1.5185 -1.2382,2.7567 -2.7567,2.7567 -1.5186,0 -2.7568,-1.2304 -2.7568,-2.7567 0,-1.5185 1.2382,-2.7567 2.7568,-2.7567 z"
     fill="#000000"
     id="path8"
     style="opacity:1;fill:#f44336;fill-opacity:1" />
  <path
     d="m 21.32342,32.4767 c -0.8799,0 -1.5964,0.7165 -1.5964,1.5965 v 1.7443 c 0,0.88 0.7165,1.5964 1.5964,1.5964 h 0.7009 c 0.1713,0.5919 0.4049,1.1603 0.7009,1.6977 l -0.4984,0.4983 c -0.3037,0.3038 -0.4673,0.7009 -0.4673,1.1292 0,0.4283 0.1636,0.8255 0.4673,1.1292 l 1.2304,1.2304 c 0.3037,0.3037 0.7008,0.4672 1.1291,0.4672 0.4283,0 0.8255,-0.1635 1.1292,-0.4672 l 0.4984,-0.4984 c 0.5373,0.2959 1.1058,0.5295 1.6976,0.7008 v 0.7009 c 0,0.88 0.7165,1.5964 1.5964,1.5964 h 1.7444 c 0.88,0 1.5964,-0.7164 1.5964,-1.5964 v -0.7009 c 0.5918,-0.1713 1.1603,-0.4049 1.6976,-0.7008 l 0.4984,0.4984 c 0.3037,0.3037 0.7009,0.4672 1.1292,0.4672 0.4283,0 0.8254,-0.1635 1.1291,-0.4672 l 1.2304,-1.2304 c 0.623,-0.623 0.623,-1.6354 0,-2.2506 l -0.4983,-0.4984 c 0.2959,-0.5373 0.5295,-1.1058 0.7008,-1.6976 h 0.7009 c 0.8799,0 1.5964,-0.7164 1.5964,-1.5964 v -1.7444 c 0,-0.8799 -0.7165,-1.5964 -1.5964,-1.5964 h -0.7009 c -0.1713,-0.5918 -0.4049,-1.1603 -0.7008,-1.6976 l 0.4983,-0.4984 c 0.3037,-0.3037 0.4673,-0.7009 0.4673,-1.1292 0,-0.4283 -0.1636,-0.8254 -0.4673,-1.1291 l -1.2459,-1.2304 c -0.3037,-0.3037 -0.7009,-0.4673 -1.1292,-0.4673 -0.4283,0 -0.8254,0.1636 -1.1292,0.4673 l -0.4983,0.4984 c -0.5374,-0.2959 -1.1058,-0.5296 -1.6977,-0.7009 v -0.7008 c 0,-0.88 -0.7164,-1.5965 -1.5964,-1.5965 h -1.7443 c -0.88,0 -1.5965,0.7165 -1.5965,1.5965 v 0.7008 c -0.5918,0.1713 -1.1603,0.405 -1.6976,0.7009 l -0.4984,-0.4984 c -0.3037,-0.3037 -0.7008,-0.4673 -1.1291,-0.4673 -0.4283,0 -0.8255,0.1636 -1.1292,0.4673 l -1.2304,1.2304 c -0.3037,0.3037 -0.4672,0.7008 -0.4672,1.1291 0,0.4283 0.1635,0.8255 0.4672,1.1292 l 0.4984,0.4984 c -0.2959,0.5373 -0.5296,1.1058 -0.7009,1.6976 h -0.6853 z m 1.4485,1.9079 c 0.4516,0 0.8488,-0.3192 0.9345,-0.7709 0.1713,-0.88 0.5139,-1.7054 1.0123,-2.453 0.257,-0.3816 0.2025,-0.88 -0.1168,-1.207 l -0.8021,-0.8021 0.7865,-0.7866 0.8021,0.8021 c 0.3193,0.3193 0.8255,0.3738 1.2071,0.1168 0.7475,-0.4983 1.573,-0.841 2.453,-1.0123 0.4438,-0.0857 0.7709,-0.4828 0.7709,-0.9345 v -1.1369 h 1.1136 v 1.1369 c 0,0.4595 0.3193,0.8488 0.771,0.9345 0.8799,0.1713 1.7054,0.514 2.453,1.0123 0.3815,0.257 0.8799,0.2025 1.207,-0.1168 l 0.8021,-0.8021 0.7865,0.7866 -0.8021,0.8021 c -0.3193,0.3192 -0.3738,0.8254 -0.1168,1.207 0.4984,0.7476 0.841,1.573 1.0124,2.453 0.0856,0.4439 0.4828,0.7709 0.9344,0.7709 h 1.137 v 1.1136 h -1.137 c -0.4516,0 -0.8488,0.3193 -0.9344,0.771 -0.1714,0.8799 -0.514,1.7054 -1.0124,2.453 -0.257,0.3816 -0.2025,0.88 0.1168,1.207 l 0.8021,0.8021 -0.7865,0.7865 -0.8021,-0.8021 c -0.3193,-0.3192 -0.8255,-0.3737 -1.207,-0.1168 -0.7476,0.4984 -1.5731,0.8411 -2.453,1.0202 -0.4439,0.0856 -0.771,0.4828 -0.771,0.9345 v 1.1369 h -1.1136 v -1.1369 c 0,-0.4595 -0.3193,-0.8489 -0.7709,-0.9345 -0.88,-0.1713 -1.7055,-0.514 -2.453,-1.0202 -0.3816,-0.2492 -0.88,-0.2024 -1.2071,0.1168 l -0.8021,0.8021 -0.7865,-0.7865 0.8021,-0.8021 c 0.3193,-0.3193 0.3738,-0.8254 0.1168,-1.207 -0.4984,-0.7476 -0.841,-1.5731 -1.0123,-2.453 -0.0857,-0.4439 -0.4829,-0.771 -0.9345,-0.771 h -1.137 v -1.1136 z"
     fill="#000000"
     id="path10"
     style="opacity:1;fill:#f44336;fill-opacity:1" />
  <path
     d="m 0,13.562 v 22.0103 c 0,1.4172 1.15253,2.562 2.56204,2.562 h 13.53438 c 0.5295,0 0.9578,-0.4283 0.9578,-0.9579 0,-0.5295 -0.4283,-0.9578 -0.9578,-0.9578 H 2.56204 c -0.35822,0 -0.65414,-0.2959 -0.65414,-0.6541 V 18.9664 h 31.38482 v 1.869 c 0,0.5295 0.4283,0.9578 0.9579,0.9578 0.5295,0 0.9578,-0.4283 0.9578,-0.9578 V 13.562 c 0,-1.4173 -1.1525,-2.562 -2.562,-2.562 H 2.56204 C 1.14474,11 0,12.1447 0,13.562 Z m 33.29272,0 v 3.4965 H 1.9079 V 13.562 c 0,-0.3582 0.29592,-0.6541 0.65414,-0.6541 h 30.06878 c 0.366,0 0.6619,0.2881 0.6619,0.6541 z"
     fill="#000000"
     id="path12"
     style="opacity:1;fill:#f44336;fill-opacity:1" />
  <path
     d="m 4.71792,15.9294 c 0.2492,0 0.4984,-0.1012 0.6775,-0.2803 0.1791,-0.1791 0.2804,-0.4205 0.2804,-0.6775 0,-0.2492 -0.1013,-0.4984 -0.2804,-0.6775 -0.3582,-0.3504 -0.9968,-0.3504 -1.3472,0.0078 -0.1791,0.1791 -0.2803,0.4205 -0.2803,0.6697 0,0.2492 0.1012,0.4984 0.2803,0.6775 0.1713,0.1869 0.4205,0.2803 0.6697,0.2803 z"
     fill="#000000"
     id="path14"
     style="opacity:1;fill:#f44336;fill-opacity:1" />
</svg>
