<?xml version="1.0" encoding="UTF-8" standalone="no"?>
<svg
   xmlns:dc="http://purl.org/dc/elements/1.1/"
   xmlns:cc="http://creativecommons.org/ns#"
   xmlns:rdf="http://www.w3.org/1999/02/22-rdf-syntax-ns#"
   xmlns:svg="http://www.w3.org/2000/svg"
   xmlns="http://www.w3.org/2000/svg"
   xmlns:sodipodi="http://sodipodi.sourceforge.net/DTD/sodipodi-0.dtd"
   xmlns:inkscape="http://www.inkscape.org/namespaces/inkscape"
   width="49.413399"
   height="47"
   viewBox="0 0 49.413399 47"
   fill="none"
   version="1.1"
   id="svg22"
   sodipodi:docname="skill_1.svg"
   inkscape:version="1.0.1 (3bc2e813f5, 2020-09-07)">
  <metadata
     id="metadata28">
    <rdf:RDF>
      <cc:Work
         rdf:about="">
        <dc:format>image/svg+xml</dc:format>
        <dc:type
           rdf:resource="http://purl.org/dc/dcmitype/StillImage" />
      </cc:Work>
    </rdf:RDF>
  </metadata>
  <defs
     id="defs26" />
  <sodipodi:namedview
     pagecolor="#ffffff"
     bordercolor="#666666"
     borderopacity="1"
     objecttolerance="10"
     gridtolerance="10"
     guidetolerance="10"
     inkscape:pageopacity="0"
     inkscape:pageshadow="2"
     inkscape:window-width="2304"
     inkscape:window-height="1202"
     id="namedview24"
     showgrid="false"
     inkscape:zoom="18.666667"
     inkscape:cx="27"
     inkscape:cy="20"
     inkscape:window-x="-11"
     inkscape:window-y="191"
     inkscape:window-maximized="1"
     inkscape:current-layer="svg22"
     inkscape:document-rotation="0" />
  <rect
     opacity="0.1"
     y="9"
     width="38"
     height="38"
     fill="#00c2ff"
     id="rect2"
     style="opacity:0.493473"
     x="0" />
  <path
     d="m 12.5706,31.7021 c -0.6221,0 -1.1253,0.5032 -1.1253,1.1254 0,0.6221 0.5032,1.1253 1.1253,1.1253 h 9.5058 c 0.3568,0.7868 1.1436,1.3357 2.0585,1.3357 h 5.7273 c 0.9149,0 1.7017,-0.5489 2.0585,-1.3357 h 9.5058 c 0.6221,0 1.1253,-0.5032 1.1253,-1.1253 0,-0.6222 -0.5032,-1.1254 -1.1253,-1.1254 H 30.9966 c -0.6221,0 -1.1253,0.5032 -1.1253,1.1254 l -0.0091,0.2104 -5.7364,-0.0092 v -0.2012 c 0,-0.6222 -0.5032,-1.1254 -1.1253,-1.1254 z"
     fill="#000000"
     id="path4"
     style="opacity:0.8;fill:#f44336;fill-opacity:1" />
  <path
     d="M 21.0361,8.3174 H 10.759 c -1.61933,0 -2.94593,1.3174 -2.94593,2.9459 V 31.7021 H 5.69051 c -0.62213,0 -1.12532,0.5032 -1.12532,1.1253 V 34.95 c 0,2.3787 1.93958,4.3183 4.3183,4.3183 H 45.0951 c 2.3787,0 4.3183,-1.9396 4.3183,-4.3183 v -2.1226 c 0,-0.6221 -0.5032,-1.1253 -1.1253,-1.1253 h -2.1317 v -7.8159 c 0,-0.6222 -0.5032,-1.1254 -1.1254,-1.1254 -0.6221,0 -1.1253,0.5032 -1.1253,1.1254 v 8.9321 c 0,0.6221 0.5124,1.1253 1.1253,1.1253 h 2.1226 V 34.95 c 0,1.1436 -0.9332,2.0768 -2.0768,2.0768 H 8.89264 c -1.14362,0 -2.07681,-0.9332 -2.07681,-2.0768 v -1.0064 h 2.12256 c 0.62213,0 1.11621,-0.5032 1.11621,-1.1253 v -21.555 c 0,-0.3842 0.311,-0.7044 0.7044,-0.7044 h 10.2771 c 0.6221,0 1.1253,-0.5032 1.1253,-1.1253 -0.0091,-0.613 -0.5123,-1.1162 -1.1253,-1.1162 z"
     fill="#000000"
     id="path6"
     style="opacity:0.8;fill:#f44336;fill-opacity:1" />
  <path
     d="m 14.8438,26.1625 c -0.5213,0 -0.9438,-0.4225 -0.9438,-0.9437 0,-0.5213 0.4225,-0.9438 0.9437,-0.9438 h 9.2813 c 0.5212,0 0.9438,0.4225 0.9438,0.9438 0,0.5212 -0.4226,0.9437 -0.9438,0.9437 z"
     fill="#000000"
     stroke="#000000"
     stroke-width="0.2"
     id="path8"
     style="opacity:0.8;fill:#f44336;fill-opacity:1;stroke:none" />
  <path
     d="m 14.8438,21.975 c -0.5213,0 -0.9438,-0.4225 -0.9438,-0.9438 0,-0.5212 0.4225,-0.9437 0.9438,-0.9437 h 5.0624 c 0.5213,0 0.9438,0.4225 0.9438,0.9437 0,0.5213 -0.4225,0.9438 -0.9438,0.9438 z"
     fill="#000000"
     stroke="#000000"
     stroke-width="0.2"
     id="path10"
     style="opacity:0.8;fill:#f44336;fill-opacity:1;stroke:none" />
  <path
     d="M 14.8438,17.7875 C 14.3225,17.7875 13.9,17.365 13.9,16.8438 13.9,16.3225 14.3225,15.9 14.8438,15.9 h 3.75 c 0.5212,0 0.9437,0.4225 0.9437,0.9438 0,0.5212 -0.4225,0.9437 -0.9437,0.9437 z"
     fill="#000000"
     stroke="#000000"
     stroke-width="0.2"
     id="path12"
     style="opacity:0.8;fill:#f44336;fill-opacity:1;stroke:none" />
  <path
     fill-rule="evenodd"
     clip-rule="evenodd"
     d="m 36.9743,19.8792 c 4.9905,0 9.036,-4.0455 9.036,-9.036 0,-4.9904 -4.0455,-9.036 -9.036,-9.036 -4.9904,0 -9.036,4.0456 -9.036,9.036 0,4.9905 4.0456,9.036 9.036,9.036 z m 0,1.8072 c 5.9886,0 10.8432,-4.8546 10.8432,-10.8432 C 47.8175,4.8547 42.9629,0 36.9743,0 30.9858,0 26.1311,4.8547 26.1311,10.8432 c 0,5.9886 4.8547,10.8432 10.8432,10.8432 z"
     fill="#000000"
     id="path14"
     style="opacity:0.8;fill:#f44336;fill-opacity:1" />
  <path
     d="m 38.2,5.7 -4.5,4.5"
     stroke="#000000"
     stroke-width="2"
     stroke-linecap="round"
     stroke-linejoin="round"
     id="path16"
     style="opacity:0.8;fill:#f44336;fill-opacity:1;stroke:#f44336;stroke-opacity:1" />
  <path
     d="m 38.7,10.2 -2.5,2.5 3,3"
     stroke="#000000"
     stroke-width="2"
     stroke-linecap="round"
     stroke-linejoin="round"
     id="path18"
     style="opacity:0.8;stroke:#f44336;stroke-opacity:1" />
</svg>
