<?xml version="1.0" encoding="UTF-8" standalone="no"?>
<svg
   xmlns:dc="http://purl.org/dc/elements/1.1/"
   xmlns:cc="http://creativecommons.org/ns#"
   xmlns:rdf="http://www.w3.org/1999/02/22-rdf-syntax-ns#"
   xmlns:svg="http://www.w3.org/2000/svg"
   xmlns="http://www.w3.org/2000/svg"
   xmlns:sodipodi="http://sodipodi.sourceforge.net/DTD/sodipodi-0.dtd"
   xmlns:inkscape="http://www.inkscape.org/namespaces/inkscape"
   width="45"
   height="46.563301"
   viewBox="0 0 45 46.563301"
   fill="none"
   version="1.1"
   id="svg22"
   sodipodi:docname="ic_4.svg"
   inkscape:version="1.0.1 (3bc2e813f5, 2020-09-07)">
  <metadata
     id="metadata28">
    <rdf:RDF>
      <cc:Work
         rdf:about="">
        <dc:format>image/svg+xml</dc:format>
        <dc:type
           rdf:resource="http://purl.org/dc/dcmitype/StillImage" />
      </cc:Work>
    </rdf:RDF>
  </metadata>
  <defs
     id="defs26" />
  <sodipodi:namedview
     pagecolor="#ffffff"
     bordercolor="#666666"
     borderopacity="1"
     objecttolerance="10"
     gridtolerance="10"
     guidetolerance="10"
     inkscape:pageopacity="0"
     inkscape:pageshadow="2"
     inkscape:window-width="3440"
     inkscape:window-height="1346"
     id="namedview24"
     showgrid="false"
     inkscape:zoom="18.666667"
     inkscape:cx="27"
     inkscape:cy="26"
     inkscape:window-x="2293"
     inkscape:window-y="-11"
     inkscape:window-maximized="1"
     inkscape:current-layer="svg22" />
  <rect
     opacity="0.08"
     y="0"
     width="38"
     height="37.575401"
     fill="#00c2ff"
     id="rect18"
     x="0"
     style="opacity:0.496084" />
  <path
     d="m 43.6806,11.3612 v -0.521 c 0,-2.98324 -2.4286,-5.40343 -5.4034,-5.40343 H 15.7391 c -2.9832,0 -5.4034,2.4286 -5.4034,5.40343 v 0.521 c 0,1.7983 0.8908,3.395 2.2437,4.3782 -1.3613,0.9832 -2.2437,2.5799 -2.2437,4.3782 v 0.521 c 0,1.7984 0.8908,3.395 2.2437,4.3782 C 11.2181,26 10.3357,27.5967 10.3357,29.395 v 0.521 c 0,2.9833 2.4286,5.4035 5.4034,5.4035 h 22.5381 c 2.9832,0 5.4034,-2.4286 5.4034,-5.4035 v -0.521 c 0,-1.7983 -0.8907,-3.395 -2.2437,-4.3782 1.3614,-0.9832 2.2437,-2.5798 2.2437,-4.3782 v -0.521 c 0,-1.7983 -0.8907,-3.395 -2.2437,-4.3782 1.3614,-0.9832 2.2437,-2.5799 2.2437,-4.3782 z m -2.0588,18.0254 v 0.521 c 0,1.8488 -1.5042,3.3446 -3.3446,3.3446 H 15.7391 c -1.8487,0 -3.3446,-1.5042 -3.3446,-3.3446 v -0.521 c 0,-1.8487 1.5043,-3.3446 3.3446,-3.3446 h 22.5381 c 1.8488,0 3.3446,1.4959 3.3446,3.3446 z m 0,-9.269 v 0.521 c 0,1.8488 -1.5042,3.3446 -3.3446,3.3446 H 15.7391 c -1.8487,0 -3.3446,-1.5042 -3.3446,-3.3446 v -0.521 c 0,-1.8488 1.5043,-3.3446 3.3446,-3.3446 h 22.5381 c 1.8488,-0.0084 3.3446,1.4958 3.3446,3.3446 z m 0,-8.7564 c 0,1.8488 -1.5042,3.3446 -3.3446,3.3446 H 15.7391 c -1.8487,0 -3.3446,-1.5042 -3.3446,-3.3446 v -0.521 c 0,-1.84877 1.5043,-3.34458 3.3446,-3.34458 h 22.5381 c 1.8488,0 3.3446,1.50421 3.3446,3.34458 z"
     fill="#000000"
     id="path2"
     style="opacity:1;fill:#f44336;fill-opacity:1" />
  <path
     d="m 36.0419,10.0671 h -9.3615 c -0.5714,0 -1.0336,0.4622 -1.0336,1.0337 0,0.5714 0.4622,1.0336 1.0336,1.0336 h 9.3615 c 0.5714,0 1.0336,-0.4622 1.0336,-1.0336 0,-0.5715 -0.4622,-1.0337 -1.0336,-1.0337 z"
     fill="#000000"
     id="path4"
     style="opacity:1;fill:#f44336;fill-opacity:1" />
  <path
     d="m 19.0331,12.1594 c 0.5848,0 1.0589,-0.474 1.0589,-1.0588 0,-0.5848 -0.4741,-1.0589 -1.0589,-1.0589 -0.5847,0 -1.0588,0.4741 -1.0588,1.0589 0,0.5848 0.4741,1.0588 1.0588,1.0588 z"
     fill="#000000"
     id="path6"
     style="opacity:1;fill:#f44336;fill-opacity:1" />
  <path
     d="m 26.6804,21.4034 h 9.3615 c 0.5714,0 1.0336,-0.4622 1.0336,-1.0336 0,-0.5714 -0.4622,-1.0336 -1.0336,-1.0336 h -9.3615 c -0.5714,0 -1.0336,0.4622 -1.0336,1.0336 0,0.5714 0.4622,1.0336 1.0336,1.0336 z"
     fill="#000000"
     id="path8"
     style="opacity:1;fill:#f44336;fill-opacity:1" />
  <path
     d="m 19.0331,21.4285 c 0.5848,0 1.0589,-0.4741 1.0589,-1.0589 0,-0.5848 -0.4741,-1.0588 -1.0589,-1.0588 -0.5847,0 -1.0588,0.474 -1.0588,1.0588 0,0.5848 0.4741,1.0589 1.0588,1.0589 z"
     fill="#000000"
     id="path10"
     style="opacity:1;fill:#f44336;fill-opacity:1" />
  <path
     d="m 26.6804,30.6725 h 9.3615 c 0.5714,0 1.0336,-0.4622 1.0336,-1.0337 0,-0.5714 -0.4622,-1.0336 -1.0336,-1.0336 h -9.3615 c -0.5714,0 -1.0336,0.4622 -1.0336,1.0336 0,0.5715 0.4622,1.0337 1.0336,1.0337 z"
     fill="#000000"
     id="path12"
     style="opacity:1;fill:#f44336;fill-opacity:1" />
  <path
     d="m 19.0331,30.7061 c 0.5848,0 1.0589,-0.4741 1.0589,-1.0589 0,-0.5848 -0.4741,-1.0588 -1.0589,-1.0588 -0.5847,0 -1.0588,0.474 -1.0588,1.0588 0,0.5848 0.4741,1.0589 1.0588,1.0589 z"
     fill="#000000"
     id="path14"
     style="opacity:1;fill:#f44336;fill-opacity:1" />
  <path
     d="m 30.0923,44.3447 h 8.5715 c 0.4286,1.2858 1.6471,2.2186 3.0841,2.2186 1.7899,0 3.2521,-1.4622 3.2521,-3.2522 0,-1.7899 -1.4622,-3.2521 -3.2521,-3.2521 -1.437,0 -2.6471,0.9328 -3.0841,2.2185 H 30.0923 C 29.7729,41.3111 29.0082,40.5464 28.0418,40.227 v -2.1428 c 0,-0.5715 -0.4622,-1.0337 -1.0336,-1.0337 -0.5715,0 -1.0336,0.4622 -1.0336,1.0337 v 2.1428 c -0.9664,0.3194 -1.7312,1.0841 -2.0505,2.0505 h -8.5883 c -0.4286,-1.2857 -1.6471,-2.2185 -3.0841,-2.2185 -1.7899,0 -3.25213,1.4622 -3.25213,3.2521 0,1.79 1.46223,3.2522 3.25213,3.2522 1.437,0 2.6471,-0.9328 3.0841,-2.2186 h 8.5883 c 0.4286,1.2858 1.6471,2.2186 3.0841,2.2186 1.4286,0 2.6471,-0.9328 3.0841,-2.2186 z m 11.6556,-2.2185 c 0.6554,0 1.1932,0.5378 1.1932,1.1933 0,0.6555 -0.5378,1.1933 -1.1932,1.1933 -0.6555,0 -1.1933,-0.5378 -1.1933,-1.1933 0,-0.6639 0.5294,-1.1933 1.1933,-1.1933 z m -29.4962,2.3782 c -0.6555,0 -1.1933,-0.5378 -1.1933,-1.1933 0,-0.6555 0.5378,-1.1933 1.1933,-1.1933 0.6555,0 1.1933,0.5378 1.1933,1.1933 0,0.6639 -0.5294,1.1933 -1.1933,1.1933 z m 14.7565,0 c -0.6555,0 -1.1933,-0.5378 -1.1933,-1.1933 0,-0.6555 0.5378,-1.1933 1.1933,-1.1933 0.6555,0 1.1933,0.5378 1.1933,1.1933 0,0.6639 -0.5378,1.1933 -1.1933,1.1933 z"
     fill="#000000"
     id="path16"
     style="opacity:1;fill:#f44336;fill-opacity:1" />
</svg>
