<?xml version="1.0" encoding="UTF-8" standalone="no"?>
<svg
   xmlns:dc="http://purl.org/dc/elements/1.1/"
   xmlns:cc="http://creativecommons.org/ns#"
   xmlns:rdf="http://www.w3.org/1999/02/22-rdf-syntax-ns#"
   xmlns:svg="http://www.w3.org/2000/svg"
   xmlns="http://www.w3.org/2000/svg"
   xmlns:sodipodi="http://sodipodi.sourceforge.net/DTD/sodipodi-0.dtd"
   xmlns:inkscape="http://www.inkscape.org/namespaces/inkscape"
   width="47.999882"
   height="41.391899"
   viewBox="0 0 47.999882 41.391899"
   fill="none"
   version="1.1"
   id="svg14"
   sodipodi:docname="ic_3.svg"
   inkscape:version="1.0.1 (3bc2e813f5, 2020-09-07)">
  <metadata
     id="metadata20">
    <rdf:RDF>
      <cc:Work
         rdf:about="">
        <dc:format>image/svg+xml</dc:format>
        <dc:type
           rdf:resource="http://purl.org/dc/dcmitype/StillImage" />
      </cc:Work>
    </rdf:RDF>
  </metadata>
  <defs
     id="defs18" />
  <sodipodi:namedview
     pagecolor="#ffffff"
     bordercolor="#666666"
     borderopacity="1"
     objecttolerance="10"
     gridtolerance="10"
     guidetolerance="10"
     inkscape:pageopacity="0"
     inkscape:pageshadow="2"
     inkscape:window-width="3440"
     inkscape:window-height="1346"
     id="namedview16"
     showgrid="false"
     inkscape:zoom="18.666667"
     inkscape:cx="20.99988"
     inkscape:cy="22"
     inkscape:window-x="2293"
     inkscape:window-y="-11"
     inkscape:window-maximized="1"
     inkscape:current-layer="svg14" />
  <rect
     opacity="0.08"
     x="9.9998798"
     y="0"
     width="38"
     height="38"
     fill="#00c2ff"
     id="rect2"
     style="opacity:0.498695" />
  <path
     d="m 6.44108,35.3488 c 0,0.5879 0.4755,1.0634 1.0634,1.0634 h 8.8875 c 0.3372,0.7349 1.0721,1.2449 1.928,1.2449 h 5.3602 c 0.8559,0 1.5994,-0.51 1.928,-1.2449 h 8.8962 c 0.5879,0 1.0634,-0.4755 1.0634,-1.0634 0,-0.5879 -0.4755,-1.0634 -1.0634,-1.0634 h -9.7694 c -0.5879,0 -1.0634,0.4755 -1.0634,1.0634 v 0.1902 h -5.3602 v -0.1902 c 0,-0.5879 -0.4756,-1.0634 -1.0634,-1.0634 h -9.7522 c -0.5792,0.0086 -1.0547,0.4755 -1.0547,1.0634 z"
     fill="#000000"
     id="path4"
     style="opacity:1;fill:#f44336;fill-opacity:1" />
  <path
     d="m 40.93648,34.294 h -1.9798 V 15.1701 c 0,-0.5879 -0.4755,-1.0634 -1.0634,-1.0634 -0.5879,0 -1.0634,0.4755 -1.0634,1.0634 v 20.1786 c 0,0.5879 0.4842,1.0634 1.0634,1.0634 h 1.9712 v 0.9337 c 0,1.0721 -0.8646,1.9366 -1.9366,1.9366 H 4.05478 c -1.07208,0 -1.93663,-0.8645 -1.93663,-1.9366 v -0.9337 h 1.97113 c 0.5879,0 1.0634,-0.4755 1.0634,-1.0634 V 15.1701 c 0,-0.5879 -0.4755,-1.0634 -1.0634,-1.0634 -0.58785,0 -1.06335,0.4755 -1.06335,1.0634 V 34.2853 H 1.0634 C 0.47551,34.2853 0,34.7608 0,35.3487 v 1.9885 c 0,2.2392 1.81556,4.0547 4.05478,4.0547 h 33.8904 c 2.2392,0 4.0547,-1.8155 4.0547,-4.0547 v -1.9885 c 0,-0.5879 -0.4755,-1.0547 -1.0634,-1.0547 z"
     fill="#000000"
     id="path6"
     style="opacity:1;fill:#f44336;fill-opacity:1" />
  <path
     d="m 12.76938,30.2306 c 0.4236,0 0.8213,-0.1816 1.098,-0.5015 l 3.8213,-4.4178 h 13.6858 c 1.8156,0 3.3026,-1.4784 3.3026,-3.3026 V 5.9107 c 0,-1.81552 -1.4784,-3.30255 -3.3026,-3.30255 h -20.7233 c -1.8155,0 -3.3025,1.47839 -3.3025,3.30255 v 16.098 c 0,1.8155 1.4783,3.3026 3.3025,3.3026 h 0.6485 v 3.4668 c 0.0086,0.7954 0.657,1.4525 1.4697,1.4525 z m -2.1182,-7.0461 c -0.6484,0 -1.1844,-0.5274 -1.1844,-1.1845 V 5.9107 c 0,-0.6484 0.5274,-1.1844 1.1844,-1.1844 h 20.7233 c 0.6485,0 1.1845,0.5274 1.1845,1.1844 v 16.098 c 0,0.6484 -0.5274,1.1844 -1.1845,1.1844 h -14.17 c -0.3112,0 -0.5965,0.1297 -0.804,0.3631 l -2.974,3.4409 v -2.7492 c 0,-0.5879 -0.4756,-1.0634 -1.0634,-1.0634 z"
     fill="#000000"
     id="path8"
     style="opacity:1;fill:#f44336;fill-opacity:1" />
  <path
     d="m 14.46398,13.7175 2.1527,1.8156 -0.6743,2.732 c -0.1297,0.536 -0.0173,1.0893 0.3285,1.5216 0.5447,0.6916 1.5994,0.8905 2.3516,0.4236 l 2.3861,-1.487 2.3862,1.487 c 0.2853,0.1816 0.6138,0.268 0.9424,0.268 0.5446,0 1.072,-0.2593 1.4092,-0.6916 0.3371,-0.4323 0.4582,-0.9856 0.3285,-1.5216 l -0.6743,-2.732 2.1527,-1.8156 c 0.5619,-0.4668 0.7694,-1.2276 0.5447,-1.9193 -0.2248,-0.6916 -0.8387,-1.1758 -1.5735,-1.2276 l -2.8012,-0.2075 -1.0634,-2.6023 c -0.2766,-0.6744 -0.925,-1.1153 -1.6513,-1.1153 -0.7262,0 -1.3833,0.4409 -1.6513,1.1153 l -1.0634,2.6023 -2.8011,0.2075 c -0.7262,0.0518 -1.3487,0.536 -1.5735,1.2276 -0.2248,0.7003 -0.0086,1.4525 0.5447,1.9193 z m 4.6426,-1.2795 c 0.3977,-0.0259 0.7522,-0.2853 0.9078,-0.6571 l 1.0029,-2.4639 1.0029,2.4639 c 0.1556,0.3718 0.5014,0.6312 0.9077,0.6571 l 2.6542,0.1902 -2.0317,1.7118 c -0.3112,0.2594 -0.4409,0.6744 -0.3458,1.0634 l 0.6398,2.5764 -2.2565,-1.4006 c -0.3458,-0.2161 -0.7781,-0.2161 -1.1153,0 l -2.2565,1.4006 0.6398,-2.5764 c 0.0951,-0.389 -0.0346,-0.804 -0.3458,-1.0634 l -2.0317,-1.7118 z"
     fill="#000000"
     id="path10"
     style="opacity:1;fill:#f44336;fill-opacity:1" />
</svg>
