<?xml version="1.0" encoding="UTF-8" standalone="no"?>
<svg
   xmlns:dc="http://purl.org/dc/elements/1.1/"
   xmlns:cc="http://creativecommons.org/ns#"
   xmlns:rdf="http://www.w3.org/1999/02/22-rdf-syntax-ns#"
   xmlns:svg="http://www.w3.org/2000/svg"
   xmlns="http://www.w3.org/2000/svg"
   xmlns:sodipodi="http://sodipodi.sourceforge.net/DTD/sodipodi-0.dtd"
   xmlns:inkscape="http://www.inkscape.org/namespaces/inkscape"
   width="49.289669"
   height="45"
   viewBox="0 0 49.289669 45"
   fill="none"
   version="1.1"
   id="svg29"
   sodipodi:docname="skill_0.svg"
   inkscape:version="1.0.1 (3bc2e813f5, 2020-09-07)">
  <metadata
     id="metadata33">
    <rdf:RDF>
      <cc:Work
         rdf:about="">
        <dc:format>image/svg+xml</dc:format>
        <dc:type
           rdf:resource="http://purl.org/dc/dcmitype/StillImage" />
      </cc:Work>
    </rdf:RDF>
  </metadata>
  <sodipodi:namedview
     pagecolor="#ffffff"
     bordercolor="#666666"
     borderopacity="1"
     objecttolerance="10"
     gridtolerance="10"
     guidetolerance="10"
     inkscape:pageopacity="0"
     inkscape:pageshadow="2"
     inkscape:window-width="2304"
     inkscape:window-height="1202"
     id="namedview31"
     showgrid="false"
     inkscape:zoom="18.327273"
     inkscape:cx="9.326673"
     inkscape:cy="20.668206"
     inkscape:window-x="-11"
     inkscape:window-y="191"
     inkscape:window-maximized="1"
     inkscape:current-layer="g22"
     inkscape:document-rotation="0" />
  <g
     clip-path="url(#clip0)"
     id="g22"
     transform="translate(-4.71033,-9.6855004)">
    <rect
       opacity="0.1"
       x="16"
       y="16.685499"
       width="38"
       height="38"
       fill="#00C2FF"
       id="rect2"
       style="opacity:0.490862;fill:#54dfe7;fill-opacity:1" />
    <path
       d="m 41.5985,39.778 h -29.352 c -0.3463,0 -0.6288,-0.2825 -0.6288,-0.6288 V 16.3674 c 0,-0.6196 -0.5012,-1.1208 -1.1209,-1.1208 -0.61964,0 -1.11173,0.5012 -1.11173,1.1208 v 22.7818 c 0,1.5765 1.28493,2.8614 2.86143,2.8614 h 29.352 c 0.6197,0 1.1209,-0.5012 1.1209,-1.1208 0,-0.6197 -0.5012,-1.1118 -1.1209,-1.1118 z"
       fill="#000000"
       id="path4"
       style="opacity:1;fill:#f44336;fill-opacity:1" />
    <path
       d="M 36.9238,44.4538 H 7.58083 c -0.34628,0 -0.62877,-0.2825 -0.62877,-0.6288 V 21.0432 c 0,-0.6196 -0.5012,-1.1208 -1.12087,-1.1208 -0.61966,0 -1.12086,0.5012 -1.12086,1.1208 V 43.825 c 0,1.5765 1.28489,2.8614 2.86139,2.8614 H 36.9238 c 0.6197,0 1.1209,-0.5012 1.1209,-1.1208 0,-0.6197 -0.5012,-1.1118 -1.1209,-1.1118 z"
       fill="#000000"
       id="path6"
       style="opacity:1;fill:#f44336;fill-opacity:1" />
    <rect
       x="15.0499"
       y="10.7355"
       width="32.900002"
       height="25.9"
       rx="1.95"
       stroke="#000000"
       stroke-width="2.1"
       stroke-linecap="round"
       stroke-linejoin="round"
       id="rect8"
       style="opacity:1;fill:none;fill-opacity:1;stroke:#f44336;stroke-opacity:1" />
    <path
       d="m 19.8749,14.5855 c -0.5384,0 -0.975,0.4366 -0.975,0.975 0,0.5385 0.4366,0.975 0.975,0.975 h 12.625 c 0.5385,0 0.975,-0.4365 0.975,-0.975 0,-0.5384 -0.4365,-0.975 -0.975,-0.975 z"
       fill="#000000"
       stroke="#000000"
       stroke-width="0.2"
       id="path10"
       style="opacity:1;fill:#f44336;fill-opacity:1;stroke:none" />
    <path
       d="m 19.8749,18.8355 c -0.5384,0 -0.975,0.4366 -0.975,0.975 0,0.5385 0.4366,0.975 0.975,0.975 h 7.25 c 0.5385,0 0.975,-0.4365 0.975,-0.975 0,-0.5384 -0.4365,-0.975 -0.975,-0.975 z"
       fill="#000000"
       stroke="#000000"
       stroke-width="0.2"
       id="path12"
       style="opacity:1;fill:#f44336;fill-opacity:1;stroke:none" />
    <path
       d="m 27.9219,27.4982 c -0.0293,0.0365 -0.0293,0.0884 0,0.1249 l 2.9059,3.6325 c 0.2573,0.3216 0.7267,0.3738 1.0483,0.1164 0.3216,-0.2573 0.3738,-0.7266 0.1165,-1.0482 l -2.2105,-2.7632 2.2105,-2.7631 c 0.2573,-0.3216 0.2051,-0.7909 -0.1165,-1.0483 -0.3216,-0.2573 -0.791,-0.2051 -1.0483,0.1165 z"
       fill="#000000"
       stroke="#000000"
       stroke-width="0.2"
       stroke-linecap="round"
       stroke-linejoin="round"
       id="path14"
       style="opacity:1;fill:#f44336;fill-opacity:1;stroke:none" />
    <path
       d="m 42.6482,27.6229 c 0.0292,-0.0365 0.0292,-0.0884 0,-0.1249 l -2.9059,-3.6325 c -0.2574,-0.3216 -0.7267,-0.3738 -1.0483,-0.1164 -0.3217,0.2573 -0.3738,0.7266 -0.1165,1.0482 l 2.2105,2.7632 -2.2105,2.7631 c -0.2573,0.3216 -0.2052,0.7909 0.1165,1.0483 0.3216,0.2573 0.7909,0.2051 1.0483,-0.1165 z"
       fill="#000000"
       stroke="#000000"
       stroke-width="0.2"
       stroke-linecap="round"
       stroke-linejoin="round"
       id="path16"
       style="opacity:1;fill:#f44336;fill-opacity:1;stroke:none" />
    <path
       d="m 37.2689,24.6085 c 0.153,-0.3824 -0.033,-0.8165 -0.4154,-0.9694 -0.3825,-0.153 -0.8165,0.033 -0.9695,0.4154 l -2.5832,6.4581 c -0.153,0.3824 0.033,0.8165 0.4155,0.9694 0.3824,0.153 0.8165,-0.033 0.9694,-0.4154 z"
       fill="#000000"
       stroke="#000000"
       stroke-width="0.2"
       stroke-linecap="round"
       id="path18"
       style="opacity:1;fill:#f44336;fill-opacity:1;stroke:none" />
    <path
       style="fill:#ff0000;stroke-width:0.0545635"
       d=""
       id="path43" />
    <path
       style="fill:#ff0000;stroke-width:0.0545635"
       d=""
       id="path45" />
  </g>
  <defs
     id="defs27">
    <clipPath
       id="clip0">
      <rect
         width="54"
         height="54"
         fill="#ffffff"
         transform="translate(0,0.685547)"
         id="rect24"
         x="0"
         y="0" />
    </clipPath>
  </defs>
</svg>
