<?xml version="1.0" encoding="UTF-8" standalone="no"?>
<svg
   xmlns:dc="http://purl.org/dc/elements/1.1/"
   xmlns:cc="http://creativecommons.org/ns#"
   xmlns:rdf="http://www.w3.org/1999/02/22-rdf-syntax-ns#"
   xmlns:svg="http://www.w3.org/2000/svg"
   xmlns="http://www.w3.org/2000/svg"
   width="46.075001"
   height="48.137501"
   viewBox="0 0 46.075001 48.137501"
   fill="none"
   version="1.1"
   id="svg32">
  <metadata
     id="metadata36">
    <rdf:RDF>
      <cc:Work
         rdf:about="">
        <dc:format>image/svg+xml</dc:format>
        <dc:type
           rdf:resource="http://purl.org/dc/dcmitype/StillImage" />
        <dc:title></dc:title>
      </cc:Work>
    </rdf:RDF>
  </metadata>
  <rect
     opacity="0.1"
     x="8.0749998"
     y="10.1375"
     width="38"
     height="38"
     fill="#00c2ff"
     id="rect2"
     style="opacity:0.498695" />
  <path
     d="m 7.7938,38.9125 c -0.5213,0 -0.9438,0.4225 -0.9438,0.9438 0,0.5212 0.4225,0.9437 0.9438,0.9437 h 11.8124 c 0.5213,0 0.9438,-0.4225 0.9438,-0.9437 0,-0.5213 -0.4225,-0.9438 -0.9438,-0.9438 z"
     fill="#000000"
     stroke="#000000"
     stroke-width="0.2"
     id="path4"
     style="opacity:1;fill:#f44336;fill-opacity:1;stroke:none" />
  <path
     d="m 5.2625,10.0375 c -0.5212,0 -0.9438,0.4225 -0.9438,0.9438 0,0.5212 0.4226,0.9437 0.9438,0.9437 h 9.2813 c 0.5212,0 0.9437,-0.4225 0.9437,-0.9437 0,-0.5213 -0.4225,-0.9438 -0.9437,-0.9438 z"
     fill="#000000"
     stroke="#000000"
     stroke-width="0.2"
     id="path6"
     style="opacity:1;fill:#f44336;fill-opacity:1;stroke:none" />
  <path
     d="m 5.2625,14.225 c -0.5212,0 -0.9438,0.4225 -0.9438,0.9437 0,0.5213 0.4226,0.9438 0.9438,0.9438 h 5.0625 c 0.5212,0 0.9437,-0.4225 0.9437,-0.9438 0,-0.5212 -0.4225,-0.9437 -0.9437,-0.9437 z"
     fill="#000000"
     stroke="#000000"
     stroke-width="0.2"
     id="path8"
     style="opacity:1;fill:#f44336;fill-opacity:1;stroke:none" />
  <path
     d="m 5.2625,18.4125 c -0.5212,0 -0.9438,0.4225 -0.9438,0.9438 0,0.5212 0.4226,0.9437 0.9438,0.9437 h 3.75 c 0.5212,0 0.9437,-0.4225 0.9437,-0.9437 0,-0.5213 -0.4225,-0.9438 -0.9437,-0.9438 z"
     fill="#000000"
     stroke="#000000"
     stroke-width="0.2"
     id="path10"
     style="opacity:1;fill:#f44336;fill-opacity:1;stroke:none" />
  <path
     fill-rule="evenodd"
     clip-rule="evenodd"
     d="m 3.575,1.8875 h 20.25 c 0.932,0 1.6875,0.75552 1.6875,1.6875 H 21.149 c -0.6713,0 -1.3152,0.26668 -1.7899,0.7414 l -0.699,0.699 C 18.5019,5.1736 18.2873,5.2625 18.0635,5.2625 H 9.3365 C 9.1127,5.2625 8.8981,5.1736 8.7399,5.0154 L 8.0409,4.3164 C 7.5662,3.84168 6.9223,3.575 6.251,3.575 H 1.8875 C 1.8875,2.64302 2.643,1.8875 3.575,1.8875 Z M 27.2,3.575 v 0.8437 5.7188 H 25.5125 V 5.2625 H 21.149 c -0.2238,0 -0.4384,0.0889 -0.5966,0.2471 l -0.699,0.699 C 19.3787,6.6833 18.7348,6.95 18.0635,6.95 H 9.3365 C 8.6652,6.95 8.0213,6.6833 7.5466,6.2086 L 6.8476,5.5096 C 6.6894,5.3514 6.4748,5.2625 6.251,5.2625 H 1.8875 V 40.7 c 0,0.932 0.7555,1.6875 1.6875,1.6875 h 20.25 c 0.932,0 1.6875,-0.7555 1.6875,-1.6875 V 40.1375 H 27.2 V 40.7 c 0,1.864 -1.511,3.375 -3.375,3.375 H 3.575 C 1.71104,44.075 0.2,42.564 0.2,40.7 V 4.4187 3.575 C 0.2,1.71104 1.71104,0.2 3.575,0.2 h 20.25 c 1.864,0 3.375,1.51104 3.375,3.375 z m -0.8438,7.5625 c 0.466,0 0.8438,-0.3778 0.8438,-0.8438 h -1.6875 c 0,0.466 0.3778,0.8438 0.8437,0.8438 z m 0,28.0312 c -0.4659,0 -0.8437,0.3778 -0.8437,0.8438 H 27.2 c 0,-0.466 -0.3778,-0.8438 -0.8438,-0.8438 z"
     fill="#000000"
     id="path17"
     style="opacity:1;fill:#f44336;fill-opacity:1;stroke:none;stroke-opacity:1" />
  <path
     d="m 33.4375,9.4375 v 0.2 h 0.2 v -0.2 z m -6.1534,0.7414 0.1414,0.1414 z m -10.6192,0.699 -0.1415,0.1414 z m -0.699,-0.699 0.1414,-0.1414 z M 14.176,9.4375 v 0.2 z m -4.3635,0 h -0.2 v 0.2 h 0.2 z M 35.125,16 v 0.2 h 0.2 V 16 Z m -1.6875,0 h -0.2 v 0.2 h 0.2 z m 0,-4.875 h 0.2 v -0.2 h -0.2 z m -5.6591,0.9461 -0.1414,-0.1414 z m -12.3068,0 0.1414,-0.1414 z m -0.699,-0.699 -0.1414,0.1415 v 0 z M 9.8125,11.125 v -0.2 h -0.2 v 0.2 z M 33.4375,46 v -0.2 h -0.2 V 46 Z m 1.6875,0 h 0.2 v -0.2 h -0.2 z m 0,-29.8438 h 0.2 v -0.1999 h -0.2 z m -1.6875,0 v -0.1999 h -0.2 v 0.1999 z m 0,29.7188 h -0.2 v 0.2 h 0.2 z m 1.6875,0 v 0.2 h 0.2 v -0.2 z M 31.75,7.55 H 11.5 v 0.4 h 20.25 z m 1.8875,1.8875 C 33.6375,8.39506 32.7924,7.55 31.75,7.55 v 0.4 c 0.8215,0 1.4875,0.66598 1.4875,1.4875 z m -4.5635,0.2 h 4.3635 v -0.4 H 29.074 Z m -1.6485,0.6828 C 27.8627,9.88311 28.4557,9.6375 29.074,9.6375 v -0.4 c -0.7244,0 -1.4191,0.28775 -1.9313,0.8 z m -0.6989,0.699 0.6989,-0.699 -0.2828,-0.2828 -0.699,0.699 z m -0.7381,0.3057 c 0.2768,0 0.5423,-0.11 0.7381,-0.3057 l -0.2829,-0.2828 c -0.1207,0.1207 -0.2845,0.1885 -0.4552,0.1885 z m -8.727,0 h 8.727 v -0.4 h -8.727 z m -0.7381,-0.3057 c 0.1958,0.1957 0.4613,0.3057 0.7381,0.3057 v -0.4 c -0.1707,0 -0.3345,-0.0678 -0.4552,-0.1885 z m -0.6989,-0.699 0.6989,0.699 0.2829,-0.2828 -0.699,-0.699 z M 14.176,9.6375 c 0.6183,0 1.2113,0.24561 1.6485,0.6828 l 0.2828,-0.2828 c -0.5122,-0.51224 -1.2069,-0.8 -1.9313,-0.8 z m -4.3635,0 h 4.3635 v -0.4 H 9.8125 Z M 11.5,7.55 c -1.0424,0 -1.8875,0.84506 -1.8875,1.8875 h 0.4 C 10.0125,8.61598 10.6785,7.95 11.5,7.95 Z m 23.825,2.7312 V 9.4375 h -0.4 v 0.8437 z m 0,5.7188 v -5.7188 h -0.4 V 16 Z m -1.8875,0.2 h 1.6875 v -0.4 h -1.6875 z m -0.2,-5.075 V 16 h 0.4 v -4.875 z m -4.1635,0.2 h 4.3635 v -0.4 H 29.074 Z m -0.4552,0.1885 c 0.1207,-0.1207 0.2845,-0.1885 0.4552,-0.1885 v -0.4 c -0.2768,0 -0.5423,0.11 -0.7381,0.3057 z m -0.699,0.699 0.699,-0.699 -0.2829,-0.2828 -0.6989,0.699 z m -1.9313,0.8 c 0.7244,0 1.4191,-0.2878 1.9313,-0.8 L 27.637,11.9297 c -0.4372,0.4372 -1.0302,0.6828 -1.6485,0.6828 z m -8.727,0 h 8.727 v -0.4 h -8.727 z m -1.9313,-0.8 c 0.5122,0.5122 1.2069,0.8 1.9313,0.8 v -0.4 c -0.6183,0 -1.2113,-0.2456 -1.6485,-0.6828 z m -0.699,-0.6989 0.699,0.6989 0.2828,-0.2828 -0.6989,-0.699 z M 14.176,11.325 c 0.1707,0 0.3345,0.0678 0.4552,0.1886 l 0.2829,-0.2829 C 14.7183,11.035 14.4528,10.925 14.176,10.925 Z m -4.3635,0 h 4.3635 v -0.4 H 9.8125 Z m 0.2,35.2375 V 11.125 h -0.4 V 46.5625 Z M 11.5,48.05 c -0.8215,0 -1.4875,-0.666 -1.4875,-1.4875 h -0.4 c 0,1.0424 0.8451,1.8875 1.8875,1.8875 z m 20.25,0 H 11.5 v 0.4 h 20.25 z m 1.4875,-1.4875 c 0,0.8215 -0.666,1.4875 -1.4875,1.4875 v 0.4 c 1.0424,0 1.8875,-0.8451 1.8875,-1.8875 z m 0,-0.5625 v 0.5625 h 0.4 V 46 Z m 1.8875,-0.2 h -1.6875 v 0.4 h 1.6875 z m 0.2,0.7625 V 46 h -0.4 v 0.5625 z m -3.575,3.575 c 1.9744,0 3.575,-1.6006 3.575,-3.575 h -0.4 c 0,1.7535 -1.4215,3.175 -3.175,3.175 z m -20.25,0 h 20.25 v -0.4 H 11.5 Z m -3.575,-3.575 c 0,1.9744 1.60058,3.575 3.575,3.575 v -0.4 c -1.7535,0 -3.175,-1.4215 -3.175,-3.175 z m 0,-36.2813 v 36.2813 h 0.4 V 10.2812 Z m 0,-0.8437 v 0.8437 h 0.4 V 9.4375 Z M 11.5,5.8625 c -1.97442,0 -3.575,1.60058 -3.575,3.575 h 0.4 c 0,-1.7535 1.4215,-3.175 3.175,-3.175 z m 20.25,0 H 11.5 v 0.4 h 20.25 z m 3.575,3.575 c 0,-1.97442 -1.6006,-3.575 -3.575,-3.575 v 0.4 c 1.7535,0 3.175,1.4215 3.175,3.175 z m -0.4,6.7187 c 0,0.3556 -0.2882,0.6438 -0.6438,0.6438 v 0.4 c 0.5765,0 1.0438,-0.4673 1.0438,-1.0438 z m -1.4875,0.2 H 35.125 V 15.9563 H 33.4375 Z M 34.2812,16.8 c -0.3555,0 -0.6437,-0.2882 -0.6437,-0.6438 h -0.4 c 0,0.5765 0.4673,1.0438 1.0437,1.0438 z m -0.6437,29.075 c 0,-0.3555 0.2882,-0.6437 0.6437,-0.6437 v -0.4001 c -0.5764,0 -1.0437,0.4673 -1.0437,1.0438 z m 1.4875,-0.2 h -1.6875 v 0.4 h 1.6875 z m -0.8438,-0.4437 c 0.3556,0 0.6438,0.2882 0.6438,0.6437 h 0.4 c 0,-0.5765 -0.4673,-1.0438 -1.0438,-1.0438 z"
     fill="#000000"
     mask="url(#path-6-outside-1)"
     id="path19"
     style="opacity:0.8;fill:#f44336;fill-opacity:1;stroke:none"
     transform="translate(-7.925,-5.8625)" />
  <g
     clip-path="url(#clip0)"
     id="g23"
     style="opacity:1;fill:#f44336;fill-opacity:1;stroke:none"
     transform="translate(-7.925,-5.8625)">
    <path
       d="M 29.0596,35.5156 28.949,35.4143 c 0.3447,-0.3765 0.9293,-0.4023 1.3057,-0.0576 0.3765,0.3447 0.4023,0.9293 0.0576,1.3058 l -3.2509,3.5509 -0.1106,-0.1013 0.1106,0.1013 c -0.3447,0.3765 -0.9293,0.4023 -1.3058,0.0576 0,0 0,0 0,0 m 3.304,-4.7554 -3.304,4.7554 m 3.304,-4.7554 -0.1106,-0.1013 -3.2509,3.5509 c -0.3448,0.3765 -0.319,0.9612 0.0575,1.3058 m 3.304,-4.7554 -3.304,4.7554 M 46.1054,17.2642 h -1e-4 L 45.5404,17.187 c -2.4276,-0.3315 -4.9114,-0.0237 -7.1829,0.8904 -2.9196,1.175 -4.8016,2.9722 -6.4206,5.1571 l -0.8194,-0.2414 c 0,-10e-5 0,-10e-5 0,-10e-5 -1.5452,-0.4555 -3.2151,-0.0331 -4.3581,1.102 l -2.7479,2.7287 c -1.422,1.412 -0.4023,3.8432 1.6023,3.8172 l 2.3697,-0.0306 c -0.044,0.7836 0.2596,1.5663 0.8629,2.1186 l 4.15,3.7994 c 0.5841,0.5348 1.3843,0.7903 2.1864,0.6733 l 0.1781,2.363 c 0.1511,2.0053 2.6667,2.7953 3.9435,1.2599 l 2.4762,-2.9774 c 1.03,-1.2385 1.3036,-2.9392 0.714,-4.4382 l -0.3127,-0.795 c 1.9813,-1.7579 3.6359,-3.7637 4.5717,-6.8497 l -0.1435,-0.0435 0.1435,0.0435 c 0.7106,-2.3433 0.7986,-4.8446 0.2544,-7.2335 l -0.1265,-0.556 -0.1463,0.0333 0.1463,-0.0333 C 46.796,17.5993 46.4868,17.3163 46.1054,17.2642 Z m -20.7915,10.8711 2.7478,-2.7287 c 0,0 0,0 0,0 0.6644,-0.6597 1.6351,-0.9052 2.5332,-0.6405 l 0.2304,0.0679 c -0.7936,1.2166 -1.5344,2.5278 -2.1945,3.9193 l -3.041,0.0393 C 25.2427,28.7971 25.0674,28.38 25.3139,28.1353 Z m 11.6616,8.2578 c 1.2933,-0.7598 2.5336,-1.6056 3.7109,-2.5312 l 0.0879,0.2235 c 0,0 0,0 0,0 0.3427,0.8714 0.1837,1.8598 -0.415,2.5797 l -2.4762,2.9775 v 0 c -0.2219,0.2669 -0.6529,0.1294 -0.679,-0.217 z m -5.7811,-8.5895 0.0034,-0.0066 c 0.8337,-1.5064 1.7636,-2.8998 2.8166,-4.2379 2.6031,-3.2991 6.8338,-5.1083 11.2064,-4.5497 0.9161,4.1906 -0.382,8.5902 -3.6164,11.6302 -1.9297,1.8088 -4.0877,3.3704 -6.4142,4.6415 -0.3027,0.1654 -0.6776,0.1221 -0.9365,-0.108 -0.002,-0.0022 -0.0035,-0.0038 -0.0041,-0.0044 l -2e-4,-2e-4 -0.0073,-0.0072 C 34.2338,35.1533 34.2177,35.1384 34.1873,35.1105 34.127,35.055 34.0052,34.9436 33.7606,34.72 l -0.0189,-0.0173 c -0.5146,-0.4705 -1.5533,-1.4203 -3.6472,-3.3373 -0.2592,-0.2372 -0.3388,-0.6118 -0.199,-0.9317 0.1791,-0.4101 0.3678,-0.816 0.5643,-1.218 l 0.0034,-0.0066 0.0043,-0.0083 0.0043,-0.0082 0.0042,-0.0081 0.0042,-0.008 0.0041,-0.008 0.0041,-0.0079 0.0041,-0.0078 0.0041,-0.0078 0.004,-0.0078 0.004,-0.0076 0.0039,-0.0076 0.004,-0.0076 0.0038,-0.0074 0.0039,-0.0074 0.0038,-0.0074 0.0038,-0.0073 0.0038,-0.0072 0.0037,-0.0072 0.0037,-0.0071 0.0037,-0.0071 0.0036,-0.007 0.0036,-0.0069 0.0036,-0.0069 0.0035,-0.0068 0.0036,-0.0067 0.0034,-0.0067 0.0035,-0.0067 0.0034,-0.0065 0.0034,-0.0066 0.0034,-0.0064 0.0033,-0.0064 0.0033,-0.0064 0.0033,-0.0063 0.0032,-0.0062 0.0032,-0.0062 0.0032,-0.0061 0.0032,-0.0061 0.0031,-0.006 0.0031,-0.006 0.0031,-0.0059 0.003,-0.0058 0.0031,-0.0058 0.0029,-0.0058 0.003,-0.0056 0.0029,-0.0057 0.0029,-0.0056 0.0029,-0.0055 0.0029,-0.0055 0.0028,-0.0054 0.0028,-0.0054 0.0027,-0.0053 0.0028,-0.0052 0.0027,-0.0052 0.0027,-0.0052 0.0026,-0.0051 0.0027,-0.0051 0.0026,-0.005 0.0025,-0.005 0.0026,-0.0049 0.0025,-0.0048 0.0025,-0.0048 0.0025,-0.0048 0.0025,-0.0047 0.0024,-0.0047 0.0024,-0.0046 0.0024,-0.0045 0.0023,-0.0046 0.0023,-0.0044 0.0023,-0.0045 0.0023,-0.0043 0.0023,-0.0044 0.0022,-0.0042 0.0022,-0.0043 0.0022,-0.0042 0.0021,-0.0041 0.0022,-0.0041 0.0021,-0.004 0.002,-0.0041 0.0021,-0.0039 0.002,-0.0039 0.0021,-0.0039 0.002,-0.0038 0.0019,-0.0038 0.002,-0.0038 0.0019,-0.0036 0.0019,-0.0037 0.0019,-0.0036 0.0018,-0.0036 0.0019,-0.0035 0.0018,-0.0035 0.0018,-0.0034 0.0017,-0.0034 0.0018,-0.0034 0.0017,-0.0033 0.0017,-0.0033 0.0017,-0.0032 0.0016,-0.0032 0.0017,-0.0032 0.0016,-0.0031 0.0016,-0.003 0.0016,-0.0031 0.0015,-0.003 0.0016,-0.0029 0.0015,-0.0029 0.0015,-0.0029 0.0015,-0.0029 0.0014,-0.0028 0.0015,-0.0027 0.0014,-0.0028 0.0014,-0.0027 0.0014,-0.0026 0.0013,-0.0026 0.0014,-0.0026 0.0013,-0.0026 0.0013,-0.0025 0.0013,-0.0024 0.0013,-0.0025 0.0012,-0.0024 0.0012,-0.0024 0.0013,-0.0023 0.0012,-0.0023 0.0011,-0.0023 0.0012,-0.0022 0.0011,-0.0022 0.0012,-0.0022 0.0011,-0.0021 0.0011,-0.0021 0.001,-0.002 0.0011,-0.0021 10e-4,-0.002 0.0011,-0.002 0.001,-0.0019 10e-4,-0.0019 9e-4,-0.0019 0.001,-0.0018 10e-4,-0.0018 9e-4,-0.0018 9e-4,-0.0018 9e-4,-0.0017 9e-4,-0.0017 8e-4,-0.0017 9e-4,-0.0016 8e-4,-0.0016 9e-4,-0.0016 8e-4,-0.0016 8e-4,-0.0015 7e-4,-0.0015 8e-4,-0.0014 7e-4,-0.0015 8e-4,-0.0014 7e-4,-0.0014 7e-4,-0.0013 7e-4,-0.0014 7e-4,-0.0013 7e-4,-0.0013 6e-4,-0.0012 7e-4,-0.0013 6e-4,-0.0012 6e-4,-0.0012 6e-4,-0.0011 6e-4,-0.0012 6e-4,-0.0011 5e-4,-0.0011 6e-4,-0.001 5e-4,-0.0011 6e-4,-10e-4 5e-4,-0.001 5e-4,-0.001 5e-4,-9e-4 5e-4,-9e-4 4e-4,-9e-4 5e-4,-9e-4 4e-4,-9e-4 5e-4,-8e-4 4e-4,-9e-4 4e-4,-8e-4 4e-4,-7e-4 4e-4,-8e-4 4e-4,-8e-4 4e-4,-7e-4 4e-4,-7e-4 3e-4,-7e-4 4e-4,-6e-4 3e-4,-7e-4 3e-4,-6e-4 4e-4,-6e-4 3e-4,-6e-4 3e-4,-6e-4 3e-4,-6e-4 2e-4,-5e-4 3e-4,-5e-4 3e-4,-6e-4 2e-4,-5e-4 3e-4,-4e-4 2e-4,-5e-4 3e-4,-5e-4 2e-4,-4e-4 2e-4,-4e-4 2e-4,-4e-4 2e-4,-4e-4 2e-4,-4e-4 2e-4,-3e-4 2e-4,-4e-4 2e-4,-3e-4 10e-5,-4e-4 2e-4,-3e-4 2e-4,-3e-4 10e-5,-3e-4 2e-4,-2e-4 10e-5,-3e-4 10e-5,-2e-4 2e-4,-3e-4 10e-5,-2e-4 10e-5,-2e-4 10e-5,-2e-4 10e-5,-2e-4 10e-5,-2e-4 10e-5,-2e-4 10e-5,-2e-4 10e-5,-10e-5 v -2e-4 l 10e-5,-10e-5 10e-5,-2e-4 v -10e-5 l 10e-5,-10e-5 10e-5,-10e-5 v -10e-5 l 10e-5,-10e-5 v -10e-5 l 10e-5,-10e-5 v -10e-5 0 l 1e-4,-1e-4 v -10e-5 0 l 10e-5,-10e-5 v 0 -10e-5 0 0 0 l 10e-5,-10e-5 v 0 0 0 0 0 0 -10e-5 l -0.1331,-0.0692 0.1331,0.0692 v 0 0 0 0 0 0 l 10e-5,-10e-5 v 0 0 0 -10e-5 0 h 10e-5 v -10e-5 -10e-5 0 l 10e-5,-10e-5 v 0 -10e-5 l 10e-5,-10e-5 v -10e-5 l 10e-5,-10e-5 v -1e-4 l 10e-5,-10e-5 10e-5,-10e-5 v -10e-5 l 10e-5,-2e-4 10e-5,-10e-5 v -2e-4 l 10e-5,-10e-5 10e-5,-2e-4 10e-5,-2e-4 1e-4,-2e-4 10e-5,-2e-4 10e-5,-2e-4 10e-5,-2e-4 2e-4,-2e-4 10e-5,-3e-4 10e-5,-2e-4 2e-4,-3e-4 10e-5,-3e-4 10e-5,-2e-4 2e-4,-3e-4 2e-4,-4e-4 10e-5,-3e-4 2e-4,-3e-4 2e-4,-4e-4 2e-4,-3e-4 2e-4,-4e-4 2e-4,-4e-4 2e-4,-4e-4 2e-4,-4e-4 2e-4,-5e-4 3e-4,-4e-4 2e-4,-5e-4 3e-4,-5e-4 2e-4,-5e-4 3e-4,-5e-4 3e-4,-5e-4 2e-4,-5e-4 3e-4,-6e-4 3e-4,-6e-4 3e-4,-6e-4 4e-4,-6e-4 3e-4,-6e-4 3e-4,-7e-4 4e-4,-6e-4 3e-4,-7e-4 4e-4,-7e-4 4e-4,-8e-4 4e-4,-7e-4 4e-4,-8e-4 4e-4,-8e-4 4e-4,-8e-4 4e-4,-8e-4 5e-4,-8e-4 4e-4,-9e-4 5e-4,-9e-4 4e-4,-9e-4 5e-4,-9e-4 5e-4,-10e-4 5e-4,-9e-4 5e-4,-10e-4 6e-4,-0.0011 5e-4,-0.001 6e-4,-0.0011 5e-4,-10e-4 6e-4,-0.0012 6e-4,-0.0011 6e-4,-0.0012 6e-4,-0.0011 7e-4,-0.0012 6e-4,-0.0013 7e-4,-0.0012 6e-4,-0.0013 7e-4,-0.0013 7e-4,-0.0014 7e-4,-0.0013 7e-4,-0.0014 8e-4,-0.0014 7e-4,-0.0015 8e-4,-0.0014 8e-4,-0.0015 7e-4,-0.0016 9e-4,-0.0015 8e-4,-0.0016 8e-4,-0.0016 9e-4,-0.0016 8e-4,-0.0017 9e-4,-0.0017 9e-4,-0.0017 9e-4,-0.0018 0.001,-0.0018 9e-4,-0.0018 10e-4,-0.0018 9e-4,-0.0019 0.001,-0.0019 10e-4,-0.002 0.0011,-0.0019 0.001,-0.002 0.0011,-0.0021 0.001,-0.002 0.0011,-0.0021 0.0011,-0.0022 0.0012,-0.0021 0.0011,-0.0022 0.0012,-0.0023 0.0012,-0.0022 0.0011,-0.0023 0.0013,-0.0024 0.0012,-0.0023 0.0012,-0.0024 0.0013,-0.0025 0.0013,-0.0024 0.0013,-0.0026 0.0013,-0.0025 0.0014,-0.0026 0.0013,-0.0026 0.0014,-0.0027 0.0014,-0.0027 0.0014,-0.0027 0.0015,-0.0027 0.0014,-0.0028 0.0015,-0.0029 0.0015,-0.0029 0.0015,-0.0029 0.0016,-0.0029 0.0015,-0.003 0.0016,-0.0031 0.0016,-0.003 0.0016,-0.0032 0.0017,-0.0031 0.0016,-0.0032 0.0017,-0.0032 0.0017,-0.0033 0.0017,-0.0033 0.0018,-0.0034 0.0018,-0.0034 0.0017,-0.0034 0.0019,-0.0035 0.0018,-0.0035 0.0018,-0.0036 0.0019,-0.0036 0.0019,-0.0037 0.0019,-0.0037 0.002,-0.0037 0.002,-0.0038 0.0019,-0.0038 0.0021,-0.0039 0.002,-0.0039 0.0021,-0.004 0.002,-0.004 0.0022,-0.004 0.0021,-0.0041 0.0021,-0.0042 0.0022,-0.0041 0.0022,-0.0043 0.0022,-0.0043 0.0023,-0.0043 0.0023,-0.0044 0.0023,-0.0044 0.0023,-0.0045 0.0023,-0.0045 0.0024,-0.0045 0.0024,-0.0047 0.0024,-0.0046 0.0025,-0.0047 0.0025,-0.0048 0.0025,-0.0048 0.0025,-0.0049 0.0026,-0.0049 0.0025,-0.0049 0.0026,-0.005 0.0027,-0.0051 0.0026,-0.0051 0.0027,-0.0052 0.0027,-0.0052 0.0028,-0.0052 0.0027,-0.0054 0.0028,-0.0053 0.0029,-0.0055 0.0028,-0.0054 0.0029,-0.0056 0.0029,-0.0055 0.0029,-0.0057 0.003,-0.0057 0.003,-0.0057 0.003,-0.0058 0.003,-0.0058 0.0031,-0.0059 0.0031,-0.006 0.0031,-0.006 0.0032,-0.0061 0.0032,-0.0061 0.0032,-0.0062 0.0032,-0.0062 0.0033,-0.0063 0.0033,-0.0064 0.0033,-0.0064 0.0034,-0.0065 0.0034,-0.0065 0.0034,-0.0066 0.0035,-0.0066 0.0034,-0.0067 0.0036,-0.0067 0.0035,-0.0069 0.0036,-0.0068 0.0036,-0.007 0.0036,-0.007 0.0037,-0.007 0.0037,-0.0071 0.0037,-0.0072 0.0038,-0.0072 0.0038,-0.0073 0.0038,-0.0074 0.0039,-0.0074 0.0039,-0.0075 0.0039,-0.0075 0.0039,-0.0076 0.004,-0.0077 0.004,-0.0077 0.0041,-0.0078 0.0041,-0.0078 0.0041,-0.0079 0.0041,-0.008 0.0042,-0.0081 0.0042,-0.0081 0.0043,-0.0081 z m 2.9513,7.3219 c -0.0012,0 -0.0048,0 -0.009,10e-5 0.0019,0 0.0035,-10e-5 0.0044,-10e-5 0.0017,0 0.0035,0 0.0046,0 z m 6.4887,-8.6795 c -0.6101,0.6664 -1.6489,0.7122 -2.3153,0.1022 -0.6664,-0.6101 -0.7122,-1.649 -0.1022,-2.3154 0.6102,-0.6664 1.649,-0.7122 2.3154,-0.1021 0.6664,0.6101 0.7122,1.649 0.1021,2.3153 z M 24.87,34.9435 c -0.3447,0.3765 -0.319,0.9612 0.0576,1.3058 0.3764,0.3447 0.961,0.3189 1.3057,-0.0575 l -0.1106,-0.1013 0.1106,0.1013 0.9574,-1.0458 c 0.3448,-0.3765 0.319,-0.9611 -0.0576,-1.3058 -0.3764,-0.3446 -0.9611,-0.3188 -1.3057,0.0576 z m 6.3106,5.7776 v -1e-4 l 0.9574,-1.0457 c 0,0 0,0 0,0 0.3447,-0.3765 0.3189,-0.9612 -0.0576,-1.3058 -0.3765,-0.3448 -0.9611,-0.3188 -1.3058,0.0576 v 0 l -0.9574,1.0458 c -0.5585,0.6101 -0.0922,1.5833 0.7225,1.5474 0.2361,-0.0104 0.4686,-0.1111 0.6409,-0.2992 z m 2.9651,-5.5956 c 9e-4,0 0.0013,0 5e-4,0 h -1e-4 c 0,0 -2e-4,0 -4e-4,0 z m 2.7079,-12.1409 c -2.0944,2.2876 -0.3635,5.9734 2.7257,5.8371 3.0862,-0.1361 4.4916,-3.9576 2.2012,-6.0544 -1.4185,-1.2985 -3.6284,-1.2011 -4.9269,0.2173 z"
       fill="#000000"
       stroke="#000000"
       stroke-width="0.3"
       id="path21"
       style="fill:#f44336;fill-opacity:1;stroke:none" />
  </g>
  <defs
     id="defs30">
    <clipPath
       id="clip0">
      <rect
         width="26"
         height="26"
         fill="#ffffff"
         transform="rotate(-2.52554,399.90919,-490.45045)"
         id="rect27"
         x="0"
         y="0" />
    </clipPath>
    <mask
       id="path-6-outside-1"
       maskUnits="userSpaceOnUse"
       x="7.125"
       y="5.0625"
       width="29"
       height="46"
       fill="#000000">
      <rect
         fill="#ffffff"
         x="7.125"
         y="5.0625"
         width="29"
         height="46"
         id="rect12" />
      <path
         fill-rule="evenodd"
         clip-rule="evenodd"
         d="m 11.5,7.75 h 20.25 c 0.932,0 1.6875,0.75552 1.6875,1.6875 H 29.074 c -0.6713,0 -1.3152,0.26668 -1.7899,0.7414 l -0.699,0.699 c -0.1582,0.1582 -0.3728,0.2471 -0.5966,0.2471 h -8.727 c -0.2238,0 -0.4384,-0.0889 -0.5966,-0.2471 l -0.699,-0.699 C 15.4912,9.70418 14.8473,9.4375 14.176,9.4375 H 9.8125 C 9.8125,8.50552 10.568,7.75 11.5,7.75 Z M 35.125,9.4375 V 10.2812 16 H 33.4375 V 11.125 H 29.074 c -0.2238,0 -0.4384,0.0889 -0.5966,0.2471 l -0.699,0.699 c -0.4747,0.4747 -1.1186,0.7414 -1.7899,0.7414 h -8.727 c -0.6713,0 -1.3152,-0.2667 -1.7899,-0.7414 l -0.699,-0.699 C 14.6144,11.2139 14.3998,11.125 14.176,11.125 H 9.8125 v 35.4375 c 0,0.932 0.7555,1.6875 1.6875,1.6875 h 20.25 c 0.932,0 1.6875,-0.7555 1.6875,-1.6875 V 46 h 1.6875 v 0.5625 c 0,1.864 -1.511,3.375 -3.375,3.375 H 11.5 c -1.86396,0 -3.375,-1.511 -3.375,-3.375 V 10.2812 9.4375 c 0,-1.86396 1.51104,-3.375 3.375,-3.375 h 20.25 c 1.864,0 3.375,1.51104 3.375,3.375 z M 34.2812,17 c 0.466,0 0.8438,-0.3778 0.8438,-0.8438 h -1.6875 c 0,0.466 0.3778,0.8438 0.8437,0.8438 z m 0,28.0312 c -0.4659,0 -0.8437,0.3778 -0.8437,0.8438 h 1.6875 c 0,-0.466 -0.3778,-0.8438 -0.8438,-0.8438 z"
         id="path14" />
    </mask>
  </defs>
</svg>
