<?xml version="1.0" encoding="UTF-8" standalone="no"?>
<svg
   xmlns:dc="http://purl.org/dc/elements/1.1/"
   xmlns:cc="http://creativecommons.org/ns#"
   xmlns:rdf="http://www.w3.org/1999/02/22-rdf-syntax-ns#"
   xmlns:svg="http://www.w3.org/2000/svg"
   xmlns="http://www.w3.org/2000/svg"
   xmlns:sodipodi="http://sodipodi.sourceforge.net/DTD/sodipodi-0.dtd"
   xmlns:inkscape="http://www.inkscape.org/namespaces/inkscape"
   id="Layer_1"
   x="0px"
   y="0px"
   viewBox="0 0 61.508333 60.34643"
   xml:space="preserve"
   version="1.1"
   sodipodi:docname="surflogo_text.svg"
   inkscape:version="1.0.1 (3bc2e813f5, 2020-09-07)"
   width="61.508331"
   height="60.346428"><metadata
   id="metadata25"><rdf:RDF><cc:Work
       rdf:about=""><dc:format>image/svg+xml</dc:format><dc:type
         rdf:resource="http://purl.org/dc/dcmitype/StillImage" /><dc:title /></cc:Work></rdf:RDF></metadata><defs
   id="defs23" /><sodipodi:namedview
   pagecolor="#ffffff"
   bordercolor="#666666"
   borderopacity="1"
   objecttolerance="10"
   gridtolerance="10"
   guidetolerance="10"
   inkscape:pageopacity="0"
   inkscape:pageshadow="2"
   inkscape:window-width="3440"
   inkscape:window-height="1346"
   id="namedview21"
   showgrid="false"
   inkscape:zoom="13.770492"
   inkscape:cx="15.235741"
   inkscape:cy="26.474196"
   inkscape:window-x="2293"
   inkscape:window-y="-11"
   inkscape:window-maximized="1"
   inkscape:current-layer="Layer_1"
   inkscape:document-rotation="0" /> <g
   id="g18"
   transform="matrix(0.2342305,0,0,0.24667414,19.283968,20.366749)"
   style="fill:#f44336;fill-opacity:1;stroke:#000000;stroke-width:0.582431;stroke-miterlimit:4;stroke-dasharray:none;stroke-opacity:1"> <path
   d="m 97.5,45 c 1,-1.4 1,-3.5 0.7,-3.9 2.7,-0.2 0.6,3.5 -0.7,3.9 z"
   id="path2"
   style="fill:#f44336;fill-opacity:1;stroke:#000000;stroke-width:0.582431;stroke-miterlimit:4;stroke-dasharray:none;stroke-opacity:1" /> <path
   d="m 62.7,35.6 c -0.3,-0.6 -1.4,-1 -1.2,-2.1 0,0 0,-0.1 -0.1,-0.1 -0.2,-0.3 -0.4,-0.3 -0.7,0 -0.5,0.8 -1.1,1.6 -1.7,2.4 -1.6,2.2 -7.4,9.6 -9.4,9.8 -0.4,0 -0.6,-0.3 -0.6,-0.6 -0.1,-1.2 1.2,-4.4 3.1,-6.8 -1.8,3.3 -2.1,5.3 -1.8,5.7 1.4,-5 5.9,-9.7 9.6,-12.9 0.1,-0.1 0.1,-0.1 0.1,-0.2 0,-1.1 -1.6,-2.3 -3.3,-2.2 0.2,-0.8 -0.4,-1.3 -0.9,-1.3 -0.5,0.9 -3.1,4.9 -4.6,6.5 -3.8,4.2 -9.3,8.5 -15.1,11 -0.1,0.1 1.1,1.2 3.5,0.1 -0.1,0.1 -0.7,0.7 -1.3,0.8 0.3,0.3 1.6,0.3 2.7,0 2.3,-0.8 5.9,-4.5 7,-5.9 -0.7,1.1 -3.4,5.4 -4,8.7 -0.3,1.8 -0.1,3.2 0.9,3.4 0.2,1.7 1.5,2.9 2.4,2.8 0.2,0 0.3,-0.1 0.4,-0.4 0.9,-4.6 7.2,-12.3 7.7,-11.6 -2,2.7 -3.8,7.9 -2.9,10.3 0.5,1.5 2.8,2 5.7,0.9 -2.3,-1.1 -1.8,-6.8 -0.9,-9 -0.7,3.6 -0.3,6.8 0.7,7.6 h 0.1 C 56.6,45.7 60,39.3 62.5,36.7 62.9,36.3 62.9,36 62.7,35.6 Z"
   id="path4"
   style="fill:#f44336;fill-opacity:1;stroke:#000000;stroke-width:0.582431;stroke-miterlimit:4;stroke-dasharray:none;stroke-opacity:1" /> <g
   id="g14"
   style="fill:#f44336;fill-opacity:1;stroke:#000000;stroke-width:0.582431;stroke-miterlimit:4;stroke-dasharray:none;stroke-opacity:1"> <path
   d="m 30.8,61.2 c -2.7,0.5 -4,-4.6 -0.1,-6.3 1,-0.4 2.9,-0.5 2.9,0.6 -4.9,1.2 -4.9,5.4 -2.8,5.7 z"
   id="path6"
   style="fill:#f44336;fill-opacity:1;stroke:#000000;stroke-width:0.582431;stroke-miterlimit:4;stroke-dasharray:none;stroke-opacity:1" /> <path
   d="m 39.5,11.5 v 0 C 21.4,15.7 2.7,31.2 12.5,35 9.6,30.3 17.4,18.8 39.5,11.5 Z"
   id="path8"
   style="fill:#f44336;fill-opacity:1;stroke:#000000;stroke-width:0.582431;stroke-miterlimit:4;stroke-dasharray:none;stroke-opacity:1" /> <path
   d="m 24.3,67.6 c 0.9,-0.2 1,-1 0.4,-1.5 -1.3,-1.1 -1.8,-3 -1.2,-4.1 -0.8,0.6 -1.6,2.3 -1.1,3.9 0.3,1 1.1,1.8 1.9,1.7 z"
   id="path10"
   style="fill:#f44336;fill-opacity:1;stroke:#000000;stroke-width:0.582431;stroke-miterlimit:4;stroke-dasharray:none;stroke-opacity:1" /> <path
   d="m 46.3,26.5 c -1.8,2.7 -8.8,6.7 -15.8,6.6 1.1,2 3.6,3.9 8.4,3.1 10,-1.7 22.1,-14.6 21.2,-23.4 0,0 -0.1,0 -0.1,0 -0.3,2.9 -2.1,7.1 -3.9,8.5 1,-1.3 3,-4.9 3,-8.7 C 58.9,3.3 46.7,0.7 32.5,6.7 32.4,6.7 40.6,4.4 44.2,4.9 22.5,8.2 5.3,24.3 4.8,35 4,53.9 40.3,44.3 39.1,56 40.9,50.3 30.2,47 29,46.2 c 0.1,-0.1 0.2,-0.1 0.3,0 3,0.6 10.4,3.9 10.6,8.2 0.3,7.3 -9.9,9 -11.9,7.5 0.3,1.1 2.7,2.6 5.3,1.9 -1.2,0.6 -6.2,0.7 -6.4,-3.2 -0.1,-2.3 1,-3.8 1,-3.8 -0.2,0 -0.7,0.7 -0.9,1 -0.1,0.2 -0.2,0.4 -0.5,0.3 -0.1,0 -0.3,0.1 -0.4,0.2 -2.1,4 0.8,8.7 6.5,8.3 3.7,-0.3 6.1,-2 7.1,-3.1 -0.5,0.4 -1.6,1 -2.4,1.1 0,0 0,-0.1 0,-0.1 2.6,-1.5 4.8,-3.8 5.2,-6.9 C 44.5,41.3 10.4,43.2 8.8,33.6 6.7,20.8 47,3.4 56.4,11.7 55.3,6.4 41.3,8.8 41.3,8.7 c 6.9,-2.3 16.1,-1.9 16.3,3.7 0.2,4.4 -8.5,15.4 -25,18.9 3.3,1.1 10.5,-1.9 13.7,-4.8 z"
   id="path12"
   style="fill:#f44336;fill-opacity:1;stroke:#000000;stroke-width:0.582431;stroke-miterlimit:4;stroke-dasharray:none;stroke-opacity:1" /> </g> <path
   d="m 96.9,40.5 c -0.7,-1.8 -8.4,-1.1 -13,0.9 -0.1,-0.2 -0.2,-0.4 -0.3,-0.6 1.3,-3.3 5.2,-9.4 9.4,-13.5 0.7,-0.7 1.5,-1.4 2.2,-1.9 0.1,-1.2 -3.2,-2.8 -5.4,-1.1 -2.6,2.8 -5.4,8.3 -6.6,10.9 H 83 c 0.6,-2.9 3.5,-8.2 5.3,-9.9 -2.4,0.1 -7.3,9.9 -9.9,18.9 v 0 c -2.8,1.2 -8,4.4 -9.8,6.3 -0.1,0.1 -0.2,-0.3 -0.2,-0.4 -0.3,-4.8 5.4,-8.3 9.9,-11.4 0.6,-0.4 0.2,-1.6 -0.1,-1.8 -1.7,2.5 -6.3,5.1 -8.5,8 1.5,-3 8.2,-7.3 8.1,-8.9 -0.1,-2.4 -3.2,-4.9 -4.5,-5.6 0.2,-0.4 0.8,-1.6 0.6,-2.8 -0.2,-1.4 -1.7,-2 -2.9,-1.9 0.2,0.8 0,2.1 -0.2,2.8 -2.4,-1.6 -6.1,-1.9 -6.1,0.2 1.6,-1.2 5,-0.3 6.5,0.7 -6.6,-2.2 -8.3,1.4 -7.5,3.3 0,0 2.8,-0.1 5,0.7 -0.5,1.4 -3.8,8 -7.6,12.1 0.3,-0.1 0.5,-0.1 0.8,-0.2 0.5,-0.2 4.6,-5.8 5.8,-7.6 0,0.1 -0.9,2.1 -2.7,4.8 1.9,-2.3 5.1,-7.2 5.9,-8.4 0,0 2.3,0.9 2.4,2.5 0.2,2.7 -11.8,9.3 -11.6,14.4 0,0.9 0.5,2.3 1.5,3.2 -0.4,-0.8 -0.6,-1.8 -0.5,-3 0.2,-1.6 1,-3.5 2.7,-5.2 -3.2,4 -2.1,7.7 -1.4,8.7 -10.4,0.6 -18.9,4.4 -19,10.2 0,0.1 -0.1,0.3 -0.2,0.4 -1.1,1.7 -0.6,3.8 0.1,4 5,-6 13.5,-10.9 20.9,-12.3 0,-0.1 -0.6,-0.1 -1.6,0 -3.6,0.5 -8.2,1.8 -11.9,4 -0.1,-3.1 13.3,-6.2 21.7,-5 0.1,-1.2 -2.5,-1.7 -5.4,-1.8 v 0 C 70,48.7 78.6,44.1 82,43 c -3.3,1.4 -8.6,4.7 -10.9,8.2 2.2,-2 5.2,-4.1 6.4,-4.7 -3.1,12.8 0.2,18 2.5,17.9 1.6,-0.1 3.1,-1.7 4.1,-5.6 -0.7,1.7 -1.7,2.9 -2.6,2.9 -2.2,0.1 -2.5,-3.2 -2.5,-3.2 1.4,3.6 5.5,0.8 5.9,-5.6 0,-0.4 0.1,-0.9 0.1,-1.4 0.1,-2.1 0,-4.7 -0.4,-6.9 3.2,-1 8.3,-1 9.7,0 0.3,-1.9 -3.2,-2.4 -8.9,-1.1 3.8,-1.3 9.3,-1.7 9.7,0.1 0.2,0.9 -0.4,2.3 -0.8,2.8 -0.2,0.3 0.5,0.1 0.6,-0.2 1.2,-0.9 2.8,-3.8 2,-5.7 z M 81.5,57.6 c -1.8,0.1 -1.5,-6.7 0.6,-12.2 0.2,-0.1 0.4,-0.2 0.7,-0.2 0.4,4.2 -0.3,8.7 -1,10.7 1,0 2.1,-4.4 2,-8.6 H 84 c 0.6,6.6 -1.4,10.2 -2.5,10.3 z"
   id="path16"
   style="fill:#f44336;fill-opacity:1;stroke:#000000;stroke-width:0.582431;stroke-miterlimit:4;stroke-dasharray:none;stroke-opacity:1" /> </g> <g
   id="g896"
   transform="matrix(0.11397202,0,0,0.11259874,1.5553099,2.5012009)"
   style="fill:#f4433f;fill-opacity:1;stroke:none;stroke-opacity:1">
	<g
   id="g894"
   style="fill:#f4433f;fill-opacity:1;stroke:none;stroke-width:0.998201;stroke-miterlimit:4;stroke-dasharray:none;stroke-opacity:1"
   transform="matrix(0.9859514,0,0,1.0480873,1.3437201,-12.31034)">
		<path
   d="m 95.648,256 h 16.879 c 0,-79.111 64.361,-143.473 143.473,-143.473 V 95.648 C 167.582,95.648 95.648,167.582 95.648,256 Z"
   id="path892"
   style="opacity:1;fill:#f44336;fill-opacity:1;stroke:none;stroke-width:0.998201;stroke-miterlimit:4;stroke-dasharray:none;stroke-opacity:1" />
	</g>
</g><g
   id="g904"
   transform="matrix(0.11397202,0,0,0.10654941,1.5553099,4.0498275)">
</g><g
   id="g906"
   transform="matrix(0.11397202,0,0,0.10654941,1.5553099,4.0498275)">
</g><g
   id="g908"
   transform="matrix(0.11397202,0,0,0.10654941,1.5553099,4.0498275)">
</g><g
   id="g910"
   transform="matrix(0.11397202,0,0,0.10654941,1.5553099,4.0498275)">
</g><g
   id="g912"
   transform="matrix(0.11397202,0,0,0.10654941,1.5553099,4.0498275)">
</g><g
   id="g914"
   transform="matrix(0.11397202,0,0,0.10654941,1.5553099,4.0498275)">
</g><g
   id="g916"
   transform="matrix(0.11397202,0,0,0.10654941,1.5553099,4.0498275)">
</g><g
   id="g918"
   transform="matrix(0.11397202,0,0,0.10654941,1.5553099,4.0498275)">
</g><g
   id="g920"
   transform="matrix(0.11397202,0,0,0.10654941,1.5553099,4.0498275)">
</g><g
   id="g922"
   transform="matrix(0.11397202,0,0,0.10654941,1.5553099,4.0498275)">
</g><g
   id="g924"
   transform="matrix(0.11397202,0,0,0.10654941,1.5553099,4.0498275)">
</g><g
   id="g926"
   transform="matrix(0.11397202,0,0,0.10654941,1.5553099,4.0498275)">
</g><g
   id="g928"
   transform="matrix(0.11397202,0,0,0.10654941,1.5553099,4.0498275)">
</g><g
   id="g930"
   transform="matrix(0.11397202,0,0,0.10654941,1.5553099,4.0498275)">
</g><g
   id="g932"
   transform="matrix(0.11397202,0,0,0.10654941,1.5553099,4.0498275)">
</g><ellipse
   style="opacity:1;fill:none;fill-opacity:1;fill-rule:nonzero;stroke:none;stroke-width:0.110034;stroke-miterlimit:4;stroke-dasharray:none;stroke-opacity:1"
   id="path1031"
   cx="-29.633827"
   cy="33.234657"
   rx="16.200726"
   ry="15.918303"
   transform="rotate(-85.881087)" /><text
   xml:space="preserve"
   style="font-style:normal;font-variant:normal;font-weight:bold;font-stretch:normal;font-size:10.6667px;line-height:1.25;font-family:Play;-inkscape-font-specification:'Play Bold';fill:#000000;fill-opacity:1;stroke:none"
   x="-18.823923"
   y="22.544165"
   id="text1037"><tspan
     sodipodi:role="line"
     id="tspan1035"
     x="-18.823923"
     y="22.544165" /></text><g
   aria-label="EDUCATION"
   transform="matrix(1,0,0,1.0538872,-0.07261974,-2.2605158)"
   id="text882"
   style="font-style:normal;font-variant:normal;font-weight:bold;font-stretch:normal;font-size:5.33333px;line-height:1.25;font-family:Play;-inkscape-font-specification:'Play Bold';fill:#f44336;fill-opacity:1;stroke:#000000;stroke-width:0.1;stroke-miterlimit:4;stroke-dasharray:none;stroke-opacity:1"><path
     id="path916"
     style="font-style:normal;font-variant:normal;font-weight:bold;font-stretch:normal;font-size:5.33333px;font-family:Play;-inkscape-font-specification:'Play Bold';fill:#f44336;fill-opacity:1;stroke:#000000;stroke-width:0.1;stroke-miterlimit:4;stroke-dasharray:none;stroke-opacity:1"
     sodipodi:type="inkscape:offset"
     inkscape:radius="0"
     inkscape:original="M 33.166016 12.359375 L 32.5625 15.767578 L 35.214844 16.236328 L 35.318359 15.652344 L 33.486328 15.328125 L 33.640625 14.451172 L 35.248047 14.736328 L 35.351562 14.152344 L 33.744141 13.869141 L 33.882812 13.085938 L 35.662109 13.400391 L 35.765625 12.818359 L 33.166016 12.359375 z M 37.115234 13.201172 L 35.765625 16.388672 L 37.126953 16.964844 C 37.686939 17.201655 38.106119 17.303078 38.382812 17.269531 C 38.659506 17.235986 38.873056 17.03796 39.025391 16.677734 L 39.574219 15.380859 C 39.733477 15.004261 39.723927 14.698819 39.544922 14.464844 C 39.369193 14.232253 39.01104 14.001939 38.470703 13.773438 L 37.115234 13.201172 z M 37.650391 14.070312 L 38.234375 14.316406 C 38.486532 14.42304 38.662205 14.532961 38.761719 14.644531 C 38.861232 14.756101 38.87954 14.889054 38.814453 15.042969 L 38.259766 16.353516 C 38.190523 16.517282 38.089715 16.598923 37.958984 16.597656 C 37.829639 16.593144 37.618948 16.528934 37.324219 16.404297 L 36.763672 16.167969 L 37.650391 14.070312 z M 41.277344 15.169922 L 39.779297 17.185547 C 39.380712 17.722154 39.582709 18.289008 40.384766 18.884766 C 41.189677 19.482646 41.792822 19.51317 42.191406 18.976562 L 43.689453 16.958984 L 43.021484 16.462891 L 41.523438 18.480469 C 41.430151 18.606057 41.324947 18.663184 41.208984 18.652344 C 41.095142 18.638648 40.940186 18.560184 40.746094 18.416016 C 40.549148 18.269726 40.42776 18.142309 40.378906 18.035156 C 40.332174 17.92515 40.35398 17.80723 40.447266 17.681641 L 41.945312 15.666016 L 41.277344 15.169922 z M 44.818359 18.378906 C 44.511285 18.291472 44.225722 18.361079 43.962891 18.589844 L 42.816406 19.587891 C 42.68767 19.699939 42.600261 19.82644 42.552734 19.966797 C 42.507888 20.10482 42.493372 20.238089 42.509766 20.365234 C 42.531173 20.492727 42.576338 20.628148 42.644531 20.771484 C 42.717741 20.915168 42.791579 21.037801 42.865234 21.138672 C 42.938542 21.244559 43.021861 21.349753 43.115234 21.457031 C 43.348668 21.725226 43.62172 21.98095 43.9375 22.224609 L 44.412109 21.8125 C 44.047209 21.550316 43.782925 21.323231 43.617188 21.132812 C 43.24136 20.701019 43.172192 20.383156 43.408203 20.177734 L 44.517578 19.210938 C 44.592673 19.145574 44.665057 19.107836 44.736328 19.097656 C 44.812615 19.087816 44.889699 19.103471 44.964844 19.146484 C 45.042322 19.192176 45.107723 19.241315 45.162109 19.292969 C 45.218829 19.347303 45.28782 19.420532 45.367188 19.511719 C 45.565605 19.739684 45.766059 20.045174 45.96875 20.429688 L 46.439453 20.021484 C 46.190324 19.616112 45.979381 19.313699 45.806641 19.115234 C 45.455324 18.711601 45.125433 18.466341 44.818359 18.378906 z M 47.65625 21.8125 L 44.013672 22.402344 L 44.417969 23.117188 L 45.361328 22.931641 L 45.982422 24.033203 L 45.341797 24.75 L 45.755859 25.484375 L 48.154297 22.693359 L 47.65625 21.8125 z M 47.283203 22.5625 L 47.294922 22.580078 L 46.376953 23.601562 L 45.935547 22.822266 L 47.283203 22.5625 z M 48.894531 24.132812 L 48.332031 24.318359 L 48.669922 25.332031 L 45.945312 26.236328 L 46.208984 27.025391 L 48.931641 26.121094 L 49.265625 27.128906 L 49.828125 26.941406 L 48.894531 24.132812 z M 50.001953 27.892578 L 46.597656 28.515625 L 46.748047 29.335938 L 50.152344 28.710938 L 50.001953 27.892578 z M 49.376953 29.960938 L 47.863281 29.982422 C 47.653528 29.985607 47.478477 30.041577 47.337891 30.150391 C 47.197358 30.262759 47.096396 30.411467 47.035156 30.59375 C 46.973968 30.779589 46.932962 30.952976 46.914062 31.113281 C 46.891662 31.277195 46.881966 31.449898 46.884766 31.634766 C 46.887732 31.830298 46.906413 32.015683 46.9375 32.189453 C 46.968586 32.363224 47.017699 32.537761 47.087891 32.710938 C 47.161639 32.884059 47.26994 33.020099 47.410156 33.121094 C 47.550372 33.222119 47.718529 33.270578 47.914062 33.267578 L 49.427734 33.246094 C 49.609046 33.243341 49.764178 33.201304 49.894531 33.121094 C 50.028439 33.04083 50.129843 32.942969 50.199219 32.828125 C 50.268594 32.713281 50.325001 32.574692 50.365234 32.414062 C 50.409028 32.253379 50.434639 32.110569 50.443359 31.982422 C 50.452093 31.85783 50.455258 31.724237 50.453125 31.582031 C 50.451018 31.443381 50.444194 31.311768 50.431641 31.1875 C 50.419087 31.063232 50.38849 30.920999 50.339844 30.761719 C 50.294753 30.602385 50.234939 30.4662 50.162109 30.353516 C 50.089333 30.244386 49.985947 30.15003 49.849609 30.070312 C 49.713327 29.994183 49.55471 29.958271 49.376953 29.960938 z M 49.396484 30.792969 C 49.567128 30.790378 49.683953 30.85611 49.75 30.990234 C 49.819567 31.124304 49.857195 31.325512 49.861328 31.595703 C 49.865375 31.862339 49.835025 32.063097 49.769531 32.199219 C 49.704088 32.338898 49.587013 32.411529 49.419922 32.414062 L 47.900391 32.435547 C 47.811513 32.436894 47.736921 32.416394 47.675781 32.371094 C 47.61825 32.329295 47.576961 32.264633 47.550781 32.179688 C 47.524601 32.094742 47.504094 32.011294 47.492188 31.929688 C 47.483907 31.851582 47.480316 31.754039 47.478516 31.636719 C 47.476716 31.519399 47.478508 31.419767 47.484375 31.337891 C 47.493848 31.259516 47.509663 31.177147 47.533203 31.087891 C 47.556794 31.002189 47.596164 30.935752 47.652344 30.888672 C 47.71208 30.841519 47.786121 30.815786 47.875 30.814453 L 49.396484 30.792969 z M 46.892578 33.964844 L 46.728516 34.6875 L 49.070312 35.216797 L 46.359375 36.322266 L 46.173828 37.144531 L 49.550781 37.90625 L 49.712891 37.183594 L 47.408203 36.662109 L 50.082031 35.550781 L 50.267578 34.728516 L 46.892578 33.964844 z "
     d="m 33.166016,12.359375 -0.603516,3.408203 2.652344,0.46875 0.103515,-0.583984 -1.832031,-0.324219 0.154297,-0.876953 1.607422,0.285156 0.103515,-0.583984 -1.607421,-0.283203 0.138671,-0.783203 1.779297,0.314453 0.103516,-0.582032 z m 3.949218,0.841797 -1.349609,3.1875 1.361328,0.576172 c 0.559986,0.236811 0.979166,0.338234 1.255859,0.304687 0.276694,-0.03355 0.490244,-0.231571 0.642579,-0.591797 l 0.548828,-1.296875 c 0.159258,-0.376598 0.149708,-0.68204 -0.0293,-0.916015 -0.175729,-0.232591 -0.533882,-0.462905 -1.074219,-0.691406 z m 0.535157,0.86914 0.583984,0.246094 c 0.252157,0.106634 0.42783,0.216555 0.527344,0.328125 0.09951,0.11157 0.117821,0.244523 0.05273,0.398438 l -0.554687,1.310547 c -0.06924,0.163766 -0.170051,0.245407 -0.300782,0.24414 -0.129345,-0.0045 -0.340036,-0.06872 -0.634765,-0.193359 l -0.560547,-0.236328 z m 3.626953,1.09961 -1.498047,2.015625 c -0.398585,0.536607 -0.196588,1.103461 0.605469,1.699219 0.804911,0.59788 1.408056,0.628404 1.80664,0.0918 l 1.498047,-2.017578 -0.667969,-0.496093 -1.498046,2.017578 c -0.09329,0.125588 -0.198491,0.182715 -0.314454,0.171875 -0.113842,-0.0137 -0.268798,-0.09216 -0.46289,-0.236328 -0.196946,-0.14629 -0.318334,-0.273707 -0.367188,-0.38086 -0.04673,-0.110006 -0.02493,-0.227926 0.06836,-0.353515 l 1.498046,-2.015625 z m 3.541015,3.208984 c -0.307074,-0.08743 -0.592637,-0.01783 -0.855468,0.210938 l -1.146485,0.998047 c -0.128736,0.112048 -0.216145,0.238549 -0.263672,0.378906 -0.04485,0.138023 -0.05936,0.271292 -0.04297,0.398437 0.02141,0.127493 0.06657,0.262914 0.134765,0.40625 0.07321,0.143684 0.147048,0.266317 0.220703,0.367188 0.07331,0.105887 0.156627,0.211081 0.25,0.318359 0.233434,0.268195 0.506486,0.523919 0.822266,0.767578 L 44.412109,21.8125 c -0.3649,-0.262184 -0.629184,-0.489269 -0.794921,-0.679688 -0.375828,-0.431793 -0.444996,-0.749656 -0.208985,-0.955078 l 1.109375,-0.966796 c 0.07509,-0.06536 0.147479,-0.103102 0.21875,-0.113282 0.07629,-0.0098 0.153371,0.0058 0.228516,0.04883 0.07748,0.04569 0.142879,0.09483 0.197265,0.146485 0.05672,0.05433 0.125711,0.127563 0.205079,0.21875 0.198417,0.227965 0.398871,0.533455 0.601562,0.917969 l 0.470703,-0.408204 c -0.249129,-0.405372 -0.460072,-0.707785 -0.632812,-0.90625 -0.351317,-0.403633 -0.681208,-0.648893 -0.988282,-0.736328 z m 2.837891,3.433594 -3.642578,0.589844 0.404297,0.714844 0.943359,-0.185547 0.621094,1.101562 -0.640625,0.716797 0.414062,0.734375 2.398438,-2.791016 z m -0.373047,0.75 0.01172,0.01758 -0.917969,1.021484 -0.441406,-0.779296 z m 1.611328,1.570312 -0.5625,0.185547 0.337891,1.013672 -2.72461,0.904297 0.263672,0.789063 2.722657,-0.904297 0.333984,1.007812 0.5625,-0.1875 z m 1.107422,3.759766 -3.404297,0.623047 0.150391,0.820313 3.404297,-0.625 z m -0.625,2.06836 -1.513672,0.02148 c -0.209753,0.0032 -0.384804,0.05916 -0.52539,0.167969 -0.140533,0.112368 -0.241495,0.261076 -0.302735,0.443359 -0.06119,0.185839 -0.102194,0.359226 -0.121094,0.519531 -0.0224,0.163914 -0.0321,0.336617 -0.0293,0.521485 0.003,0.195532 0.02165,0.380917 0.05273,0.554687 0.03109,0.173771 0.0802,0.348308 0.150391,0.521485 0.07375,0.173121 0.182049,0.309161 0.322265,0.410156 0.140216,0.101025 0.308373,0.149484 0.503906,0.146484 l 1.513672,-0.02148 c 0.181312,-0.0028 0.336444,-0.04479 0.466797,-0.125 0.133908,-0.08026 0.235312,-0.178125 0.304688,-0.292969 0.06938,-0.114844 0.125782,-0.253433 0.166015,-0.414063 0.04379,-0.160683 0.0694,-0.303493 0.07813,-0.43164 0.0087,-0.124592 0.0119,-0.258185 0.0098,-0.400391 -0.0021,-0.13865 -0.0089,-0.270263 -0.02148,-0.394531 -0.01255,-0.124268 -0.04315,-0.266501 -0.0918,-0.425781 -0.04509,-0.159334 -0.104905,-0.295519 -0.177735,-0.408203 -0.07278,-0.10913 -0.176162,-0.203486 -0.3125,-0.283204 -0.136282,-0.07613 -0.294899,-0.112041 -0.472656,-0.109374 z m 0.01953,0.832031 c 0.170644,-0.0026 0.287469,0.06314 0.353516,0.197265 0.06957,0.13407 0.107195,0.335278 0.111328,0.605469 0.004,0.266636 -0.0263,0.467394 -0.0918,0.603516 -0.06544,0.139679 -0.182518,0.21231 -0.349609,0.214843 l -1.519531,0.02148 c -0.08888,0.0013 -0.16347,-0.01915 -0.22461,-0.06445 -0.05753,-0.0418 -0.09882,-0.106461 -0.125,-0.191406 -0.02618,-0.08495 -0.04669,-0.168394 -0.05859,-0.25 -0.0083,-0.07811 -0.01187,-0.175649 -0.01367,-0.292969 -0.0018,-0.11732 -8e-6,-0.216952 0.0059,-0.298828 0.0095,-0.07837 0.02529,-0.160744 0.04883,-0.25 0.02359,-0.0857 0.06296,-0.152139 0.119141,-0.199219 0.05974,-0.04715 0.133777,-0.07289 0.222656,-0.07422 z m -2.503906,3.171875 -0.164062,0.722656 2.341796,0.529297 -2.710937,1.105469 -0.185547,0.822265 3.376953,0.761719 0.16211,-0.722656 -2.304688,-0.521485 2.673828,-1.111328 0.185547,-0.822265 z" /></g><rect
   style="fill:none;fill-opacity:1;stroke:none;stroke-width:0.14;stroke-miterlimit:4;stroke-dasharray:none;stroke-opacity:1"
   id="rect894"
   width="19.02619"
   height="28.248808"
   x="42.48214"
   y="0.87142849"
   rx="1.95" /><rect
   style="fill:none;fill-opacity:1;stroke:none;stroke-width:0.14;stroke-miterlimit:4;stroke-dasharray:none;stroke-opacity:1"
   id="rect896"
   width="33.477379"
   height="30.354763"
   x="9.0047626"
   y="29.120235"
   rx="1.95" /><rect
   style="fill:none;fill-opacity:1;stroke:none;stroke-width:0.14;stroke-miterlimit:4;stroke-dasharray:none;stroke-opacity:1"
   id="rect898"
   width="61.363094"
   height="60.346428"
   x="0"
   y="0"
   rx="8.0499964"
   ry="1.9607142" /></svg>
